<?xml version="1.0" standalone="no"?>
<!DOCTYPE svg PUBLIC "-//W3C//DTD SVG 1.1//EN" "http://www.w3.org/Graphics/SVG/1.1/DTD/svg11.dtd" >
<svg>
<metadata>
Created by FontForge 20120731 at Mon Jul 17 18:58:30 2017
 By www
Font software Copyright 1991 Adobe Systems Incorporated. Typeface designs Copyright 1991 The Monotype Corporation. All rights reserved. "Old English" is a trademark of The Monotype Corporation in the United States and/or other countries; "Monotype" is a trademark of Monotype Imaging, Inc. Registered in U.S. Patent and Trademark Office and may be registered in certain other jurisdictions.
</metadata>
<defs>
<font id="OldEnglishStd" horiz-adv-x="500" >
  <font-face 
    font-family="Old English Std"
    font-weight="500"
    font-stretch="normal"
    units-per-em="1000"
    panose-1="3 0 5 0 0 0 0 2 0 3"
    ascent="710"
    descent="-290"
    x-height="490"
    cap-height="730"
    bbox="-91 -270 1049 1015"
    underline-thickness="50"
    underline-position="-50"
    stemh="28"
    stemv="110"
    unicode-range="U+0020-FB02"
  />
<missing-glyph 
d="M12 0v665h475v-665h-475zM88 618l162 -243l161 243h-323zM60 575v-484c0 -1 161 242 161 242zM440 575l-162 -242l162 -243v485zM411 48l-161 242l-162 -242h323z" />
    <glyph glyph-name="fi" unicode="fi" horiz-adv-x="537" 
d="M528 42c-31 -27 -61 -55 -90 -84c-58 16 -97 39 -97 104c0 12 1 23 1 35v261l-29 26l-21 -11l-12 18c43 28 81 62 119 96c18 -26 42 -56 77 -56c13 0 24 7 35 13l5 -4c-14 -38 -27 -60 -66 -76v-259c0 -45 36 -55 74 -57zM394 652c-30 -39 -59 -57 -109 -57
c-32 0 -46 4 -71 25l-27 -13c6 -14 5 -29 5 -44v-100c19 -1 37 -3 56 -3s38 2 57 4c-3 -15 -5 -31 -5 -46c0 -12 2 -25 4 -37c-37 6 -75 8 -112 10v-309c23 -8 46 -17 66 -31l35 27l16 -18c-42 -34 -80 -73 -119 -112c-42 31 -100 69 -154 69h-16l-2 5c20 20 42 39 65 56
v313h-6c-18 0 -35 -1 -53 -4c1 26 2 51 2 77c12 -1 24 -2 35 -2c8 0 15 1 22 1v75c0 25 -2 44 -18 64c98 15 149 36 216 111c23 -24 58 -56 93 -56c5 0 10 2 15 3z" />
    <glyph glyph-name="fl" unicode="fl" horiz-adv-x="537" 
d="M538 38l-107 -85c-36 22 -71 47 -111 60c-36 -7 -93 -43 -123 -60c-102 64 -115 71 -177 71l-2 5c21 19 44 37 65 56v313h-6c-18 0 -35 -1 -53 -4c1 26 2 51 2 77c19 -1 38 -2 57 -2v76c0 25 -2 44 -18 64c29 4 57 11 85 20c63 22 87 41 131 91c23 -23 77 -67 110 -67
c15 0 71 39 87 49c-25 -58 -29 -101 -29 -164v-457c19 -12 37 -25 56 -37l18 13zM344 470v73c0 24 -2 44 -10 67c-17 -7 -30 -8 -48 -8c-33 0 -46 4 -72 25l-27 -13c6 -14 5 -26 5 -42v-103c9 0 17 -1 26 -1h73c18 0 35 1 53 2zM344 67v331c-45 2 -89 1 -134 1
c-6 0 -12 -1 -18 -1v-309c38 -16 76 -35 114 -51c13 9 26 18 38 29z" />
    <glyph glyph-name=".notdef" 
d="M12 0v665h475v-665h-475zM88 618l162 -243l161 243h-323zM60 575v-484c0 -1 161 242 161 242zM440 575l-162 -242l162 -243v485zM411 48l-161 242l-162 -242h323z" />
    <glyph glyph-name="space" unicode=" " horiz-adv-x="278" 
 />
    <glyph glyph-name="exclam" unicode="!" horiz-adv-x="407" 
d="M325 628c-15 -27 -39 -54 -63 -72l-38 -385h-28l-49 375c-21 6 -49 25 -65 43c54 25 95 62 123 97c23 -30 48 -60 87 -60c11 0 19 2 28 6zM297 39c-28 -24 -65 -61 -89 -89c-24 28 -61 65 -89 89c28 24 65 61 89 89c24 -28 61 -65 89 -89z" />
    <glyph glyph-name="quotedbl" unicode="&#x22;" horiz-adv-x="463" 
d="M390 739c-9 -16 -10 -19 -11 -41l-12 -206c0 -7 -1 -16 -1 -17c0 -4 1 -10 2 -18c-26 8 -33 10 -46 10c-11 0 -20 -2 -39 -10c3 13 3 20 3 27c0 4 0 10 -1 20l-12 197c-1 12 -2 20 -6 38c23 -7 28 -8 59 -8c34 0 40 1 64 8zM204 739c-9 -18 -11 -28 -12 -54
c-7 -127 -11 -190 -11 -190c-1 -15 0 -12 -1 -21l3 -17c-21 8 -31 10 -45 10c-15 0 -23 -2 -40 -10c2 16 2 23 2 31c0 6 0 15 -1 24c0 0 -5 71 -12 178c-2 25 -2 28 -8 49c28 -7 39 -8 64 -8c24 0 34 1 61 8z" />
    <glyph glyph-name="numbersign" unicode="#" horiz-adv-x="556" 
d="M513 447c-7 -17 -17 -50 -18 -72c-25 4 -47 4 -89 4l-26 -102c31 0 64 1 93 4c-10 -24 -15 -49 -16 -72c-16 3 -31 4 -94 4c-22 -96 -38 -171 -46 -217c-10 2 -28 4 -42 4c-16 0 -32 -2 -43 -4c23 61 53 147 71 218c-15 1 -35 2 -47 2c-13 0 -41 -1 -56 -2
c-22 -96 -38 -172 -46 -218c-10 2 -28 4 -42 4c-16 0 -32 -2 -43 -4c23 61 52 146 71 217c-25 0 -67 -1 -90 -4c7 17 17 50 18 72c25 -4 47 -4 89 -4l26 102c-31 0 -64 -1 -93 -4c10 24 15 49 16 72c16 -3 31 -4 94 -4c22 96 38 171 46 217c10 -2 28 -4 42 -4
c16 0 32 2 43 4c-23 -61 -53 -147 -71 -218c15 -1 35 -2 47 -2c13 0 41 1 56 2c22 96 38 172 46 218c10 -2 28 -4 42 -4c16 0 32 2 43 4c-23 -61 -52 -146 -71 -217c25 0 67 1 90 4zM347 380c-16 1 -39 2 -49 2s-38 -1 -55 -2l-27 -104c16 -1 39 -2 49 -2s38 1 55 2z" />
    <glyph glyph-name="dollar" unicode="$" horiz-adv-x="556" 
d="M496 16c-20 3 -41 6 -62 6c-48 0 -97 -11 -140 -33v-69h-28v57c-15 -8 -31 -17 -45 -27c-35 35 -74 62 -125 62c-18 0 -36 -3 -52 -11l-3 5c35 49 90 81 151 81c27 0 50 -6 74 -17v236c-63 15 -124 28 -188 35c17 23 18 46 18 74v98c0 26 1 50 -18 70c84 0 152 10 188 26
v66h28v-54c23 10 46 24 66 39c21 -32 49 -57 89 -57c11 0 21 2 31 6l2 -3c-26 -48 -80 -88 -136 -88c-18 0 -36 5 -52 14v-205c67 -14 135 -28 202 -42c-17 -25 -18 -48 -18 -77v-107c0 -33 0 -56 18 -85zM266 334v217c-7 6 -14 12 -20 20l-40 -8v-212c20 -5 40 -11 60 -17z
M360 46v237c-22 5 -44 11 -66 16v-244c10 -6 19 -13 28 -20c13 3 25 8 38 11z" />
    <glyph glyph-name="percent" unicode="%" horiz-adv-x="759" 
d="M726 322c-6 -19 -11 -25 -27 -37v-253c0 -16 2 -24 9 -39c-23 4 -45 8 -68 8c-43 0 -72 -17 -106 -41c-21 19 -37 32 -66 32c-11 0 -22 -4 -33 -7c9 21 15 26 32 40v262c0 13 -1 25 -6 38c22 -2 45 -5 67 -5c35 0 61 5 115 40c30 -34 42 -40 64 -40c6 0 13 1 19 2z
M717 661c-46 -26 -85 -65 -118 -106l-414 -516c-10 -12 -18 -25 -18 -33c0 -3 0 -6 3 -8l-113 -30c31 24 61 51 87 83l452 560c8 10 10 12 10 24zM322 632c-7 -22 -10 -27 -29 -41v-254c0 -17 4 -25 14 -39c-22 3 -44 6 -66 6c-48 0 -71 -10 -109 -39c-37 27 -50 37 -97 32
c10 16 18 25 32 37l-1 243c0 23 -1 31 -8 47c17 -2 33 -4 50 -4c47 0 91 20 130 44c15 -18 31 -36 56 -36c9 0 19 2 28 4zM625 25v257c-18 6 -23 9 -37 22l-45 -8l-1 -259c21 -6 31 -8 48 -21zM221 330v251c-14 7 -25 15 -37 25l-45 -12v-249c18 -6 33 -12 49 -22z" />
    <glyph glyph-name="ampersand" unicode="&#x26;" horiz-adv-x="722" 
d="M700 92c-25 -65 -69 -136 -147 -136c-66 0 -100 46 -133 97c-18 28 -34 57 -49 86c-61 -62 -122 -126 -182 -189c-49 62 -100 130 -161 181c81 69 154 147 230 221c-44 70 -87 125 -151 178c94 62 184 131 268 206c44 -62 94 -121 148 -175c-56 -50 -113 -101 -166 -154
c30 -47 61 -103 86 -153c49 50 98 99 144 151c11 -29 32 -58 66 -58c14 0 28 7 38 17l9 -3c-18 -62 -63 -108 -130 -108c-24 0 -48 6 -66 22l-46 -46c84 -154 124 -173 165 -173c29 0 50 16 64 40zM418 502c-40 44 -78 91 -114 138c-26 -20 -53 -41 -80 -60
c43 -47 83 -98 116 -152c25 25 52 49 78 74zM358 164c-26 55 -54 110 -85 163c-44 -45 -89 -90 -134 -134c42 -41 81 -84 119 -129c32 34 66 68 100 100z" />
    <glyph glyph-name="quoteright" unicode="&#x2019;" horiz-adv-x="278" 
d="M226 640c0 -71 -76 -113 -134 -135l-9 10c19 14 38 34 38 59c0 33 -34 59 -62 70c35 28 68 58 97 92c34 -23 70 -51 70 -96z" />
    <glyph glyph-name="parenleft" unicode="(" horiz-adv-x="278" 
d="M246 5l-41 -76c-2 44 -13 66 -51 115c-60 78 -123 202 -123 317c0 93 27 177 62 262c15 34 46 98 48 134l101 -89c-58 -81 -125 -210 -125 -311c0 -122 50 -259 129 -352z" />
    <glyph glyph-name="parenright" unicode=")" horiz-adv-x="278" 
d="M246 325c0 -93 -27 -177 -62 -262c-15 -34 -46 -98 -48 -134l-101 89c58 81 125 210 125 311c0 122 -50 259 -129 352l41 76c2 -44 13 -66 51 -115c60 -78 123 -202 123 -317z" />
    <glyph glyph-name="asterisk" unicode="*" 
d="M439 571c-7 1 -14 1 -21 1c-17 0 -85 -9 -85 -30c0 -12 20 -37 27 -46c14 -17 22 -23 42 -32c-41 -9 -71 -25 -85 -67c-8 17 -44 88 -66 88c-28 0 -51 -72 -56 -93c-19 37 -59 72 -97 71c17 10 29 21 42 35c20 22 29 35 29 43c0 20 -62 28 -77 28c-9 0 -19 -1 -28 -3
c22 22 38 51 38 83c0 10 -2 20 -5 30c21 -15 66 -43 93 -43c14 0 17 14 17 25c0 34 -2 57 -21 86c27 -11 37 -13 66 -13c28 0 37 2 62 16c-16 -27 -19 -48 -19 -79c0 -25 5 -32 17 -32c31 0 70 22 91 43c-2 -9 -5 -19 -5 -29c0 -34 16 -60 41 -82zM322 571
c0 39 -32 71 -71 71s-72 -30 -72 -70c0 -39 31 -72 71 -72c39 0 72 31 72 71z" />
    <glyph glyph-name="plus" unicode="+" horiz-adv-x="556" 
d="M541 278c-8 -24 -14 -51 -14 -76c0 -6 1 -10 3 -15c-7 2 -13 4 -20 4h-188v-163c0 -18 1 -29 10 -45c-2 0 -14 3 -15 3c-32 0 -51 -4 -80 -18c7 20 8 30 8 51v172h-182c-13 0 -25 -2 -37 -4c11 20 15 44 15 66c0 6 -3 12 -5 17c13 -2 26 -3 38 -3h171v174
c0 14 -3 22 -8 35c7 -1 15 -2 22 -2c23 0 50 9 69 22c-5 -18 -6 -37 -6 -55v-174h177c18 0 27 2 42 11z" />
    <glyph glyph-name="comma" unicode="," horiz-adv-x="278" 
d="M226 32c0 -71 -76 -113 -134 -135l-9 10c19 14 38 34 38 59c0 33 -34 59 -62 70c34 27 69 58 97 92c34 -23 70 -51 70 -96z" />
    <glyph glyph-name="hyphen" unicode="-" horiz-adv-x="278" 
d="M255 295c-15 -33 -28 -69 -35 -105c-36 4 -71 5 -107 5c-30 0 -61 -3 -90 -10c15 33 28 69 35 105c36 -4 71 -5 107 -5c30 0 61 3 90 10z" />
    <glyph glyph-name="period" unicode="." horiz-adv-x="278" 
d="M228 39c-32 -27 -62 -57 -89 -89c-27 32 -57 62 -89 89c32 27 62 57 89 89c27 -32 57 -62 89 -89z" />
    <glyph glyph-name="slash" unicode="/" horiz-adv-x="315" 
d="M317 694c-11 -19 -20 -41 -27 -62l-207 -634c-5 -14 -9 -30 -9 -45c-11 1 -22 3 -33 3c-14 0 -31 -2 -44 -6c11 19 20 41 27 62l207 634c5 14 9 30 9 45c11 -1 22 -3 33 -3c14 0 31 2 44 6z" />
    <glyph glyph-name="zero" unicode="0" horiz-adv-x="556" 
d="M528 599c-11 -27 -37 -55 -62 -69v-416c0 -63 7 -90 24 -108c-30 3 -60 6 -90 6c-76 0 -146 -16 -208 -62c-33 27 -77 55 -121 55c-14 0 -27 -4 -39 -11l-4 4c11 27 39 55 65 68v437c0 56 -8 73 -20 90c27 -4 55 -6 83 -6c82 0 162 24 228 73c23 -37 53 -65 99 -65
c14 0 27 3 40 9zM356 40v485c-30 4 -67 24 -87 48l-66 -12v-481c33 -3 81 -25 106 -46z" />
    <glyph glyph-name="one" unicode="1" horiz-adv-x="389" 
d="M359 68c-41 -39 -83 -77 -121 -118c-43 37 -80 55 -138 55c-25 0 -50 -6 -72 -18l-8 10c28 37 78 79 122 93v368c0 74 -8 109 -89 113v18c58 10 112 33 158 71c32 -24 41 -76 41 -152v-413c20 -5 48 -20 64 -32l26 22z" />
    <glyph glyph-name="two" unicode="2" horiz-adv-x="556" 
d="M507 63c-37 -34 -71 -73 -102 -113c-51 37 -102 56 -165 56c-65 0 -121 -17 -174 -56l-6 7c11 17 14 48 14 81v96c0 106 16 127 136 172c90 34 110 49 122 72c6 10 7 32 7 48v148l-16 4c-37 -38 -70 -62 -125 -62c-65 0 -110 43 -138 98l8 6c15 -10 32 -14 50 -14
c46 0 84 20 114 54c72 -53 151 -71 239 -73c-19 -24 -22 -52 -22 -90v-79c0 -34 3 -54 22 -75c-86 -8 -172 -37 -252 -68c-84 -32 -97 -57 -97 -146v-109c50 53 120 96 195 96c54 0 111 -24 152 -58l22 21z" />
    <glyph glyph-name="three" unicode="3" horiz-adv-x="536" 
d="M457 18c-20 4 -41 6 -61 6c-72 0 -137 -29 -192 -74c-30 29 -69 47 -111 47c-34 0 -56 -8 -83 -27l-8 4c44 65 110 118 192 118c49 0 85 -17 123 -46l12 2v224c-26 6 -94 25 -112 25c-15 0 -41 -18 -54 -26v82c14 -7 38 -18 54 -18c21 0 91 27 112 34v198l-22 4
c-31 -24 -67 -41 -107 -41c-65 0 -109 33 -145 84l9 5c11 -6 23 -9 36 -9c42 0 73 21 101 50c58 -43 107 -69 181 -69c25 0 50 4 75 9c-17 -26 -18 -59 -18 -89v-79c0 -29 2 -55 18 -75c-63 -4 -124 -18 -184 -39c60 -18 122 -20 184 -24c-17 -24 -18 -46 -18 -75v-112
c0 -45 4 -68 18 -89z" />
    <glyph glyph-name="four" unicode="4" horiz-adv-x="556" 
d="M519 125c-32 33 -44 35 -77 35h-11v-80c15 -4 31 -11 45 -19l23 23l18 -16c-37 -37 -71 -77 -104 -118c-41 34 -74 55 -129 55c-22 0 -44 -4 -63 -15l-7 7c25 36 65 69 107 83v80h-301c13 12 16 23 16 48v42c0 18 -3 39 -16 53c129 102 240 231 344 357
c42 -52 63 -71 90 -71c9 0 18 2 27 6l4 -5c-14 -22 -32 -38 -54 -51v-339h22c29 0 46 15 66 35v-110zM321 200v364c-59 -68 -119 -136 -185 -198v-166h185z" />
    <glyph glyph-name="five" unicode="5" horiz-adv-x="556" 
d="M499 378c-13 -23 -34 -45 -57 -58v-193c0 -68 9 -88 25 -106c-24 7 -49 12 -74 12c-72 0 -130 -34 -181 -83c-33 32 -71 60 -119 60c-21 0 -41 -11 -56 -25l-8 4c25 65 79 101 148 101c47 0 94 -17 133 -41l22 6v255c-25 8 -59 31 -76 50c-39 -18 -79 -34 -119 -48
c-8 -19 -20 -37 -34 -52l-32 60l43 16v309h381c-19 -29 -54 -85 -87 -99c-12 -5 -24 -6 -36 -6h-230v-194c71 25 141 56 206 94c30 -33 69 -65 116 -65c11 0 22 2 32 6z" />
    <glyph glyph-name="six" unicode="6" horiz-adv-x="556" 
d="M523 364c-12 -22 -30 -40 -52 -52v-200c0 -57 2 -78 18 -99c-19 4 -39 6 -58 6c-77 0 -150 -19 -212 -69c-35 32 -79 60 -128 60c-16 0 -31 -5 -45 -13l-8 7c13 26 36 50 61 64v435c0 49 -2 55 -26 79c90 9 207 33 286 78c22 -27 51 -58 88 -58c11 0 19 2 36 10l7 -5
c-26 -44 -69 -80 -123 -80c-50 0 -86 21 -119 57l-39 -10v-251c67 27 131 59 191 99c35 -40 58 -60 89 -60c11 0 21 2 31 6zM361 42v251c-22 9 -44 24 -60 41c-30 -15 -61 -29 -92 -41v-208c38 -9 82 -28 113 -52z" />
    <glyph glyph-name="seven" unicode="7" 
d="M517 651c-65 -100 -129 -207 -173 -321c-37 -96 -61 -197 -61 -301c0 -27 3 -53 8 -79c-31 21 -67 37 -105 37c-39 0 -68 -14 -98 -37c89 225 201 441 351 632c-69 -45 -145 -77 -228 -77c-47 0 -90 10 -126 36l-22 -22l-19 17c41 41 80 83 111 132
c56 -39 115 -68 185 -68c66 0 111 19 162 60z" />
    <glyph glyph-name="eight" unicode="8" horiz-adv-x="556" 
d="M516 598c-12 -20 -29 -37 -48 -50v-139c0 -28 1 -40 18 -64c-76 -2 -111 -9 -164 -27c53 -15 109 -19 164 -21c-17 -24 -18 -47 -18 -75v-116c0 -30 1 -63 18 -89c-24 5 -48 8 -73 8c-76 0 -146 -35 -209 -75c-28 31 -66 62 -110 62c-19 0 -37 -5 -53 -15l-5 5
c14 24 37 49 60 65v166c0 28 -1 40 -18 64c55 2 111 6 164 21c-56 21 -105 25 -164 27c17 24 18 36 18 64v103c0 26 -1 48 -18 67c105 3 214 24 304 81c29 -38 56 -64 96 -64c11 0 23 3 33 8zM358 361v171c-29 9 -58 27 -79 49c-24 -7 -48 -13 -73 -17v-203
c26 -8 51 -18 76 -28c25 10 50 20 76 28zM358 50v227c-26 7 -51 14 -76 23c-25 -9 -50 -16 -76 -23v-198c33 -5 74 -23 101 -43c17 6 34 11 51 14z" />
    <glyph glyph-name="nine" unicode="9" horiz-adv-x="556" 
d="M532 585c-16 -25 -37 -47 -64 -60v-439c0 -28 3 -57 18 -81c-23 5 -46 8 -69 8c-67 0 -126 -21 -178 -63c-37 25 -81 45 -127 45c-28 0 -55 -10 -77 -27l-6 3c28 71 97 119 174 119c49 0 92 -27 128 -57l27 7v227c-49 -26 -103 -58 -139 -93c-39 33 -88 60 -140 60
c-13 0 -26 -2 -38 -5l-5 8c17 18 38 38 60 49v212c0 36 -1 59 -23 86c103 2 231 17 318 76c22 -35 60 -77 105 -77c10 0 21 3 30 8zM358 302v218c-28 12 -59 35 -78 59c-24 -7 -49 -11 -74 -15v-260c29 -8 57 -23 82 -40c23 14 46 26 70 38z" />
    <glyph glyph-name="colon" unicode=":" horiz-adv-x="278" 
d="M228 296c-32 -27 -62 -57 -89 -89c-27 32 -57 62 -89 89c32 27 62 57 89 89c27 -32 57 -62 89 -89zM228 39c-32 -27 -62 -57 -89 -89c-27 32 -57 62 -89 89c32 27 62 57 89 89c27 -32 57 -62 89 -89z" />
    <glyph glyph-name="semicolon" unicode=";" horiz-adv-x="278" 
d="M228 296c-32 -27 -62 -57 -89 -89c-27 32 -57 62 -89 89c32 27 62 57 89 89c27 -32 57 -62 89 -89zM226 32c0 -71 -76 -113 -134 -135l-9 10c19 14 38 34 38 59c0 33 -34 59 -62 70c35 28 68 58 97 92c34 -23 70 -51 70 -96z" />
    <glyph glyph-name="less" unicode="&#x3c;" horiz-adv-x="555" 
d="M534 -29c-11 8 -22 16 -34 22l-420 192c-9 4 -21 6 -29 7c2 13 3 25 3 38c0 14 -1 27 -2 41c7 2 23 6 31 10l412 190c13 6 26 13 39 20c-3 -18 -4 -36 -4 -54c0 -12 1 -24 2 -36c-2 0 -5 1 -7 1c-6 0 -12 0 -18 -3l-356 -166l353 -163c9 -4 18 -6 28 -6
c-1 -12 -2 -25 -2 -37c0 -19 0 -38 4 -56z" />
    <glyph glyph-name="equal" unicode="=" horiz-adv-x="556" 
d="M542 354c-10 -21 -16 -45 -16 -68c0 -7 2 -13 5 -19c-9 3 -19 5 -29 5h-438c-18 0 -26 -2 -42 -11c9 20 17 50 17 72c0 7 -2 14 -4 21c13 -3 26 -6 39 -6h431c13 0 24 2 37 6zM542 190c-12 -19 -16 -46 -16 -68c0 -6 2 -12 5 -18c-10 4 -20 5 -31 5h-438
c-17 0 -25 -3 -40 -10c12 20 17 49 17 72c0 7 -2 14 -4 21c11 -4 23 -8 35 -8h439c12 0 22 2 33 6z" />
    <glyph glyph-name="greater" unicode="&#x3e;" horiz-adv-x="555" 
d="M534 192c-9 -1 -20 -3 -29 -7l-420 -192c-12 -6 -23 -14 -34 -22c4 18 4 37 4 56c0 12 -1 25 -2 37c10 0 19 2 28 6l353 163l-356 166c-3 2 -10 3 -17 3c-3 0 -6 -1 -8 -1c1 12 2 24 2 36c0 18 -1 36 -4 54c13 -7 26 -14 39 -20l412 -190c10 -5 21 -7 31 -10
c-1 -14 -2 -27 -2 -41c0 -13 1 -25 3 -38z" />
    <glyph glyph-name="question" unicode="?" horiz-adv-x="556" 
d="M509 499c0 -109 -115 -168 -208 -186c-12 -46 -22 -93 -33 -139h-22c-11 56 -35 126 -71 171c29 -4 59 -6 88 -6c104 0 136 76 136 168c0 41 -8 125 -64 125c-67 0 -98 -74 -111 -129c-36 20 -72 38 -110 53c21 76 79 124 159 124c97 0 236 -70 236 -181zM341 39
c-32 -27 -62 -57 -89 -89c-27 32 -57 62 -89 89c32 27 62 57 89 89c27 -32 57 -62 89 -89z" />
    <glyph glyph-name="at" unicode="@" horiz-adv-x="815" 
d="M770 395c0 -129 -82 -278 -226 -278c-45 0 -78 18 -89 64l-67 -62h-6c-61 0 -118 42 -118 106c0 56 42 97 87 124l-81 93c37 18 65 34 95 63c7 -24 26 -54 55 -54c28 0 58 36 73 57c8 -21 25 -41 49 -41c11 0 22 4 28 8l3 -2c-1 -21 -8 -45 -27 -57v-169
c0 -39 8 -70 54 -70c93 0 112 93 112 167c0 164 -122 281 -285 281c-73 0 -145 -18 -204 -73c-53 -49 -91 -135 -91 -245c0 -189 99 -340 302 -340c86 0 155 26 221 80l22 -34c-90 -60 -170 -84 -278 -84c-212 0 -355 122 -355 340c0 73 21 141 60 203
c61 97 147 146 248 192c37 17 78 29 119 29c175 0 299 -123 299 -298zM454 196v214c-12 5 -25 20 -31 32c-17 -17 -38 -32 -63 -32c-17 0 -33 9 -46 19l120 -134l-19 -14l-55 60c-12 -17 -14 -38 -14 -58c0 -42 34 -90 79 -90c10 0 19 1 29 3z" />
    <glyph glyph-name="A" unicode="A" horiz-adv-x="778" 
d="M782 90c-34 -43 -65 -91 -89 -140c-77 6 -102 67 -130 142l-50 134h-254l-48 -113c51 0 100 -9 146 -33l17 18l18 -15c-39 -42 -75 -87 -110 -133c-41 40 -94 58 -151 58c-45 0 -79 -12 -113 -40l-10 6c33 58 104 127 173 134l131 310c-11 26 -35 40 -63 40
c-32 0 -55 -13 -74 -38l-8 4c5 71 57 139 132 139c24 0 46 -9 65 -23l17 39c-16 40 -57 46 -95 46c-36 0 -65 -12 -91 -37l-8 4c34 79 95 138 185 138c61 0 87 -25 107 -80l173 -462c15 -41 32 -98 85 -98c13 0 25 3 37 8zM475 331l-79 217l-93 -217h172z" />
    <glyph glyph-name="B" unicode="B" horiz-adv-x="722" 
d="M427 712c-38 -57 -99 -102 -170 -102c-62 0 -128 30 -180 30c-27 0 -45 -15 -60 -36l-9 3c26 77 75 123 159 123c68 0 131 -30 199 -30c19 0 38 5 53 18zM686 38c-13 4 -26 6 -39 6c-85 0 -154 -37 -214 -94c-55 36 -111 56 -177 56c-62 0 -108 -14 -161 -46l-8 8
c60 80 161 148 266 148c32 0 67 -6 97 -16v327h28v-40c54 25 83 72 83 132c0 62 -23 106 -78 136c-68 -36 -73 -51 -73 -92v-251c0 -109 -34 -129 -131 -175l-10 7c18 15 23 45 23 109v222c0 66 13 100 120 166c0 0 112 67 155 95c60 -22 94 -72 94 -135
c0 -85 -60 -160 -129 -204c99 0 132 -6 132 -102v-159c0 -57 4 -74 22 -98zM262 568c-15 -17 -18 -43 -18 -77v-252c0 -55 -7 -81 -24 -105c-18 -25 -53 -47 -100 -72l-10 7c16 15 16 55 16 76v143c-25 1 -39 -10 -42 -35c-27 16 -42 44 -42 75c0 54 31 80 84 80v15
c0 85 56 125 128 153zM546 303v24c0 32 -8 42 -41 42h-27v-66c11 -3 23 -5 34 -5s23 2 34 5zM546 196v79c-11 -3 -23 -5 -34 -5s-23 2 -34 5v-79c11 3 23 5 34 5s23 -2 34 -5zM546 56v112c-11 3 -23 5 -34 5s-23 -2 -34 -5v-77c21 -10 40 -24 58 -39z" />
    <glyph glyph-name="C" unicode="C" horiz-adv-x="704" 
d="M714 166c-72 -123 -175 -210 -324 -210c-219 0 -348 148 -348 362c0 184 112 337 277 412l9 -14c-117 -84 -168 -194 -168 -337c0 -183 94 -323 289 -323c32 0 64 4 94 13v540c-31 6 -63 23 -86 44l-8 -3v-339c0 -111 -27 -148 -132 -184l-8 6c15 19 22 36 22 90v361
l-62 -31l-10 22c98 49 194 102 287 161c23 -30 62 -62 102 -62c13 0 26 4 38 9l5 -7c-30 -36 -73 -62 -120 -67v-529c51 19 96 57 133 96z" />
    <glyph glyph-name="D" unicode="D" horiz-adv-x="648" 
d="M626 59c-92 -6 -184 -39 -246 -109c-57 36 -108 50 -175 50c-53 0 -106 -9 -148 -44l-11 11c51 86 144 133 242 141v501c-22 -1 -45 -2 -67 -2c-66 0 -195 1 -195 94c0 9 1 17 3 26c32 -8 64 -10 97 -10c97 0 194 13 291 13c156 0 189 -45 189 -196v-373
c0 -62 7 -85 20 -102zM258 578c-13 -15 -18 -36 -18 -77v-242c0 -63 -5 -81 -21 -105c-22 -31 -52 -50 -103 -74l-10 7c11 11 16 37 16 76v132c-25 1 -39 -10 -42 -35c-28 15 -42 44 -42 75c0 54 31 80 84 80v18c0 85 56 125 128 153zM488 470v77c0 53 -24 68 -74 68
c-33 0 -65 -2 -98 -5v-140c28 -8 57 -12 86 -12s58 4 86 12zM488 282v160c-28 -8 -57 -12 -86 -12s-58 4 -86 12v-160c28 8 57 12 86 12s58 -4 86 -12zM488 62v192c-28 8 -57 12 -86 12s-58 -4 -86 -12v-144c54 -2 117 -23 163 -51z" />
    <glyph glyph-name="E" unicode="E" horiz-adv-x="648" 
d="M360 715c-28 -42 -73 -110 -129 -110c-50 0 -106 15 -150 15c-28 0 -40 -5 -59 -26l-9 4c27 67 75 132 154 132c50 0 108 -25 145 -25c14 0 29 7 40 16zM648 691c-31 -45 -57 -93 -85 -140l-20 12l13 21c-29 27 -71 46 -108 46c-78 0 -112 -45 -112 -120v-159
c30 45 76 90 134 90c38 0 75 -11 107 -30l14 20l20 -12c-35 -52 -69 -105 -100 -160l-20 12l15 26c-28 25 -64 44 -103 44c-25 0 -48 -10 -67 -26v-196c20 4 41 7 62 7c69 0 145 -18 208 -48l16 25l20 -12c-29 -46 -55 -93 -79 -141c-85 33 -182 56 -273 56
c-69 0 -128 -7 -187 -46l-11 11c53 65 134 119 216 140v403c0 81 38 160 112 197c22 12 47 19 72 19c45 0 89 -17 126 -41l10 14zM278 578c-15 -20 -18 -43 -18 -77v-262c0 -49 -4 -74 -18 -96c-25 -41 -72 -67 -113 -89l-9 9c17 14 22 40 22 80v145h-21
c-28 0 -49 -4 -56 -35c-28 15 -42 44 -42 75c0 53 47 80 95 80h24v25c0 74 70 121 128 153z" />
    <glyph glyph-name="F" unicode="F" horiz-adv-x="741" 
d="M473 724c-37 -60 -97 -108 -170 -108c-58 0 -128 24 -170 24c-27 0 -45 -15 -60 -36l-9 3c26 77 75 123 159 123c64 0 125 -24 189 -24c20 0 39 10 53 24zM754 702c-23 -41 -57 -79 -103 -96v-533h-28v251h-95v-179c0 -53 -38 -96 -102 -134c-58 -34 -133 -55 -173 -55
c-72 0 -148 50 -190 50c-27 0 -44 -13 -59 -35l-8 4c22 54 71 121 135 121c84 0 156 -80 230 -80c37 0 49 30 49 62v464c0 38 16 68 60 93c53 30 101 65 153 101c17 -21 43 -50 73 -50c19 0 37 11 50 24zM376 602c-16 -26 -14 -65 -14 -95v-214c0 -23 0 -47 -5 -70
c-14 -60 -75 -90 -127 -114l-8 4c13 15 22 40 22 89v122h-19c-30 0 -48 -4 -51 -38c-35 8 -45 38 -45 70c0 70 61 73 115 73v38c0 23 8 47 21 62c32 34 70 57 103 77zM623 429v172c-32 3 -64 18 -85 43l-10 -7v-208h95z" />
    <glyph glyph-name="G" unicode="G" horiz-adv-x="778" 
d="M747 211c0 -112 -97 -194 -195 -229c-49 -18 -100 -26 -152 -26c-199 0 -355 144 -355 346c0 186 128 325 286 405l12 -16c-126 -87 -163 -214 -163 -361c0 -156 49 -340 238 -340c18 0 36 2 53 6v394l-44 -59v-113c0 -82 -59 -125 -127 -155l-8 8c10 12 17 32 17 80v413
l-35 -19v32c92 46 183 99 265 159c24 -25 55 -47 91 -47c18 0 36 7 51 18l14 -13l-201 -273c127 -6 253 -66 253 -210zM628 649c-25 -24 -60 -45 -96 -45c-31 0 -59 19 -80 40l-25 -15v-254zM605 273c-12 54 -46 109 -106 115v-118c17 -5 35 -6 53 -6s37 2 53 9zM617 190
c0 18 -2 37 -6 55c-19 -7 -39 -9 -59 -9c-18 0 -36 1 -53 6v-110c15 5 33 6 49 6c19 0 43 -4 60 -12c7 20 9 43 9 64zM600 98c-15 8 -35 12 -52 12c-16 0 -33 -1 -49 -6v-101c45 13 83 53 101 95z" />
    <glyph glyph-name="H" unicode="H" horiz-adv-x="778" 
d="M342 693c-32 -35 -84 -74 -134 -74c-47 0 -90 21 -137 21c-23 0 -36 -6 -51 -24l-12 2c14 55 57 112 119 112c61 0 123 -39 170 -39c13 0 26 3 38 9zM771 58c-46 -34 -92 -69 -134 -108c-33 36 -69 69 -110 96c18 13 33 29 46 47v231h-158v-247l28 24l14 -18
c-48 -40 -89 -83 -130 -133c-46 35 -105 60 -164 60c-44 0 -84 -13 -119 -38l-10 8c55 81 154 130 251 130c35 0 71 -8 102 -23v602c-10 5 -16 16 -16 27c0 17 13 30 30 30s30 -13 30 -30c0 -11 -6 -22 -16 -27v-260h158v182c-15 9 -28 20 -39 34l-24 -13l-10 20
c43 25 85 53 125 84c33 -36 75 -65 104 -65c7 0 14 1 20 4l7 -11c-16 -19 -42 -40 -65 -48v-522c14 -11 25 -25 36 -39l30 21zM357 628c-13 -12 -18 -28 -18 -71v-269c0 -48 -9 -73 -26 -97c-22 -31 -62 -50 -109 -67l-7 8c19 10 24 30 24 59v133h-24c-35 0 -53 -7 -55 -46
c-30 11 -41 40 -41 70c0 76 59 81 120 81v53c0 92 45 122 129 154z" />
    <glyph glyph-name="I" unicode="I" horiz-adv-x="593" 
d="M445 718c-38 -57 -99 -102 -170 -102c-55 0 -115 24 -162 24c-27 0 -45 -15 -60 -36l-9 3c26 77 75 123 159 123c61 0 120 -24 181 -24c19 0 38 5 53 18zM554 716c-23 -18 -26 -35 -26 -93v-468c0 -119 -127 -199 -236 -199c-42 0 -82 12 -121 25c-30 10 -66 25 -98 25
c-27 0 -44 -13 -59 -35l-8 4c22 52 63 121 127 121c80 0 142 -100 216 -100c59 0 61 80 61 122v450c0 18 1 37 8 54c18 43 88 80 128 102zM376 612c-11 -17 -14 -44 -14 -95v-224c0 -23 0 -50 -5 -70c-16 -59 -75 -90 -127 -114l-8 4c20 25 22 58 22 89v122h-24
c-30 0 -48 -4 -51 -38c-35 8 -45 38 -45 70c0 72 65 73 120 73v37c0 18 3 39 8 51c16 41 80 77 116 99z" />
    <glyph glyph-name="J" unicode="J" horiz-adv-x="593" 
d="M405 718c-35 -55 -77 -102 -148 -102c-34 0 -67 7 -99 14c-21 4 -42 10 -63 10c-22 0 -39 -10 -52 -27l-12 6c34 55 84 111 154 111c55 0 107 -24 162 -24c18 0 36 5 49 18zM550 714c-21 -17 -24 -43 -24 -89v-449c0 -159 -138 -220 -277 -220c-97 0 -220 51 -220 164
c0 51 33 100 88 100c45 0 77 -28 77 -74c0 -39 -25 -69 -65 -69c-12 0 -24 3 -35 8c18 -74 84 -101 154 -101c99 0 160 77 160 172v397c0 23 1 43 5 58c16 52 85 89 130 113zM378 606c-13 -12 -18 -34 -18 -91v-324c0 -91 -48 -147 -137 -164l-9 10c21 9 28 31 28 64v227
h-24c-30 0 -48 -4 -51 -38c-35 8 -45 38 -45 70c0 72 65 73 120 73c0 27 -2 56 6 82c16 51 79 81 124 101z" />
    <glyph glyph-name="K" unicode="K" horiz-adv-x="741" 
d="M759 80c-37 -39 -69 -83 -95 -130c-19 0 -39 2 -58 9c-84 35 -108 297 -178 379v-33c0 -84 -61 -125 -131 -155l-8 8c14 18 21 31 21 80v239c0 133 29 165 139 239l9 -9c-28 -29 -30 -65 -30 -103v-206l183 338c20 -18 44 -35 72 -35c23 0 41 11 55 29l10 -8
c-17 -61 -52 -135 -125 -135c-18 0 -36 6 -52 14l-88 -161c67 -45 118 -200 149 -275c31 -76 52 -90 77 -90c15 0 29 8 39 18zM356 715c-28 -42 -66 -100 -123 -100c-45 0 -87 15 -132 15c-31 0 -46 -3 -67 -28l-9 4c24 67 59 124 138 124c59 0 105 -25 145 -25
c14 0 29 7 40 16zM280 584c-14 -19 -18 -37 -18 -77v-234c0 -68 -8 -98 -32 -125c-20 -22 -49 -41 -92 -62l-10 7c10 10 16 35 16 76v123c-24 0 -47 -8 -50 -35c-27 16 -42 44 -42 75c0 56 40 80 92 80v27c0 85 56 125 128 153zM512 70c-39 -37 -74 -77 -105 -120
c-56 34 -108 56 -175 56c-58 0 -110 -17 -154 -56l-13 8c63 99 161 153 278 153c49 0 98 -14 138 -41l17 15z" />
    <glyph glyph-name="L" unicode="L" horiz-adv-x="722" 
d="M694 683c-37 -37 -72 -75 -104 -116l-16 11l24 31c-28 28 -70 61 -111 61c-49 0 -59 -34 -59 -96v-262c0 -65 -9 -91 -34 -118c-27 -29 -65 -49 -97 -67l-9 9c25 19 22 68 22 97v250c0 55 2 98 44 138c52 50 142 109 216 109c45 0 89 -19 124 -47zM376 701
c-32 -46 -75 -96 -137 -96c-45 0 -87 15 -132 15c-29 0 -43 -6 -59 -30l-9 4c13 71 50 136 131 136c35 0 83 -15 118 -25c15 -4 31 -10 47 -10c12 0 24 5 33 12zM708 91c-38 -43 -74 -89 -105 -137c-83 36 -165 61 -256 61c-89 0 -167 -15 -244 -61l-10 11
c92 99 225 160 360 160c50 0 99 -8 147 -21v245c-10 5 -16 16 -16 27c0 17 13 30 30 30s30 -13 30 -30c0 -11 -6 -22 -16 -27v-252c14 -4 28 -10 42 -16l21 23zM280 578c-14 -18 -18 -40 -18 -77v-244c0 -44 -3 -84 -30 -114c-28 -30 -66 -53 -101 -71l-9 9
c16 10 22 37 22 80v131h-21c-28 0 -49 -4 -56 -35c-28 15 -42 44 -42 75c0 53 52 80 99 80h20v41c0 53 44 94 128 133z" />
    <glyph glyph-name="M" unicode="M" horiz-adv-x="926" 
d="M915 73c-33 -39 -65 -79 -91 -123c-101 19 -112 96 -112 184v165h-82v-236l27 15l12 -20c-47 -30 -90 -67 -127 -108c-29 31 -67 65 -112 65c-17 0 -35 -4 -49 -15l-13 6c15 33 39 58 68 76v217h-82v-165c0 -75 -37 -178 -127 -178c-52 0 -113 31 -150 31
c-23 0 -39 -11 -49 -31l-13 3c12 68 43 128 121 128c47 0 91 -21 138 -21c49 0 52 44 52 82v472c-44 -25 -48 -39 -48 -88v-255c0 -53 -11 -80 -31 -105c-25 -29 -63 -47 -113 -61l-8 10c30 17 34 39 34 71v107h-14c-30 0 -41 -9 -42 -40c-37 8 -54 35 -54 71
c0 61 43 73 91 74h19v98c0 14 0 28 5 41c11 31 56 53 84 67l246 126c24 -44 53 -87 107 -92v86h28v-85c49 13 101 51 135 91c19 -25 53 -63 87 -63c10 0 19 3 28 7l7 -9c-14 -22 -35 -43 -57 -56v-464c0 -37 7 -75 45 -75c10 0 20 2 30 6zM712 404v193c-19 5 -42 18 -57 32
l-25 -9v-216h82zM602 72v538l-48 -16v-499c17 -5 32 -15 48 -23zM436 404v202c-21 7 -45 22 -61 37l-21 -10v-229h82z" />
    <glyph glyph-name="N" unicode="N" horiz-adv-x="722" 
d="M734 705c-25 -43 -70 -92 -120 -103v-652c-19 7 -36 18 -51 32c-56 53 -117 188 -150 261c-37 16 -76 25 -117 25c-34 0 -70 -6 -102 -20v-127c56 0 116 -17 161 -50l19 19l17 -12l-95 -128c-52 40 -82 56 -149 56c-52 0 -88 -10 -131 -39h-9c29 69 87 127 159 149v180
h-15c-29 0 -33 -21 -34 -45c-38 13 -56 46 -56 85c0 53 42 80 91 80h14v204c-59 -3 -100 -25 -116 -85h-10c-4 14 -6 28 -6 42c0 82 69 153 151 153c97 0 142 -62 186 -138c24 -42 46 -85 67 -128c22 -10 52 -15 76 -15s48 3 72 8v140c-36 1 -76 6 -108 23l-26 -18l-13 15
c46 36 89 75 128 119c27 -21 66 -39 101 -39c20 0 39 7 56 16zM586 165v264c-21 -6 -44 -8 -66 -8s-44 2 -65 8c37 -85 80 -189 131 -264zM394 279l-64 138c-28 60 -74 165 -136 193v-334c31 12 70 20 104 20c33 0 65 -6 96 -17z" />
    <glyph glyph-name="O" unicode="O" horiz-adv-x="833" 
d="M790 401c0 -213 -158 -445 -387 -445c-205 0 -362 171 -362 373c0 178 109 345 281 401l8 -15c-135 -68 -159 -215 -159 -352c0 -163 38 -373 243 -373c24 0 48 3 71 9v645l-48 -24v-402c0 -83 -52 -120 -124 -145l-10 8c13 11 16 31 16 52v442l-49 -15v28
c74 22 146 51 215 84v58h28v-45c30 15 60 32 88 51c121 -71 189 -195 189 -335zM649 480c-20 65 -66 143 -122 183l-14 -6v-183c22 -5 45 -7 68 -7c22 0 47 4 68 13zM672 332c0 40 -7 81 -16 120c-21 -8 -50 -13 -72 -13c-24 0 -48 2 -71 7v-225c23 6 47 10 71 10
c26 0 53 -4 78 -13c10 37 10 76 10 114zM655 190c-23 9 -47 13 -71 13s-48 -4 -71 -10v-183c74 32 120 105 142 180z" />
    <glyph glyph-name="P" unicode="P" horiz-adv-x="667" 
d="M640 673c-11 -18 -26 -35 -43 -47v-508c0 -38 4 -65 16 -86c-18 4 -37 6 -56 6c-65 0 -125 -43 -168 -88c-15 15 -31 30 -48 42v-202c-47 3 -76 19 -96 62c-26 -22 -54 -42 -82 -62h-28c11 46 12 94 12 142v104c-42 -12 -65 -47 -79 -86h-14c2 78 19 141 93 179v170h-11
c-35 0 -50 -9 -52 -46c-30 11 -41 40 -41 70c0 66 47 81 104 81v165c0 35 -3 71 -48 71c-38 0 -49 -33 -53 -65h-20c1 86 25 155 124 155c108 0 115 -70 115 -159c17 8 32 18 48 28v131h28v-116c61 35 119 75 172 122c22 -25 59 -62 94 -62c9 0 17 2 25 6zM479 479v122
c-19 6 -44 19 -59 32c-26 -17 -52 -32 -79 -47v-107c22 -6 46 -10 69 -10s47 4 69 10zM479 241v210c-22 -6 -46 -10 -69 -10s-47 4 -69 10v-210c22 6 46 10 69 10s47 -4 69 -10zM479 55v158c-22 6 -46 10 -69 10s-47 -4 -69 -10v-76c47 -21 91 -50 128 -85zM313 -175v746
c-16 -10 -32 -19 -48 -28v-612c0 -57 10 -91 48 -106z" />
    <glyph glyph-name="Q" unicode="Q" horiz-adv-x="833" 
d="M790 401c0 -157 -85 -319 -209 -413c-8 1 -17 2 -25 2c-22 0 -44 -9 -62 -22c29 -26 104 -91 143 -91c10 0 24 7 33 13l10 -15c-30 -24 -77 -53 -117 -53c-46 0 -90 42 -122 71c-25 22 -49 44 -73 66c-190 18 -327 182 -327 370c0 178 109 345 281 401l8 -15
c-135 -68 -159 -215 -159 -352s26 -334 187 -369c17 10 36 15 55 15c23 0 42 -6 60 -21l12 5v651l-48 -24v-402c0 -84 -52 -119 -124 -145l-10 8c10 9 16 26 16 52v442l-49 -15v28c74 22 146 51 215 84v58h28v-45c30 15 60 32 88 51c121 -71 189 -195 189 -335zM649 480
c-20 65 -66 143 -122 183l-14 -6v-183c22 -5 45 -7 68 -7c22 0 47 4 68 13zM672 332c0 40 -7 81 -16 120c-21 -8 -50 -13 -72 -13c-24 0 -48 2 -71 7v-225c23 6 47 10 71 10c26 0 53 -4 78 -13c10 37 10 76 10 114zM655 190c-23 9 -47 13 -71 13s-48 -4 -71 -10v-183
c74 32 120 105 142 180z" />
    <glyph glyph-name="R" unicode="R" horiz-adv-x="704" 
d="M366 715c-28 -42 -66 -100 -123 -100c-45 0 -87 15 -132 15c-31 0 -46 -3 -67 -28l-9 4c24 67 59 124 138 124c50 0 96 -25 145 -25c14 0 29 7 40 16zM717 71l-75 -121c-73 10 -97 52 -121 116c-38 -35 -73 -74 -104 -116c-56 34 -108 56 -175 56
c-58 0 -110 -17 -154 -56l-13 8c53 89 151 153 256 153c61 0 107 -15 162 -39l20 16c-19 66 -21 135 -46 199c-9 23 -16 42 -45 41v-35c0 -85 -64 -126 -135 -155l-8 8c17 15 25 36 25 94v293c0 54 16 76 60 104c21 13 43 24 64 36c38 20 75 41 112 63
c61 -27 89 -83 89 -148c0 -90 -51 -170 -130 -215c89 -38 100 -103 117 -188c8 -38 22 -110 72 -110c7 0 14 2 21 4zM274 574c-18 -24 -18 -48 -18 -77v-230c0 -110 -28 -139 -124 -187l-10 7c16 15 16 55 16 76v127c-25 1 -41 -9 -44 -35c-27 16 -42 44 -42 75
c0 55 34 80 86 80v19c0 85 56 125 128 153zM539 518c0 56 -27 113 -75 144c-33 -16 -42 -37 -42 -72v-234c68 22 117 91 117 162z" />
    <glyph glyph-name="S" unicode="S" horiz-adv-x="722" 
d="M713 370c0 -104 -110 -210 -174 -292c-33 -41 -65 -83 -93 -128c-74 39 -147 70 -232 70c-75 0 -143 -22 -201 -70l-13 12c83 103 202 153 333 153c59 0 120 -13 176 -32c42 58 114 140 114 214c0 30 -13 53 -34 67c-44 31 -122 34 -215 35l-20 -37c34 0 68 0 101 -3
c47 -3 123 -11 123 -73c0 -40 -27 -87 -54 -115l-10 4c4 9 6 18 6 28c0 39 -43 53 -130 53c-31 0 -62 1 -94 1c-17 -28 -47 -79 -81 -107c-22 -17 -49 -29 -81 -29c-34 0 -63 21 -63 57c0 34 24 58 58 58c30 0 52 -18 52 -49c0 -5 -1 -11 -2 -16c34 2 67 60 83 86
c-33 1 -66 3 -99 8c-68 11 -128 32 -128 112c0 28 10 58 24 82l10 -3c0 -48 48 -69 103 -81c54 -11 116 -12 148 -13l20 37c-78 2 -139 8 -183 26c-41 17 -65 46 -65 97c0 131 140 208 257 208c63 0 140 -23 189 -63l31 27l18 -18c-57 -46 -107 -102 -149 -162
c93 -6 275 -14 275 -144zM446 575c-32 60 -96 105 -165 105c-51 0 -124 -29 -124 -89c0 -68 88 -72 137 -75c37 -2 73 -2 110 -2c13 21 27 42 42 61z" />
    <glyph glyph-name="T" unicode="T" horiz-adv-x="667" 
d="M441 307c0 -110 -28 -139 -124 -187l-10 7c11 12 16 41 16 75v275l-39 -20v28l157 89v-267zM665 709c-21 -34 -59 -71 -96 -86v-487c27 25 50 54 70 85l13 -10c-54 -149 -156 -255 -323 -255c-166 0 -290 124 -290 290c0 124 83 252 177 328l17 -10
c-55 -65 -89 -141 -89 -227c0 -139 90 -266 238 -266c56 0 113 19 159 50v492c-26 -7 -52 -10 -79 -10c-75 0 -150 10 -225 19c-32 3 -64 8 -96 8c-37 0 -63 -8 -88 -37l-13 5c40 81 97 132 191 132c122 0 240 -32 362 -32c23 0 46 4 64 19z" />
    <glyph glyph-name="U" unicode="U" horiz-adv-x="722" 
d="M724 69l-90 -119c-74 19 -103 66 -111 139c-67 -40 -125 -89 -178 -139c-54 36 -112 66 -178 66c-39 0 -69 -10 -101 -32l-9 8c29 52 72 91 124 109v216h-14c-35 0 -54 -7 -55 -46c-30 11 -41 40 -41 70c0 70 52 81 110 81v105c0 56 -12 103 -78 103
c-40 0 -64 -17 -82 -52h-16c9 82 57 152 146 152c116 0 148 -86 148 -187v-432c20 -6 39 -13 58 -21v640h28v-116c67 33 127 77 186 122c28 -30 63 -65 107 -65c9 0 18 3 25 8l8 -7c-17 -26 -41 -48 -70 -61v-481c0 -37 17 -55 54 -55c7 0 14 1 20 3zM523 463v143
c-17 7 -38 17 -51 29c-28 -19 -57 -36 -87 -51v-121c22 -6 46 -10 69 -10s47 4 69 10zM523 290v145c-22 -6 -46 -10 -69 -10s-47 4 -69 10v-145c22 6 46 10 69 10s47 -4 69 -10zM523 123v139c-22 6 -46 10 -69 10s-47 -4 -69 -10v-182c15 -7 30 -13 43 -22
c30 24 63 44 95 65z" />
    <glyph glyph-name="V" unicode="V" horiz-adv-x="722" 
d="M705 651c-18 -25 -40 -45 -69 -56v-457c0 -29 1 -60 16 -86c-20 4 -41 6 -62 6c-94 0 -180 -47 -249 -108c-48 45 -110 81 -178 81c-33 0 -67 -9 -95 -27l-12 11c28 37 76 79 120 95v439c0 55 -19 91 -79 91c-44 0 -71 -22 -79 -65h-16c2 82 63 155 148 155
c92 0 144 -57 144 -150v-455c20 -4 39 -11 58 -20v625h28v-116c63 33 118 77 172 122c29 -31 80 -85 125 -85c8 0 16 2 23 6zM518 471v116c-21 10 -44 29 -59 46c-25 -19 -51 -35 -79 -49v-113c22 -6 46 -10 69 -10s47 4 69 10zM518 268v175c-22 -6 -46 -10 -69 -10
s-47 4 -69 10v-175c22 6 46 10 69 10s47 -4 69 -10zM518 76v164c-22 6 -46 10 -69 10s-47 -4 -69 -10v-147c20 -11 42 -30 57 -47c26 13 53 23 81 30z" />
    <glyph glyph-name="W" unicode="W" horiz-adv-x="889" 
d="M874 680c-14 -19 -33 -35 -54 -47v-503c0 -30 0 -59 20 -83c-24 4 -48 6 -72 6c-92 0 -172 -34 -233 -103c-39 47 -85 91 -151 91c-59 0 -104 -43 -133 -91c-33 34 -77 64 -126 64c-32 0 -57 -11 -81 -32l-11 10c27 42 69 81 117 97v211h-21c-31 0 -50 -8 -54 -41
c-28 15 -36 52 -36 81c0 53 42 80 91 80h20v156c0 36 -16 64 -55 64s-60 -29 -64 -65h-20c4 88 44 155 140 155c65 0 113 -41 117 -107c16 7 32 14 48 22v85h28v-73c49 20 95 48 137 79c28 -38 60 -79 111 -81v75h28v-70c45 17 86 45 123 76c23 -25 56 -58 92 -58
c12 0 23 3 34 7zM702 470v143c-19 4 -46 15 -62 27l-20 -8v-162c13 -5 27 -8 41 -8s28 3 41 8zM702 272v170c-13 -5 -27 -8 -41 -8s-28 3 -41 8v-170c13 5 27 8 41 8s28 -3 41 -8zM426 470v128c-19 10 -39 28 -52 45c-10 -5 -20 -9 -30 -14v-159c13 -5 27 -8 41 -8
s28 3 41 8zM592 67v553c-16 -7 -31 -15 -48 -19v-505c16 -5 35 -19 48 -29zM702 74v170c-13 5 -27 8 -41 8s-28 -3 -41 -8v-193c26 10 54 19 82 23zM426 272v170c-13 -5 -27 -8 -41 -8s-28 3 -41 8v-170c13 5 27 8 41 8s28 -3 41 -8zM316 68v549c-16 -8 -32 -15 -48 -22
v-501c17 -6 32 -17 48 -26zM426 95v149c-13 5 -27 8 -41 8s-28 -3 -41 -8v-181c25 14 54 27 82 32z" />
    <glyph glyph-name="X" unicode="X" horiz-adv-x="704" 
d="M700 86c-31 -44 -61 -89 -86 -136c-112 5 -160 115 -198 203c-23 52 -43 104 -63 157c-53 -119 -104 -238 -149 -360c-31 23 -70 40 -109 40c-27 0 -50 -14 -66 -34l-13 4c20 75 70 145 155 145c17 0 35 -2 52 -5c36 79 73 157 107 237c-64 0 -128 -6 -191 -19
c18 34 34 69 47 105c39 -6 79 -9 118 -10c-68 160 -109 202 -169 202c-41 0 -66 -21 -78 -59h-16c2 89 41 174 142 174c80 0 126 -71 163 -136c19 -34 36 -69 53 -105c37 81 73 162 101 247c29 -28 59 -47 101 -47c29 0 58 9 76 34l10 -7c-18 -69 -71 -132 -147 -132
c-20 0 -40 3 -59 9c-23 -45 -44 -91 -64 -137l17 -43c61 0 123 6 183 16c-21 -34 -39 -69 -56 -105c-32 6 -65 10 -98 13c15 -39 31 -78 50 -117c23 -49 68 -145 132 -145c16 0 33 9 46 18z" />
    <glyph glyph-name="Y" unicode="Y" horiz-adv-x="648" 
d="M621 661c-11 -18 -24 -35 -41 -47v-443c0 -153 -49 -190 -195 -207c-42 -5 -156 -16 -156 -75c0 -15 15 -26 29 -26c59 0 119 73 198 73c50 0 104 -32 104 -87c0 -49 -43 -81 -89 -81c-14 0 -28 2 -42 5v23c14 -3 28 -5 42 -5c23 0 46 11 46 37c0 18 -14 28 -31 28
c-66 0 -120 -88 -210 -88c-54 0 -107 36 -107 94c0 59 64 96 108 109c-117 15 -145 73 -145 184v163h-7c-30 0 -50 -8 -54 -41c-28 15 -36 52 -36 81c0 57 46 80 97 80v131c0 32 -4 71 -45 71c-36 0 -47 -35 -50 -65h-20c2 84 27 155 124 155c102 0 109 -80 109 -161
c18 11 35 23 52 36v125h28v-106c51 33 99 71 144 112c23 -29 66 -74 106 -74c11 0 22 2 33 6zM462 451v138c-25 8 -57 26 -77 43c-17 -14 -36 -26 -55 -38v-143c21 -6 44 -10 66 -10s45 4 66 10zM462 247v176c-21 -6 -44 -10 -66 -10s-45 4 -66 10v-176c21 6 44 10 66 10
s45 -4 66 -10zM302 0v575c-16 -14 -35 -23 -52 -36v-452c0 -43 8 -72 52 -87zM462 104v115c-21 6 -44 10 -66 10s-45 -4 -66 -10v-224c12 -2 24 -3 36 -3c75 0 96 44 96 112z" />
    <glyph glyph-name="Z" unicode="Z" horiz-adv-x="611" 
d="M602 91c-38 -44 -73 -91 -103 -141c-70 37 -149 58 -229 58c-81 0 -171 -23 -246 -53l-10 16c107 100 156 236 219 368c-50 -4 -101 -11 -150 -24c21 34 38 71 49 110c45 -10 91 -9 137 -10c50 106 106 185 199 257c-91 -52 -161 -74 -267 -74c-43 0 -88 6 -127 23
l-21 -23l-20 16c40 40 77 83 109 130c67 -35 136 -48 211 -48c73 0 142 18 208 48l11 -18c-82 -63 -140 -215 -178 -311c56 2 112 10 167 24c-20 -36 -39 -72 -54 -110c-46 8 -93 10 -139 10c-65 -133 -124 -211 -240 -304c85 40 188 71 282 71c53 0 105 -8 156 -22l18 21z
" />
    <glyph glyph-name="bracketleft" unicode="[" horiz-adv-x="407" 
d="M398 699c-31 -50 -80 -75 -139 -75c-23 0 -46 6 -66 18v-598c19 12 42 18 65 18c59 0 108 -25 139 -75c-11 3 -23 4 -34 4c-42 0 -83 -25 -112 -53c-45 36 -112 63 -170 63c-8 0 -17 -1 -25 -3c23 35 26 69 26 109v472c0 40 -3 74 -26 109c8 -2 17 -3 25 -3
c58 0 125 27 170 63c25 -23 74 -54 108 -54c13 0 26 2 39 5z" />
    <glyph glyph-name="backslash" unicode="\" horiz-adv-x="315" 
d="M235 -46c-7 0 -22 -1 -22 -1c-20 0 -40 -4 -59 -8c4 21 8 42 8 63c0 12 -1 25 -3 37l-75 541c-5 33 -11 68 -24 97h27c15 0 30 2 45 6c29 -221 58 -442 88 -663c3 -24 9 -48 15 -72z" />
    <glyph glyph-name="bracketright" unicode="]" horiz-adv-x="407" 
d="M351 -2c-8 2 -17 3 -25 3c-58 0 -125 -27 -170 -63c-25 23 -74 54 -108 54c-13 0 -26 -2 -39 -5c31 50 80 75 139 75c23 0 46 -6 66 -18v598c-19 -12 -42 -18 -65 -18c-59 0 -108 25 -139 75c11 -3 23 -4 34 -4c42 0 83 25 112 53c45 -36 112 -63 170 -63c8 0 17 1 25 3
c-23 -35 -26 -69 -26 -109v-472c0 -40 3 -74 26 -109z" />
    <glyph glyph-name="asciicircum" unicode="^" horiz-adv-x="556" 
d="M504 330c-17 3 -34 4 -51 4c-13 0 -25 -1 -38 -2c0 10 -2 19 -6 28l-135 293l-132 -296c-3 -8 -3 -17 -3 -25c-12 1 -23 2 -35 2c-16 0 -32 -1 -48 -4c6 13 13 26 19 39l150 334c4 10 7 21 10 31c14 -1 27 -3 41 -3c13 0 26 2 39 3c1 -9 4 -20 8 -29l158 -341
c6 -12 15 -23 23 -34z" />
    <glyph glyph-name="underscore" unicode="_" 
d="M500 -125h-500v50h500v-50z" />
    <glyph glyph-name="quoteleft" unicode="&#x2018;" horiz-adv-x="278" 
d="M225 597c-35 -28 -68 -58 -97 -92c-34 23 -70 51 -70 96c0 71 76 113 134 135l9 -10c-19 -14 -38 -34 -38 -59c0 -33 34 -59 62 -70z" />
    <glyph glyph-name="a" unicode="a" horiz-adv-x="463" 
d="M451 49c-25 -32 -49 -64 -70 -99c-58 2 -89 31 -101 87l-95 -87c-92 3 -159 56 -159 152c0 75 51 130 110 169l-114 128c46 20 96 55 131 91c12 -34 33 -78 75 -78c43 0 80 46 102 78c13 -28 35 -56 69 -56c14 0 27 4 39 10c-3 -30 -25 -54 -52 -66v-247
c0 -64 14 -81 46 -81c6 0 11 2 16 4zM276 53v303c-15 5 -29 14 -40 26c-24 -18 -53 -30 -83 -30c-23 0 -43 7 -63 17l160 -180l-24 -19l-74 82c-17 -23 -26 -50 -26 -78c0 -66 44 -124 113 -124c12 0 25 2 37 3z" />
    <glyph glyph-name="b" unicode="b" 
d="M477 435c-11 -18 -25 -38 -41 -52v-303c0 -26 2 -49 18 -70c-23 4 -47 5 -70 5c-72 0 -138 -19 -194 -65c-38 37 -73 65 -128 65c-11 0 -22 -1 -32 -5l-8 3c13 19 37 40 58 50v475c0 32 -2 75 -25 99c66 2 107 34 157 73c-16 -55 -22 -113 -22 -170v-151l158 101
c22 -30 52 -56 92 -56c11 0 23 1 34 5zM326 44v316c-22 7 -47 23 -62 41l-74 -47v-270c32 -5 75 -25 98 -48z" />
    <glyph glyph-name="c" unicode="c" horiz-adv-x="370" 
d="M372 438c-16 -43 -52 -77 -100 -77c-40 0 -64 21 -89 49v-322c36 -4 81 -19 112 -38l35 38l19 -17c-35 -39 -68 -80 -101 -121c-47 31 -124 67 -181 67c-13 0 -26 -3 -37 -10l-3 5c10 20 27 39 46 52v274c0 35 -2 53 -21 83c12 -1 24 -3 36 -3c57 0 121 26 156 72
c23 -28 52 -59 91 -59c13 0 25 5 35 12z" />
    <glyph glyph-name="d" unicode="d" 
d="M458 423c-21 -24 -23 -35 -23 -66v-251c0 -34 2 -67 20 -92c-23 7 -47 12 -71 12c-76 0 -120 -22 -173 -76c-33 38 -76 74 -130 74c-21 0 -40 -5 -59 -15l-5 5c14 29 33 50 60 67v260c0 30 -3 58 -24 81c11 -2 23 -3 34 -3c62 0 105 17 159 46c-73 73 -144 147 -224 211
c48 3 101 13 144 34c12 -41 99 -122 132 -155c36 -37 112 -120 160 -132zM325 54v335c-20 17 -40 34 -58 54c-26 -14 -52 -27 -80 -37v-310c40 -3 81 -22 108 -51z" />
    <glyph glyph-name="e" unicode="e" horiz-adv-x="389" 
d="M379 312c-69 -38 -136 -79 -201 -123v-96c45 -3 96 -18 137 -38l30 31l18 -16c-35 -38 -68 -78 -99 -120c-53 33 -136 63 -199 63c-17 0 -34 -2 -50 -6l-3 5c15 20 34 39 56 52v265c0 34 -1 65 -25 92c14 -2 28 -3 42 -3c57 0 147 43 197 72c25 -63 59 -122 97 -178z
M269 285c-25 41 -49 84 -71 127l-20 -9v-176c29 21 60 40 91 58z" />
    <glyph glyph-name="f" unicode="f" horiz-adv-x="315" 
d="M395 649c-25 -34 -65 -60 -109 -60c-29 0 -50 9 -72 28l-21 -10v-147c37 0 75 2 111 10c-2 -15 -3 -30 -3 -45s1 -30 3 -45c-36 8 -74 10 -111 10v-309c23 -7 46 -18 67 -31l33 27l16 -18c-41 -34 -81 -70 -117 -109c-37 28 -103 67 -150 67c-7 0 -14 -1 -21 -3l-4 5
c18 21 42 42 66 56v315c-20 0 -40 -2 -59 -6c2 14 3 27 3 41s-1 27 -3 41c19 -4 39 -6 59 -6v56c0 36 -2 64 -18 83c83 12 163 43 216 111c22 -25 57 -56 92 -56c5 0 11 1 16 3z" />
    <glyph glyph-name="g" unicode="g" 
d="M474 437c-9 -25 -32 -54 -54 -70v-229c0 -63 53 -103 53 -148c0 -35 -21 -55 -77 -97c-51 -39 -100 -80 -146 -125c-37 33 -75 52 -125 52c-32 0 -57 -6 -83 -26l-10 4c46 62 108 97 186 97c36 0 73 -8 106 -23c20 16 44 40 44 67c0 15 -5 28 -36 74
c-10 14 -16 29 -22 45c-48 -32 -94 -68 -135 -108c-27 39 -62 68 -112 68c-16 0 -33 -3 -47 -11l-4 4c13 22 32 43 53 58v267c0 33 -1 58 -18 88c20 -3 39 -4 59 -4c75 0 164 33 229 70c23 -30 54 -59 94 -59c14 0 29 2 42 9zM310 92v263c-32 9 -62 28 -80 57
c-18 -7 -36 -11 -55 -15v-308c27 -4 54 -21 77 -36c19 14 38 28 58 39z" />
    <glyph glyph-name="h" unicode="h" 
d="M468 447c-3 -29 -16 -65 -41 -82v-272c0 -41 4 -74 33 -93c-19 6 -39 10 -59 10c-21 0 -76 -7 -76 -36c0 -36 79 -55 79 -126c0 -40 -32 -74 -72 -74c-17 0 -31 6 -41 20c21 7 37 21 37 44c0 41 -33 69 -33 116c0 22 7 44 22 60v325c-26 6 -53 21 -70 42
c-20 -15 -42 -29 -63 -42v-250c29 -12 58 -28 81 -49c-38 -26 -74 -56 -104 -90c-27 29 -68 60 -110 60c-15 0 -30 -4 -43 -10l-9 7c18 29 44 57 75 72v459c0 31 -2 75 -25 99c65 2 108 34 157 73c-16 -55 -22 -113 -22 -170v-168c56 34 109 73 157 118
c16 -30 40 -61 77 -61c18 0 33 8 47 19z" />
    <glyph glyph-name="i" unicode="i" horiz-adv-x="278" 
d="M246 608c-22 -39 -54 -78 -103 -78c-27 0 -52 15 -71 34l-18 -10l-11 17c35 22 69 44 102 69c12 -20 36 -40 60 -40c13 0 25 5 35 12zM270 45c-33 -30 -65 -60 -93 -95c-84 20 -96 56 -96 137v274c-11 7 -22 16 -31 25l-21 -13l-12 19c45 27 84 61 121 98
c17 -26 45 -56 79 -56c12 0 23 5 33 11l7 -5c-14 -27 -37 -60 -66 -73v-238c0 -60 14 -79 47 -79c9 0 18 1 27 3z" />
    <glyph glyph-name="j" unicode="j" horiz-adv-x="278" 
d="M242 608c-22 -39 -54 -78 -103 -78c-27 0 -52 15 -71 34l-18 -10l-11 17c35 22 69 44 102 69c12 -20 36 -40 60 -40c13 0 25 5 35 12zM255 440c-14 -28 -37 -60 -66 -73v-279c51 -49 65 -78 65 -106c0 -87 -126 -108 -153 -208h-22c2 92 75 108 75 162
c0 18 -16 45 -75 104v321c-11 7 -22 16 -31 25l-21 -13l-12 19c45 27 84 61 121 98c17 -26 45 -56 79 -56c12 0 23 5 33 11z" />
    <glyph glyph-name="k" unicode="k" horiz-adv-x="463" 
d="M453 42l-100 -92c-44 8 -71 56 -105 170c-8 30 -22 58 -38 84l-38 -25v-98c24 -11 49 -27 68 -45c-32 -27 -64 -54 -91 -86c-28 26 -70 62 -110 62c-10 0 -20 -1 -29 -4l-5 7c13 23 34 42 57 55v469c0 31 -2 74 -25 98c65 2 108 34 157 73c-16 -55 -22 -113 -22 -170
v-161c52 35 104 71 153 110c28 -51 58 -101 93 -148l-119 -78c29 -37 51 -100 71 -146c24 -56 38 -69 60 -69c6 0 12 1 18 2zM310 305c-21 30 -41 60 -57 93c-27 -19 -53 -38 -81 -55v-128z" />
    <glyph glyph-name="l" unicode="l" horiz-adv-x="278" 
d="M271 39c-36 -29 -73 -57 -107 -89c-27 23 -86 67 -122 67c-7 0 -14 -1 -21 -3l-4 5c15 18 37 36 57 48v471c0 32 -2 75 -25 99c47 -1 86 18 157 73c-16 -55 -22 -113 -22 -170v-459c20 -10 37 -23 54 -37l19 13z" />
    <glyph glyph-name="m" unicode="m" horiz-adv-x="722" 
d="M726 58c-33 -35 -61 -72 -87 -108c-88 15 -92 67 -92 144v249c-26 5 -51 23 -66 45c-19 -12 -39 -23 -58 -35v-268c28 -7 56 -24 78 -43c-33 -29 -65 -59 -94 -92c-27 24 -73 60 -111 60c-12 0 -25 -3 -36 -10l-5 5c13 26 35 51 58 68v238c0 45 -11 73 -60 77
c-21 -15 -42 -30 -64 -45v-263c20 -9 37 -23 52 -38c-32 -27 -59 -59 -84 -92c-21 28 -57 60 -94 60c-15 0 -30 -4 -43 -10l-5 5c13 26 37 53 64 65v241c0 46 -16 67 -63 71l-4 6c35 23 83 67 105 102c57 -18 70 -60 72 -115c50 37 99 74 145 115c60 -13 86 -43 88 -105
c52 31 101 66 147 105c18 -28 44 -59 80 -59c18 0 33 5 45 18l5 -3c-4 -30 -18 -60 -42 -79v-248c0 -36 7 -59 37 -59c7 0 14 1 20 3z" />
    <glyph glyph-name="n" unicode="n" 
d="M492 58c-31 -35 -59 -67 -87 -108c-61 13 -84 37 -84 142v251c-26 4 -54 17 -68 41c-21 -15 -42 -28 -64 -41v-263c30 -9 61 -29 84 -50c-37 -22 -70 -50 -100 -80c-27 29 -68 60 -110 60c-15 0 -30 -4 -43 -10l-5 4c15 26 37 52 64 66v241c0 46 -16 67 -63 71l-4 6
c35 23 82 67 105 102c57 -18 70 -60 72 -115c56 34 110 71 159 115c15 -30 38 -59 75 -59c18 0 33 5 45 18l5 -3c-5 -28 -19 -61 -42 -79v-248c0 -37 7 -59 37 -59c7 0 14 1 20 3z" />
    <glyph glyph-name="o" unicode="o" 
d="M481 431c-9 -25 -30 -52 -52 -68v-241c0 -49 4 -64 24 -90c-10 1 -20 2 -30 2c-89 0 -184 -24 -252 -84c-28 34 -71 64 -117 64c-15 0 -29 -4 -41 -13l-4 4c13 25 40 50 65 62v270c0 30 -3 54 -18 81c18 -3 37 -4 55 -4c84 0 174 29 243 76c21 -31 51 -67 92 -67
c11 0 24 3 32 11zM319 54v299c-29 6 -61 26 -80 49c-18 -5 -36 -10 -55 -12v-301c28 -4 70 -26 90 -46c15 5 30 8 45 11z" />
    <glyph glyph-name="p" unicode="p" horiz-adv-x="519" 
d="M506 424c-12 -28 -33 -53 -61 -66v-251c0 -29 2 -58 20 -83c-75 -2 -158 -29 -219 -74c-14 19 -30 37 -49 52v-83c0 -36 3 -70 25 -100c-64 -2 -103 -15 -157 -51c19 52 22 105 22 160v96c-28 -2 -57 -11 -75 -34l-7 4c11 40 47 80 82 100v207c0 46 -16 67 -63 71l-4 6
c39 34 75 70 105 112c72 -23 72 -81 72 -145c67 43 130 93 191 145c18 -31 39 -72 81 -72c12 0 23 4 33 10zM335 27v326c-15 7 -31 15 -43 26c-30 -24 -62 -46 -95 -66v-206c48 -8 95 -46 119 -88z" />
    <glyph glyph-name="q" unicode="q" 
d="M485 429c-9 -25 -35 -52 -56 -68v-423c0 -59 9 -115 30 -170c-55 28 -103 43 -165 43c21 21 25 71 25 122v113c-46 -28 -88 -61 -128 -96c-33 34 -76 64 -125 64c-15 0 -29 -4 -41 -13l-4 4c10 26 29 48 53 62v263c0 44 -2 60 -18 88c18 -3 37 -4 55 -4
c84 0 183 31 253 76c17 -31 47 -69 86 -69c11 0 23 3 32 11zM319 80v269c-29 9 -56 27 -70 54c-21 -6 -43 -10 -65 -13v-301c27 -5 64 -24 85 -42c16 12 32 23 50 33z" />
    <glyph glyph-name="r" unicode="r" horiz-adv-x="389" 
d="M389 441c-2 -56 -27 -110 -90 -110c-28 0 -53 14 -71 34c-13 -14 -26 -26 -40 -38v-234c24 -7 48 -18 69 -32l26 22l18 -20c-40 -35 -78 -73 -114 -113c-29 25 -79 63 -118 63c-19 0 -37 -4 -54 -13l-6 6c14 28 40 56 69 69v236c0 46 -16 67 -63 71l-4 6
c35 23 82 67 105 102c50 -23 69 -73 72 -125c39 37 73 79 102 125c9 -27 25 -63 58 -63c15 0 29 7 41 14z" />
    <glyph glyph-name="s" unicode="s" horiz-adv-x="481" 
d="M437 484c-30 -72 -88 -148 -142 -203h132c-17 -24 -18 -51 -18 -79v-109c0 -32 2 -61 18 -89c-19 11 -42 14 -64 14c-70 0 -124 -13 -171 -68c-20 34 -50 60 -91 60c-36 0 -64 -20 -76 -54l-22 6c18 73 84 151 135 204h-88c14 24 18 53 18 80v107c0 29 -1 58 -18 83
c25 -7 51 -10 77 -10c58 0 116 18 154 64c19 -19 45 -34 73 -34c26 0 49 10 61 34zM358 404c-21 -16 -47 -28 -74 -28c-26 0 -56 17 -73 36l-33 -8v-173h27c56 52 111 108 153 173zM299 45v171h-71c-51 -46 -97 -97 -138 -152c24 15 53 26 82 26c41 0 71 -26 99 -52z" />
    <glyph glyph-name="t" unicode="t" horiz-adv-x="296" 
d="M298 55c-36 -34 -72 -68 -104 -105c-64 57 -98 63 -139 63c-9 0 -18 -1 -26 -3l-4 5c17 21 41 41 64 54v321c-24 0 -53 -2 -73 -6c2 14 3 27 3 41s-1 27 -3 41c23 -4 54 -6 73 -6v10c0 46 -3 76 -13 91c60 2 96 34 141 69c-13 -56 -18 -113 -18 -170c32 0 65 3 88 10
c-2 -15 -3 -30 -3 -45s1 -30 3 -45c-23 8 -60 10 -88 10v-301c22 -7 47 -21 66 -34l16 16z" />
    <glyph glyph-name="u" unicode="u" 
d="M503 48c-31 -30 -61 -63 -87 -98c-56 17 -96 55 -100 116c-49 -36 -98 -73 -141 -116c-30 33 -74 71 -121 71c-13 0 -25 -2 -37 -7l-2 5c16 22 37 42 60 55v237c0 46 -16 67 -63 71l-4 6c35 23 83 67 105 102c57 -18 72 -60 72 -115v-286c26 -5 55 -17 76 -32
c18 14 36 27 55 39v263c-11 8 -20 19 -28 30l-27 -19l-12 17c45 30 88 64 125 103c19 -28 44 -63 82 -63c11 0 22 3 30 10l5 -4c-13 -31 -35 -59 -65 -74v-240c0 -38 9 -69 53 -69c7 0 14 1 20 3z" />
    <glyph glyph-name="v" unicode="v" 
d="M481 429c-10 -24 -28 -44 -51 -57v-285c0 -25 3 -56 21 -72l-3 -6c-11 4 -22 6 -34 6c-73 0 -166 -59 -255 -59c-71 0 -80 54 -80 112v249c0 46 -16 67 -63 71l-4 6c43 28 84 60 122 96c49 -29 55 -59 55 -113v-235c0 -63 4 -111 81 -111c17 0 34 3 50 6v322
c-15 8 -29 19 -40 31l-19 -11l-12 19c44 26 85 57 121 92c18 -31 43 -63 82 -63c9 0 18 2 26 6z" />
    <glyph glyph-name="w" unicode="w" horiz-adv-x="722" 
d="M711 429c-13 -24 -33 -44 -57 -57v-285c0 -25 2 -56 21 -72l-3 -6c-11 4 -22 6 -34 6c-58 0 -155 -40 -208 -65c-52 10 -90 45 -106 95c-45 -28 -90 -59 -129 -95c-30 33 -77 71 -124 71c-13 0 -25 -2 -37 -7l-2 5c16 22 37 42 60 55v237c0 46 -16 67 -63 71l-4 6
c35 23 83 67 105 102c57 -18 72 -60 72 -115v-286c28 -6 54 -20 78 -37c12 8 25 16 38 23v242c0 39 -6 67 -51 71l-4 6c40 28 76 61 110 96c49 -29 55 -59 55 -113v-235c0 -62 18 -107 88 -107c9 0 19 1 28 2v322c-13 9 -25 19 -34 31l-19 -11l-12 19c44 26 85 57 121 92
c17 -31 40 -63 79 -63c10 0 20 2 29 6z" />
    <glyph glyph-name="x" unicode="x" horiz-adv-x="481" 
d="M474 68c-32 -35 -60 -75 -81 -118c-19 1 -37 5 -54 15c-45 27 -86 126 -107 175c-29 -62 -55 -126 -78 -190c-18 23 -44 42 -74 42c-31 0 -53 -15 -67 -42l-8 5c13 64 48 137 123 137c15 0 29 -4 43 -10c14 32 28 64 44 95l-5 9h-43c-24 0 -48 -1 -72 -6
c8 27 12 54 16 82c16 -5 34 -6 51 -6h15c-21 40 -53 104 -92 128c-14 9 -30 14 -46 17v6c41 23 81 50 115 83c59 -42 88 -123 114 -188c26 58 53 116 72 177h8c11 -23 29 -38 55 -38c24 0 43 17 52 38h8c-3 -53 -25 -138 -92 -138c-16 0 -33 4 -48 10
c-12 -27 -24 -54 -37 -81l6 -14h44c24 0 48 1 72 6c-8 -27 -12 -54 -16 -82c-16 5 -34 6 -51 6h-21c48 -95 77 -120 119 -120c11 0 21 3 31 7z" />
    <glyph glyph-name="y" unicode="y" 
d="M493 447c-14 -32 -33 -57 -63 -75v-285c0 -23 -2 -46 -13 -66c-33 -61 -139 -60 -198 -65c-33 -3 -89 -30 -89 -69c0 -16 11 -24 26 -24c45 0 119 67 190 67c44 0 89 -26 89 -74c0 -51 -41 -73 -87 -73c-10 0 -20 1 -30 2v24c8 -1 17 -2 25 -2c16 0 46 3 46 25
c0 13 -12 18 -23 18c-51 0 -117 -67 -184 -67c-52 0 -102 28 -102 86c0 50 44 83 86 100c-70 14 -93 52 -93 121v235c0 39 -7 67 -51 71l-4 6c41 26 80 56 116 88c52 -30 49 -80 49 -133c65 40 129 83 187 133c21 -29 47 -49 84 -49c12 0 24 4 34 10zM320 359
c-17 5 -33 11 -48 20c-29 -20 -59 -38 -89 -56v-248c0 -53 9 -85 69 -85c63 0 68 43 68 94v275z" />
    <glyph glyph-name="z" unicode="z" horiz-adv-x="389" 
d="M406 472l-146 -209h26c24 0 49 1 73 6c-13 -26 -25 -53 -31 -82c-17 6 -35 6 -53 6h-64l-86 -124c40 36 84 62 139 62s94 -40 94 -95c0 -69 -64 -129 -107 -177c-29 -33 -58 -67 -85 -101c-25 30 -56 50 -96 50c-26 0 -50 -8 -68 -27h-9c25 59 80 117 148 117
c29 0 58 -14 79 -32c21 28 38 62 38 98c0 46 -26 93 -77 93c-58 0 -103 -58 -134 -101l-24 15l154 222h-49c-24 0 -49 -1 -73 -6c13 26 25 53 31 82c17 -6 35 -6 53 -6h87l91 130c-49 -29 -104 -50 -161 -50c-52 0 -96 14 -138 46c37 30 70 64 100 101
c34 -41 78 -67 132 -67c52 0 98 25 132 63z" />
    <glyph glyph-name="braceleft" unicode="{" horiz-adv-x="389" 
d="M355 -69c-55 1 -80 2 -112 12c-64 20 -94 64 -94 129c0 52 23 110 23 166c0 59 -60 69 -111 88v22c25 5 51 14 74 26c24 13 37 26 37 55c0 41 -8 81 -14 121c-3 21 -9 41 -9 62c0 35 17 68 44 91c35 29 75 37 162 38v-23c-54 -2 -86 -23 -86 -81c0 -56 18 -111 18 -167
c0 -29 -12 -59 -33 -79c-29 -28 -108 -47 -148 -55v-1c30 -6 61 -12 90 -22c65 -22 91 -53 91 -123c0 -32 -8 -63 -14 -95c-3 -19 -4 -38 -4 -57c0 -59 29 -81 86 -84v-23z" />
    <glyph glyph-name="bar" unicode="|" horiz-adv-x="241" 
d="M159 -250h-77v1000h77v-1000z" />
    <glyph glyph-name="braceright" unicode="}" horiz-adv-x="389" 
d="M327 324c-25 -5 -51 -14 -74 -26c-24 -13 -37 -26 -37 -55c0 -41 8 -81 14 -121c3 -21 9 -41 9 -62c0 -35 -17 -68 -44 -91c-35 -29 -75 -37 -162 -38v23c54 2 86 23 86 81c0 56 -18 111 -18 167c0 29 12 59 33 79c29 28 108 47 148 55v1c-30 6 -61 12 -90 22
c-65 22 -91 53 -91 123c0 32 8 63 14 95c3 19 4 38 4 57c0 59 -29 81 -86 84v23c55 -1 80 -2 112 -12c64 -20 94 -64 94 -129c0 -52 -23 -110 -23 -166c0 -59 60 -69 111 -88v-22z" />
    <glyph glyph-name="asciitilde" unicode="~" horiz-adv-x="556" 
d="M545 346c-5 -17 -5 -34 -5 -51c0 -100 -41 -194 -155 -194c-144 0 -122 182 -210 182c-58 0 -66 -77 -66 -121c0 -11 1 -18 7 -27c-4 1 -9 3 -13 3c-30 0 -54 -5 -81 -19c5 14 5 28 5 43c0 100 41 196 155 196c142 0 126 -182 209 -182c64 0 68 83 68 130
c0 7 -1 14 -4 21c7 -1 15 -2 22 -2c23 0 49 7 68 21z" />
    <glyph glyph-name="exclamdown" unicode="&#xa1;" horiz-adv-x="407" 
d="M296 397c-32 -26 -64 -53 -94 -82c-27 31 -56 60 -86 88c31 28 61 56 91 86c28 -32 56 -65 89 -92zM325 -140l-1 -6c-53 -26 -78 -51 -119 -92c-21 28 -47 58 -85 58c-9 0 -19 -3 -27 -7l-8 6c18 25 39 48 62 69l40 388h28l47 -379c22 -10 43 -22 63 -37z" />
    <glyph glyph-name="cent" unicode="&#xa2;" horiz-adv-x="426" 
d="M408 530c-17 -46 -60 -75 -109 -77v-298c11 -4 22 -8 32 -13l35 38l19 -17c-29 -32 -58 -63 -86 -96v-107h-28v90c-44 27 -116 59 -168 59c-13 0 -26 -3 -37 -10l-3 5c9 20 27 40 46 52v273c0 36 -2 53 -21 84c12 -1 24 -3 36 -3c51 0 109 23 147 57v83h28v-94
c19 -20 45 -33 72 -33c13 0 25 5 35 12zM271 167v292c-21 9 -37 26 -52 43v-322c18 -2 35 -8 52 -13z" />
    <glyph glyph-name="sterling" unicode="&#xa3;" horiz-adv-x="556" 
d="M553 79l-102 -129c-76 51 -160 68 -250 68c-58 0 -109 -12 -162 -33l-12 26c86 51 95 78 95 131v131h-24c-25 0 -51 -3 -74 -15c7 28 22 61 22 90c0 7 -2 14 -5 20c16 -5 36 -5 52 -5h29v64c0 90 60 135 127 182c37 26 78 51 124 51c50 0 96 -15 135 -47l-106 -119
l-17 14l26 31c-30 29 -68 56 -111 56s-60 -27 -60 -67v-165h82c25 0 51 3 74 15c-7 -28 -22 -61 -22 -90c0 -7 2 -14 5 -20c-16 5 -35 5 -52 5h-87v-47c1 -54 -5 -97 -41 -140c44 14 83 22 130 22c65 0 123 -10 182 -37l21 25z" />
    <glyph glyph-name="fraction" unicode="&#x2044;" horiz-adv-x="442" 
d="M568 660c-45 -28 -91 -76 -124 -117l-403 -501c-6 -8 -23 -29 -23 -38c0 -3 2 -7 3 -10l-112 -28c35 30 69 63 98 99l419 519c11 13 30 33 30 51z" />
    <glyph glyph-name="yen" unicode="&#xa5;" horiz-adv-x="555" 
d="M586 597c-29 -29 -74 -61 -115 -65l-88 -162h97v-37h-116l-18 -37v-27h134v-38h-134v-136c22 -8 44 -18 64 -30l23 23l20 -16l-120 -120c-42 37 -81 57 -138 57c-30 0 -45 -4 -72 -18l-9 8c35 50 68 71 122 97v135h-135v38h135v27l-19 37h-116v37h97
c-14 27 -29 53 -44 79c-22 37 -58 99 -107 99c-16 0 -29 -7 -42 -16l-8 7c28 39 53 80 78 122c38 -1 68 -17 95 -42c58 -55 109 -183 149 -256l100 183c-17 11 -34 22 -50 34l-19 -9l-12 17c41 25 81 51 120 80c42 -44 77 -66 99 -66c8 0 16 2 23 4z" />
    <glyph glyph-name="florin" unicode="&#x192;" horiz-adv-x="389" 
d="M439 650c-25 -36 -61 -61 -106 -61c-27 0 -57 11 -77 29l-19 -9v-147h23c31 0 61 2 91 4c-2 -17 -5 -33 -5 -50c0 -11 1 -23 2 -34c-37 6 -74 8 -111 10v-570c-45 -6 -79 -23 -108 -59v629h-13c-15 0 -30 -2 -45 -3l2 74c19 -1 37 -1 56 -1v65c0 30 -1 48 -16 75
c97 16 149 38 215 112c24 -27 54 -57 93 -57c5 0 9 1 14 1z" />
    <glyph glyph-name="section" unicode="&#xa7;" horiz-adv-x="556" 
d="M482 675c-29 -77 -90 -145 -143 -207h131c-31 -36 -12 -81 -25 -122c-9 -27 -45 -61 -65 -81h90c-12 -14 -19 -33 -19 -52v-157c0 -20 3 -33 15 -57c-27 8 -54 12 -82 12c-62 0 -113 -23 -152 -71c-17 25 -46 44 -77 44c-49 0 -72 -59 -72 -100c0 -22 13 -63 40 -63
c9 0 17 10 23 10c4 0 6 -4 6 -7c0 -16 -19 -31 -34 -31c-41 0 -62 59 -62 93c0 70 52 144 163 267h-131c13 14 20 29 20 86c0 48 37 85 70 116h-90c18 18 20 42 20 66v148c0 18 -7 35 -14 52c26 -7 53 -10 80 -10c26 0 52 5 76 14c37 14 51 26 75 57c20 -26 41 -43 75 -43
c27 0 47 12 59 36h23zM405 597h-2c-18 -21 -45 -35 -73 -35c-34 0 -51 15 -76 35l-35 -10v-173h26c58 62 115 114 160 183zM339 289v113h-65c-15 -15 -31 -29 -45 -44c-8 -9 -10 -19 -10 -31v-108h65l35 33c9 9 20 17 20 37zM339 34v172h-25c-58 -54 -111 -113 -159 -176
c1 1 1 0 1 0c20 14 45 31 72 31c30 0 56 -16 77 -37z" />
    <glyph glyph-name="currency" unicode="&#xa4;" horiz-adv-x="522" 
d="M479 174l-35 -35l-66 65c-41 -28 -79 -40 -118 -40c-32 0 -73 9 -117 40l-67 -65l-34 35l66 64c-28 44 -39 82 -39 116c0 35 10 73 39 116l-66 65l34 35l67 -65c46 30 85 39 117 39c35 0 76 -11 117 -39l67 65l35 -35l-66 -65c30 -46 39 -84 39 -116
c0 -34 -11 -71 -39 -116zM403 355c0 82 -71 140 -142 140c-80 0 -142 -64 -142 -140c0 -77 64 -142 141 -142c78 0 143 64 143 142z" />
    <glyph glyph-name="quotesingle" unicode="'" horiz-adv-x="278" 
d="M203 739c-7 -10 -10 -24 -11 -51l-10 -180c-1 -10 -2 -21 -2 -31c0 -7 1 -15 1 -22c-16 7 -26 10 -44 10s-25 -1 -40 -10c1 11 2 22 2 33c0 14 -1 29 -2 43l-12 176c-1 14 -3 19 -9 32c24 -7 46 -9 71 -9c24 0 34 0 56 9z" />
    <glyph glyph-name="quotedblleft" unicode="&#x201c;" horiz-adv-x="481" 
d="M436 597c-35 -28 -68 -58 -97 -92c-34 23 -70 51 -70 96c0 71 76 113 134 135l9 -10c-19 -14 -38 -34 -38 -59c0 -33 34 -59 62 -70zM226 597c-35 -28 -68 -58 -97 -92c-34 23 -70 51 -70 96c0 71 76 113 134 135l9 -10c-19 -14 -38 -34 -38 -59c0 -33 34 -59 62 -70z
" />
    <glyph glyph-name="guillemotleft" unicode="&#xab;" 
d="M463 44c-17 2 -35 3 -52 3c-18 0 -35 -1 -53 -3c-2 13 -10 25 -18 36l-89 121c-7 10 -15 19 -24 26c9 7 17 16 24 26l89 121c8 11 16 23 18 36c18 -2 35 -3 53 -3c17 0 35 1 52 3c-16 -15 -28 -32 -41 -49l-100 -134l100 -134c13 -17 25 -34 41 -49zM266 44
c-17 2 -35 3 -52 3c-18 0 -35 -1 -53 -3c-2 13 -10 25 -18 36l-89 121c-7 10 -15 19 -24 26c9 7 17 16 24 26l89 121c8 11 16 23 18 36c18 -2 35 -3 53 -3c17 0 35 1 52 3c-16 -15 -28 -32 -41 -49l-100 -134l100 -134c13 -17 25 -34 41 -49z" />
    <glyph glyph-name="guilsinglleft" unicode="&#x2039;" horiz-adv-x="296" 
d="M263 44c-17 2 -35 3 -52 3c-18 0 -35 -1 -53 -3c-2 13 -10 25 -18 36l-89 121c-7 10 -15 19 -24 26c9 7 17 16 24 26l89 121c8 11 16 23 18 36c18 -2 35 -3 53 -3c17 0 35 1 52 3c-16 -15 -28 -32 -41 -49l-100 -134l100 -134c13 -17 25 -34 41 -49z" />
    <glyph glyph-name="guilsinglright" unicode="&#x203a;" horiz-adv-x="296" 
d="M269 227c-9 -7 -17 -16 -24 -26l-89 -121c-8 -11 -16 -23 -18 -36c-18 2 -35 3 -53 3c-17 0 -35 -1 -52 -3c16 15 28 32 41 49l100 134l-100 134c-13 17 -25 34 -41 49c17 -2 35 -3 52 -3c18 0 35 1 53 3c2 -13 10 -25 18 -36l89 -121c7 -10 15 -19 24 -26z" />
    <glyph glyph-name="endash" unicode="&#x2013;" horiz-adv-x="556" 
d="M525 298c-14 -35 -26 -71 -36 -107c-31 2 -62 5 -93 5h-223c-47 0 -94 -1 -141 -5c14 34 27 68 36 103c36 -3 71 -5 107 -5h244c35 0 71 1 106 9z" />
    <glyph glyph-name="dagger" unicode="&#x2020;" horiz-adv-x="556" 
d="M503 440c-33 -21 -68 -41 -99 -66c-38 31 -65 51 -115 58c9 -50 27 -78 60 -115c-33 -115 -55 -233 -65 -352h-15c-9 118 -27 237 -59 351c31 37 51 68 60 116c-47 -12 -75 -27 -111 -60c-34 25 -69 49 -107 68c37 20 75 40 107 68c39 -35 56 -54 111 -60
c-12 53 -24 70 -59 111c30 31 47 71 68 108c17 -39 40 -75 67 -108c-34 -34 -47 -65 -57 -111c48 11 79 23 115 57c30 -25 63 -49 99 -65z" />
    <glyph glyph-name="daggerdbl" unicode="&#x2021;" horiz-adv-x="556" 
d="M501 438c-37 -19 -69 -42 -101 -69c-33 30 -69 48 -112 58c11 -47 30 -76 60 -113c-30 -33 -53 -71 -61 -115c43 11 78 29 111 59c34 -25 64 -51 102 -70c-37 -17 -71 -41 -104 -65c-37 34 -59 52 -110 60c10 -46 26 -77 60 -111c-28 -34 -49 -71 -68 -110
c-19 38 -43 73 -68 108c34 36 48 66 57 114c-51 -11 -75 -27 -113 -62c-25 22 -52 41 -80 59c-5 3 -10 6 -14 10c35 18 68 37 98 63c37 -32 59 -49 109 -55c-13 53 -26 72 -60 113c34 39 51 63 62 115c-54 -8 -72 -18 -110 -57c-32 25 -64 47 -100 65c34 20 64 45 96 68
c41 -37 58 -50 113 -60c-9 50 -23 75 -57 112c24 36 50 70 68 110c19 -39 40 -77 68 -111c-34 -38 -48 -60 -59 -110c49 6 75 27 109 61c33 -25 67 -48 104 -67z" />
    <glyph glyph-name="periodcentered" unicode="&#xb7;" horiz-adv-x="278" 
d="M230 307c-30 -28 -60 -57 -88 -87c-28 30 -58 59 -89 86c31 28 62 56 92 86c28 -29 56 -57 85 -85z" />
    <glyph glyph-name="paragraph" unicode="&#xb6;" horiz-adv-x="648" 
d="M642 682h-95v-861h84v-28h-152v889h-52v-889h-155v28h87v861h-9c-5 1 -9 0 -11 0c-108 -11 -135 -103 -135 -204c0 -82 23 -210 128 -210v-23c-9 0 -18 -1 -27 -1c-145 0 -268 73 -268 231c0 166 154 235 308 235h297v-28z" />
    <glyph glyph-name="bullet" unicode="&#x2022;" horiz-adv-x="556" 
d="M414 357c0 -75 -62 -136 -137 -136s-136 61 -136 136s61 137 136 137c76 0 137 -61 137 -137z" />
    <glyph glyph-name="quotesinglbase" unicode="&#x201a;" horiz-adv-x="278" 
d="M212 23c0 -69 -80 -111 -136 -131l-8 10c18 14 37 35 37 59c0 33 -34 53 -58 70c33 29 64 59 95 90c36 -25 70 -50 70 -98z" />
    <glyph glyph-name="quotedblbase" unicode="&#x201e;" horiz-adv-x="481" 
d="M414 22c0 -71 -78 -112 -136 -132l-7 9c18 16 36 34 36 60c0 33 -34 54 -58 71c33 29 65 59 96 89c34 -25 69 -50 69 -97zM212 23c0 -69 -80 -111 -136 -131l-8 10c18 14 37 35 37 59c0 33 -34 53 -58 70c33 29 64 59 95 90c36 -25 70 -50 70 -98z" />
    <glyph glyph-name="quotedblright" unicode="&#x201d;" horiz-adv-x="481" 
d="M436 640c0 -71 -76 -113 -134 -135l-9 10c19 14 38 34 38 59c0 33 -34 59 -62 70c35 28 68 58 97 92c34 -23 70 -51 70 -96zM226 640c0 -71 -76 -113 -134 -135l-9 10c19 14 38 34 38 59c0 33 -34 59 -62 70c35 28 68 58 97 92c34 -23 70 -51 70 -96z" />
    <glyph glyph-name="guillemotright" unicode="&#xbb;" 
d="M463 227c-9 -7 -17 -16 -24 -26l-89 -121c-8 -11 -16 -23 -18 -36c-18 2 -35 3 -53 3c-17 0 -35 -1 -52 -3c16 15 28 32 41 49l100 134l-100 134c-13 17 -25 34 -41 49c17 -2 35 -3 52 -3c18 0 35 1 53 3c2 -13 10 -25 18 -36l89 -121c7 -10 15 -19 24 -26zM266 227
c-9 -7 -17 -16 -24 -26l-89 -121c-8 -11 -16 -23 -18 -36c-18 2 -35 3 -53 3c-17 0 -35 -1 -52 -3c16 15 28 32 41 49l100 134l-100 134c-13 17 -25 34 -41 49c17 -2 35 -3 52 -3c18 0 35 1 53 3c2 -13 10 -25 18 -36l89 -121c7 -10 15 -19 24 -26z" />
    <glyph glyph-name="ellipsis" unicode="&#x2026;" horiz-adv-x="833" 
d="M785 39c-32 -27 -62 -57 -89 -89c-27 32 -57 62 -89 89c32 27 62 57 89 89c27 -32 57 -62 89 -89zM505 39c-32 -27 -62 -57 -89 -89c-27 32 -57 62 -89 89c32 27 62 57 89 89c27 -32 57 -62 89 -89zM231 39c-32 -27 -62 -57 -89 -89c-27 32 -57 62 -89 89
c32 27 62 57 89 89c27 -32 57 -62 89 -89z" />
    <glyph glyph-name="perthousand" unicode="&#x2030;" horiz-adv-x="1037" 
d="M1004 327c-6 -21 -10 -28 -29 -41v-255c0 -16 4 -25 14 -38c-22 3 -44 5 -66 5c-47 0 -71 -10 -109 -38c-26 18 -43 32 -76 32c-7 0 -14 0 -21 -1c11 17 16 25 32 37v250c0 16 -2 25 -9 40c17 -2 33 -4 50 -4c47 0 91 20 130 44c13 -17 31 -36 54 -36c10 0 20 3 30 5z
M704 327c-7 -21 -11 -28 -29 -41v-255c0 -17 3 -25 14 -38c-22 3 -45 5 -67 5c-47 0 -70 -10 -108 -38c-26 18 -44 32 -77 32c-7 0 -14 0 -21 -1c10 16 17 25 32 37v250c0 17 -1 25 -9 40c17 -2 34 -4 51 -4c46 0 90 20 129 44c14 -17 32 -36 55 -36c10 0 20 3 30 5z
M696 661c-38 -23 -73 -52 -101 -87l-430 -535c-7 -8 -19 -22 -19 -33c0 -3 2 -6 4 -8l-113 -30c30 25 60 50 85 81l455 563c7 9 9 12 9 23zM302 632c-7 -21 -11 -28 -29 -40v-255c0 -17 5 -26 14 -39c-22 3 -44 6 -66 6c-48 0 -71 -11 -109 -39c-26 19 -43 33 -76 33
c-7 0 -14 0 -21 -1c11 17 16 24 32 37v249c0 17 -2 26 -9 41c17 -2 33 -4 50 -4c46 0 90 19 129 44c14 -18 31 -36 56 -36c10 0 19 2 29 4zM903 24v251c-14 7 -26 15 -37 26l-45 -13v-249c17 -6 34 -13 49 -22zM603 24v251c-14 7 -26 16 -38 26l-45 -13v-249
c17 -5 34 -12 49 -22zM201 330v251c-13 7 -26 15 -37 25l-45 -12v-249c17 -6 34 -13 49 -22z" />
    <glyph glyph-name="questiondown" unicode="&#xbf;" horiz-adv-x="556" 
d="M426 399c-33 -27 -64 -55 -95 -84c-27 30 -55 59 -84 87c32 28 63 57 92 88c28 -31 57 -62 87 -91zM472 -115c-24 -74 -76 -119 -156 -119c-98 0 -240 68 -240 181c0 109 115 166 208 184c14 45 25 91 34 138h23c18 -64 31 -115 71 -170c-25 3 -51 7 -76 7
c-113 0 -149 -66 -149 -170c0 -41 6 -122 62 -122c69 0 99 70 110 128c37 -19 75 -39 113 -57z" />
    <glyph glyph-name="grave" unicode="`" horiz-adv-x="426" 
d="M318 628c-22 -25 -43 -63 -55 -95c-45 46 -153 108 -213 132c22 25 43 63 55 95c45 -46 153 -109 213 -132z" />
    <glyph glyph-name="acute" unicode="&#xb4;" horiz-adv-x="426" 
d="M368 665c-60 -23 -168 -86 -213 -132c-12 32 -33 70 -55 95c60 23 168 86 213 132c11 -32 33 -70 55 -95z" />
    <glyph glyph-name="circumflex" unicode="&#x2c6;" horiz-adv-x="426" 
d="M373 604c-21 -21 -41 -44 -60 -67c-30 35 -64 67 -100 95c-36 -28 -70 -60 -100 -95c-19 23 -39 46 -60 67c59 44 110 99 160 153c50 -54 101 -109 160 -153z" />
    <glyph glyph-name="tilde" unicode="&#x2dc;" horiz-adv-x="426" 
d="M372 668c-15 -33 -24 -69 -29 -105c-23 -10 -50 -14 -75 -14c-50 0 -93 29 -143 29c-30 0 -48 -8 -72 -25c12 34 17 70 20 105c21 9 44 15 67 15c53 0 102 -29 155 -29c27 0 53 13 77 24z" />
    <glyph glyph-name="macron" unicode="&#xaf;" horiz-adv-x="426" 
d="M353 667c-5 -15 -8 -31 -8 -47c0 -11 2 -23 5 -34c-12 3 -23 4 -34 4h-212c-13 0 -19 -1 -31 -6c8 15 10 22 10 39c0 14 -2 29 -4 43c8 -2 16 -4 24 -4h216c11 0 23 2 34 5z" />
    <glyph glyph-name="breve" unicode="&#x2d8;" horiz-adv-x="426" 
d="M371 640c-38 -56 -89 -92 -158 -92c-70 0 -115 33 -158 84c31 9 60 20 87 36c15 -30 37 -49 71 -49c32 0 50 17 66 42c33 -15 56 -18 92 -21z" />
    <glyph glyph-name="dotaccent" unicode="&#x2d9;" horiz-adv-x="426" 
d="M292 621l-81 -79l-77 83l82 76z" />
    <glyph glyph-name="dieresis" unicode="&#xa8;" horiz-adv-x="426" 
d="M418 626c-32 -27 -62 -57 -89 -89c-27 32 -57 62 -89 89c32 27 62 57 89 89c27 -32 57 -62 89 -89zM186 626c-32 -27 -62 -57 -89 -89c-27 32 -57 62 -89 89c32 27 62 57 89 89c27 -32 57 -62 89 -89z" />
    <glyph glyph-name="ring" unicode="&#x2da;" horiz-adv-x="426" 
d="M329 650c0 -63 -52 -116 -115 -116c-64 0 -117 52 -117 115c0 64 53 116 116 116s116 -52 116 -115zM301 650h1c0 49 -40 88 -88 88c-49 0 -90 -39 -90 -88s41 -89 89 -89c50 0 88 40 88 89z" />
    <glyph glyph-name="cedilla" unicode="&#xb8;" horiz-adv-x="426" 
d="M281 -140c0 -58 -60 -115 -117 -115h-11v8c19 12 34 26 34 50c0 26 -26 48 -42 66l82 74c32 -21 54 -43 54 -83z" />
    <glyph glyph-name="hungarumlaut" unicode="&#x2dd;" horiz-adv-x="426" 
d="M428 693c-68 -50 -128 -113 -182 -178c-20 24 -42 48 -66 69c63 53 126 109 176 175c24 -33 34 -48 72 -66zM246 693c-68 -50 -129 -113 -183 -178c-20 25 -41 48 -65 69c57 47 132 117 176 175c24 -33 34 -48 72 -66z" />
    <glyph glyph-name="ogonek" unicode="&#x2db;" horiz-adv-x="426" 
d="M337 -199c-38 -46 -73 -71 -134 -71c-62 0 -114 34 -114 100c0 72 69 121 119 161l21 -8c-33 -39 -61 -72 -61 -125c0 -45 25 -78 72 -78c33 0 59 13 83 33z" />
    <glyph glyph-name="caron" unicode="&#x2c7;" horiz-adv-x="426" 
d="M373 690c-55 -41 -113 -102 -160 -153c-47 51 -105 112 -160 153c21 21 41 44 60 67c30 -35 64 -67 100 -95c36 28 70 60 100 95c19 -23 39 -46 60 -67z" />
    <glyph glyph-name="emdash" unicode="&#x2014;" horiz-adv-x="1000" 
d="M969 295c-15 -34 -28 -69 -35 -105c-57 4 -114 5 -171 5h-595c-24 0 -80 -3 -137 -10c15 34 28 69 35 105c57 -4 77 -5 134 -5h598c57 0 114 3 171 10z" />
    <glyph glyph-name="AE" unicode="&#xc6;" horiz-adv-x="1000" 
d="M566 699c-35 -52 -65 -106 -136 -106c-48 0 -94 13 -142 13c-25 0 -36 -5 -53 -23l-13 5c26 66 78 130 155 130c34 0 67 -9 100 -18c15 -4 30 -8 45 -8c13 0 25 7 35 15zM993 690l-83 -142l-20 12l12 22c-33 27 -63 45 -107 45c-31 0 -65 -10 -87 -33
c-25 -25 -26 -58 -26 -91v-155c38 49 72 90 140 90c30 0 69 -15 100 -29l15 18l17 -11l-99 -159l-19 11l16 26c-28 23 -62 45 -100 45c-27 0 -50 -9 -70 -27v-196c21 3 42 6 63 6c71 0 140 -21 206 -46l17 24l18 -11l-77 -139c-87 32 -179 54 -272 54
c-64 0 -123 -9 -180 -39l-13 13c56 60 81 92 81 177v102h-204l-107 -154c14 2 29 3 43 3c39 0 77 -12 114 -25l12 18l19 -11l-76 -135c-53 26 -108 51 -168 51c-50 0 -91 -16 -131 -45l-15 10c41 69 81 97 154 128l456 626v-534c0 -39 -2 -62 -18 -98l47 17v386
c0 52 2 92 31 137c33 52 94 96 157 96c45 0 85 -21 125 -39l9 12zM525 357v191l-134 -191h134z" />
    <glyph glyph-name="ordfeminine" unicode="&#xaa;" horiz-adv-x="481" 
d="M403 377l-49 -70c-38 6 -57 17 -67 56c-9 -4 -18 -10 -27 -17c-21 -17 -42 -37 -64 -37c-47 0 -87 46 -87 92c0 48 38 90 72 119l-69 80c32 15 61 34 88 57c7 -24 23 -49 51 -49c29 0 56 29 72 51c16 -33 28 -38 44 -38c9 0 18 3 26 7c-3 -23 -13 -31 -32 -43l1 -181
c0 -34 14 -28 41 -27zM286 380l-2 191l-29 20c-16 -13 -29 -22 -51 -22c-20 0 -36 10 -52 21l109 -125l-19 -14l-46 50c-10 -17 -15 -28 -15 -48c0 -44 31 -79 76 -79c10 0 20 3 29 6z" />
    <glyph glyph-name="Lslash" unicode="&#x141;" horiz-adv-x="722" 
d="M386 701c-32 -46 -75 -96 -137 -96c-45 0 -87 15 -132 15c-29 0 -43 -6 -59 -30l-9 4c13 71 50 136 131 136c35 0 83 -15 118 -25c15 -4 31 -10 47 -10c12 0 24 5 33 12zM704 683c-37 -37 -72 -75 -104 -116l-16 11l24 31c-28 28 -70 61 -111 61c-49 0 -59 -34 -59 -96
v-98c30 8 54 34 62 39c13 -25 35 -36 57 -58c-24 6 -62 -22 -119 -50v-95c0 -65 -9 -91 -34 -118c-27 -29 -65 -49 -97 -67l-9 9c25 19 22 68 22 97v109l-48 -27v-58c0 -44 -3 -84 -30 -114c-28 -30 -66 -53 -101 -71l-9 9c16 10 22 37 22 80v90c-36 -19 -55 -33 -63 -49
c-12 26 -21 44 -56 65c14 1 60 22 119 53v133c0 53 44 94 128 133l8 -8c-14 -18 -18 -40 -18 -77v-117l48 26v73c0 55 2 98 44 138c52 50 142 109 216 109c45 0 89 -19 124 -47zM718 91c-38 -43 -74 -89 -105 -137c-83 36 -165 61 -256 61c-89 0 -167 -15 -244 -61l-10 11
c92 99 225 160 360 160c50 0 99 -8 147 -21v245c-10 5 -16 16 -16 27c0 17 13 30 30 30s30 -13 30 -30c0 -11 -6 -22 -16 -27v-252c14 -4 28 -10 42 -16l21 23z" />
    <glyph glyph-name="Oslash" unicode="&#xd8;" horiz-adv-x="833" 
d="M790 402c0 -216 -159 -450 -391 -450c-75 0 -142 26 -203 69c-25 -35 -56 -71 -69 -113c-15 11 -31 16 -49 19c37 33 64 74 93 113c-87 73 -130 177 -130 289c0 179 107 350 281 407l8 -17c-136 -68 -160 -217 -160 -355c0 -77 12 -187 47 -256l99 136v334l-46 -13v28
c72 25 144 51 213 84v54h30v-41c30 16 59 33 88 51c18 -11 34 -24 49 -38c20 29 46 55 56 90c17 -9 35 -14 54 -16c-32 -28 -58 -62 -83 -96c75 -72 113 -176 113 -279zM582 612c-15 22 -35 42 -57 56l-12 -7v-147zM649 484c-11 36 -26 70 -45 102l-80 -112
c17 -3 34 -5 51 -5c31 0 45 3 74 15zM483 474v173l-52 -23v-221zM671 322c0 44 -5 88 -15 131c-30 -12 -47 -15 -79 -15c-22 0 -43 3 -64 8v-224c25 6 50 9 75 9c31 0 46 -3 74 -14c6 35 9 70 9 105zM655 187c-28 12 -43 14 -73 14c-27 0 -43 -3 -69 -12v-183
c74 30 118 108 142 181zM483 -7v421l-52 -70v-178c0 -55 -76 -99 -121 -115l-10 7c10 10 16 23 16 37v89l-80 -109c42 -65 102 -91 178 -91c23 0 46 4 69 9z" />
    <glyph glyph-name="OE" unicode="&#x152;" horiz-adv-x="1074" 
d="M1049 692l-82 -140l-20 10l13 23c-30 28 -66 46 -108 46c-68 0 -111 -39 -111 -108v-171c36 48 74 89 139 89c35 0 67 -16 99 -29l16 20l17 -12l-98 -158l-19 9l16 25c-27 27 -64 47 -103 47c-25 0 -51 -12 -67 -31v-193c21 4 43 6 64 6c72 0 137 -20 204 -46l17 26
l19 -10l-78 -142c-85 34 -161 56 -253 56c-47 0 -82 -12 -125 -29l-5 14c35 47 71 88 126 113v158l-1 -1l-1 1c-22 -164 -166 -303 -334 -303c-203 0 -340 179 -340 372c0 174 100 322 257 395l7 -18c-41 -34 -65 -57 -90 -105c-37 -73 -46 -164 -46 -245
c0 -132 38 -375 213 -375c26 0 52 5 75 16v646l-51 -24v-402c0 -61 -8 -73 -55 -110c-23 -18 -39 -28 -67 -38l-9 7c12 12 14 23 14 39v459l-45 -14v27c72 23 144 53 213 84v55h30v-39c24 13 46 27 68 43c73 -50 135 -124 161 -206v1l1 -1c7 100 78 201 186 201
c44 0 86 -19 125 -38l10 12zM587 483c-18 67 -53 129 -96 183l-11 -7v-182c16 -4 33 -8 50 -8c23 0 37 5 57 14zM610 319c0 45 -6 89 -15 133c-21 -7 -39 -12 -61 -12c-18 0 -36 3 -54 8v-224c19 4 38 8 57 8c23 0 41 -5 63 -12c6 33 10 66 10 99zM594 187
c-23 8 -40 13 -65 13c-17 0 -33 -4 -49 -9v-176c69 45 94 94 114 172z" />
    <glyph glyph-name="ordmasculine" unicode="&#xba;" horiz-adv-x="481" 
d="M411 627c-9 -25 -15 -35 -35 -52v-192c0 -11 5 -19 11 -27c-14 1 -28 1 -42 1c-64 0 -100 -17 -150 -55c-27 30 -45 41 -69 41c-15 0 -29 -6 -42 -11c14 20 21 32 43 44v204c0 14 -2 22 -10 34c14 -4 28 -6 43 -6c53 0 120 17 161 52c16 -22 33 -44 63 -44
c11 0 19 4 27 11zM296 373v198c-23 4 -29 12 -43 29l-47 -12v-193c27 -4 36 -10 54 -30z" />
    <glyph glyph-name="ae" unicode="&#xe6;" horiz-adv-x="611" 
d="M591 314c-69 -37 -137 -77 -202 -120c0 -13 -1 -26 -1 -39c0 -70 8 -105 87 -105c34 0 57 3 79 32l20 -16l-99 -109c-19 -3 -37 -5 -56 -5c-26 0 -60 4 -84 16c-29 15 -40 44 -51 73c-33 -28 -65 -57 -97 -86c-85 5 -157 57 -157 148c0 74 50 133 111 169l-113 128
c50 27 89 48 129 89c13 -33 34 -75 75 -75c38 0 80 47 101 76c11 -17 26 -47 49 -47c29 0 85 36 112 51c32 -60 56 -125 97 -180zM479 288c-24 41 -46 84 -70 125l-20 -8v-171zM280 57v302c-14 7 -27 15 -40 24c-25 -15 -53 -31 -83 -31c-21 0 -40 8 -59 16l157 -175
l-24 -20l-74 81c-19 -27 -26 -43 -26 -77c0 -69 45 -123 116 -123c11 0 22 1 33 3z" />
    <glyph glyph-name="dotlessi" unicode="&#x131;" horiz-adv-x="278" 
d="M270 45c-33 -30 -65 -60 -93 -95c-84 20 -96 56 -96 137v274c-11 7 -22 16 -31 25l-21 -13l-12 19c45 27 84 61 121 98c17 -26 45 -56 79 -56c12 0 23 5 33 11l7 -5c-14 -27 -38 -61 -66 -73v-238c0 -54 12 -79 47 -79c9 0 18 1 27 3z" />
    <glyph glyph-name="lslash" unicode="&#x142;" horiz-adv-x="296" 
d="M302 420c-13 -7 -33 -25 -48 -39l-63 -58v-242c19 -12 37 -25 56 -37l19 13l14 -19l-107 -85c-26 17 -51 34 -78 48c-24 12 -31 13 -57 13l-7 5c17 18 34 34 55 48v159l-22 -22c-9 -10 -18 -21 -26 -33c-23 13 -33 17 -58 23c17 11 32 24 47 38l59 57v254
c0 38 -4 56 -20 90c36 0 59 6 125 51c9 6 19 12 29 18c-28 -65 -29 -108 -29 -178v-140l34 32c8 8 16 16 22 26c15 -11 22 -19 55 -22z" />
    <glyph glyph-name="oslash" unicode="&#xf8;" 
d="M481 431c-9 -25 -30 -52 -52 -68v-238c0 -58 9 -79 24 -93c-10 1 -20 2 -30 2c-89 0 -184 -24 -252 -84c-14 17 -30 31 -49 43l-32 -49c-11 -17 -22 -35 -28 -49c-12 7 -26 5 -40 5c11 13 25 24 34 39l42 66c-14 5 -29 9 -44 9s-29 -4 -41 -13l-4 4c12 25 40 50 65 62
v269c0 31 -2 55 -18 82c18 -3 37 -4 55 -4c84 0 174 29 243 76c9 -12 17 -24 28 -35l31 48c7 11 13 22 18 34c5 -3 11 -5 17 -5c8 0 15 1 23 1c-13 -13 -25 -30 -37 -48l-30 -49c12 -8 27 -13 42 -13c11 0 24 3 32 11zM318 353c-29 7 -61 27 -79 49c-18 -5 -36 -10 -55 -12
v-249zM319 54v248l-135 -213v0c28 -4 70 -26 90 -46c15 5 30 8 45 11z" />
    <glyph glyph-name="oe" unicode="&#x153;" horiz-adv-x="630" 
d="M632 317c-68 -38 -135 -79 -201 -121v-108c60 -6 86 -14 139 -41l29 30l18 -14c-34 -37 -67 -75 -98 -115c-58 28 -119 57 -185 57c-58 0 -97 -25 -139 -63c-41 37 -75 74 -135 74c-17 0 -28 -3 -44 -11l-4 5c19 31 32 41 63 59v283c0 34 -3 47 -20 77c22 -3 45 -5 67 -5
c81 0 127 17 189 69c32 -21 69 -46 108 -46c40 0 85 29 119 48c28 -61 57 -122 94 -178zM523 284l-73 138l-19 -8v-186zM321 47v330c-26 9 -50 20 -73 34l-64 -14v-308c50 -10 69 -20 100 -61z" />
    <glyph glyph-name="germandbls" unicode="&#xdf;" horiz-adv-x="481" 
d="M454 145c0 -122 -84 -193 -195 -223l-7 16c73 29 102 86 102 162c0 50 -18 106 -40 151c-30 -2 -59 -3 -89 -4l-7 12c56 53 110 110 153 174c-20 -14 -43 -24 -68 -24c-40 0 -83 21 -113 47v-375c23 -7 46 -18 67 -31l33 27l13 -19c-39 -34 -79 -69 -114 -108
c-37 28 -103 67 -150 67c-7 0 -14 -1 -21 -3l-4 5c18 21 42 42 66 56v315c-20 0 -40 -2 -59 -6c2 14 3 27 3 41s-1 27 -3 41c19 -4 39 -6 59 -6v56c0 39 -4 65 -18 83c83 12 163 43 216 111c22 -25 57 -56 92 -56c5 0 11 1 16 3l6 -8c-25 -34 -65 -60 -109 -60
c-29 0 -50 9 -72 28l-21 -10v-142c42 11 77 31 109 59c21 -21 43 -40 74 -40c25 0 48 13 61 35l19 -4c-33 -73 -89 -145 -144 -203c32 0 64 1 95 6c30 -52 50 -113 50 -173z" />
    <glyph glyph-name="onesuperior" unicode="&#xb9;" horiz-adv-x="333" 
d="M287 276l-76 -72c-34 22 -63 34 -104 34c-19 0 -28 -2 -45 -11l-5 5c21 34 40 48 76 63v214c0 47 -5 66 -55 68v13c42 11 81 22 116 43c19 -20 26 -30 26 -91v-246c15 -5 28 -12 42 -21l13 10z" />
    <glyph glyph-name="logicalnot" unicode="&#xac;" horiz-adv-x="556" 
d="M542 354c-7 -13 -13 -25 -13 -41v-163c0 -16 2 -27 10 -41c-5 1 -11 3 -15 3c-27 0 -54 -8 -79 -19c6 16 8 28 8 45v134h-388c-19 0 -26 -2 -43 -11c9 20 17 50 17 72c0 7 -2 14 -4 21c13 -3 26 -6 40 -6h434c12 0 22 3 33 6z" />
    <glyph glyph-name="mu" unicode="&#xb5;" 
d="M502 47l-87 -92c-29 9 -49 18 -70 41c-22 23 -26 38 -29 69c-36 -26 -72 -53 -106 -82c-7 7 -15 12 -25 14v-94c0 -35 5 -56 25 -85c-9 1 -17 2 -26 2c-46 0 -99 -34 -138 -57l-3 5c16 20 22 32 26 58c4 28 5 56 5 84v404c0 49 -13 61 -61 66l-3 6c38 33 74 64 104 105
c45 -23 71 -48 71 -101v-301c32 -7 48 -11 75 -32l56 41v260l-28 25l-26 -15l-13 19c45 30 86 64 125 102c18 -29 44 -62 82 -62c13 0 20 2 30 10l5 -4c-16 -35 -33 -53 -65 -74v-234c0 -57 18 -72 74 -73z" />
    <glyph glyph-name="trademark" unicode="&#x2122;" horiz-adv-x="1185" 
d="M1030 305c-31 2 -63 4 -94 4c-32 0 -65 -2 -97 -4v19c49 11 54 7 54 64c0 79 -3 159 -4 238l-141 -309h-18c-30 65 -61 129 -92 193c-19 39 -39 78 -56 118c-2 -75 -7 -150 -7 -225c0 -64 13 -76 77 -78v-20c-31 2 -61 4 -92 4c-30 0 -59 -2 -89 -4v20c30 2 64 11 67 46
l12 142c4 50 10 100 10 150c0 25 -53 32 -72 36v16c22 -1 44 -2 66 -2c23 0 45 1 68 2c45 -101 93 -202 143 -301l137 301c21 -1 41 -2 62 -2s43 1 64 2v-23c-16 -1 -57 -3 -67 -16c-3 -4 -3 -9 -3 -13c0 -47 -1 -289 11 -314c10 -21 42 -21 61 -27v-17zM442 731
c-4 -34 -6 -68 -8 -102l-13 -6c-8 25 -12 43 -24 52c-13 10 -37 11 -58 11h-63c-2 -77 -2 -154 -2 -230c0 -53 3 -106 11 -111c12 -8 21 -10 61 -18v-20c-37 4 -74 5 -111 5c-33 0 -66 -1 -99 -5v20c28 4 48 8 57 18c13 13 12 96 12 138c0 67 0 135 -1 203h-48
c-21 0 -37 -1 -51 -8c-20 -10 -30 -24 -62 -55l-10 9c15 38 27 72 41 108h10c12 -19 22 -25 44 -25h237c32 0 44 3 68 24z" />
    <glyph glyph-name="Eth" unicode="&#xd0;" horiz-adv-x="648" 
d="M613 50c-102 -8 -173 -29 -245 -105c-56 38 -108 50 -175 50c-56 0 -103 -7 -148 -43l-11 9c53 93 136 127 241 141v214h-47v-72c0 -88 -25 -122 -123 -169l-10 7c17 18 17 51 17 74c0 53 -2 107 -3 160c-27 -1 -53 -3 -79 -6c2 14 4 28 4 43c0 22 -2 43 -7 64
c17 -2 35 -5 53 -5c10 0 21 1 32 1c1 106 34 126 126 170l8 -6c-16 -27 -18 -37 -18 -68v-96h47v187c-24 -1 -48 -1 -72 -1c-61 0 -189 2 -189 90c0 10 2 20 4 29c29 -6 58 -11 88 -11c94 0 188 14 282 14c64 0 154 -17 192 -75c11 -17 13 -41 13 -61v-481
c0 -25 4 -35 20 -54zM477 55v483c0 53 -22 68 -73 68c-33 0 -66 -1 -99 -4v-189c25 1 48 3 73 8c-2 -23 -4 -45 -4 -68c0 -14 0 -28 2 -41c-23 2 -47 3 -71 4v-213c63 -6 106 -25 162 -51z" />
    <glyph glyph-name="onehalf" unicode="&#xbd;" horiz-adv-x="889" 
d="M858 30c-23 -22 -44 -44 -64 -68c-40 24 -70 34 -117 34s-73 -11 -114 -33l-4 6c20 39 -3 133 24 169c15 20 48 30 71 39c20 8 68 22 78 43c4 8 4 17 4 29v83l-11 3c-24 -24 -42 -44 -78 -44c-44 0 -69 32 -90 67l8 4c12 -6 20 -8 33 -8c26 0 53 13 70 33
c66 -42 92 -43 169 -44c-11 -15 -14 -20 -14 -54v-51c0 -22 2 -34 14 -45c-54 -7 -105 -17 -162 -35c-60 -19 -68 -43 -68 -93c0 -22 -1 -42 -4 -59c30 33 63 63 123 63c46 0 72 -14 108 -41l14 12zM754 660c-49 -35 -87 -69 -125 -117l-403 -501c-6 -8 -23 -28 -23 -39
c0 -3 2 -6 4 -9l-113 -28c37 30 69 62 99 99l440 547c4 5 8 10 9 16c0 2 0 5 -1 7zM317 308l-76 -71c-34 22 -63 34 -104 34c-19 0 -29 -3 -46 -11l-5 4c22 33 40 48 77 63v214c0 48 -5 66 -56 68v14c41 9 81 22 117 42c22 -24 25 -42 25 -91v-245c16 -5 29 -12 43 -21
l12 10z" />
    <glyph glyph-name="plusminus" unicode="&#xb1;" horiz-adv-x="556" 
d="M542 325c-9 -22 -14 -50 -14 -74c0 -6 1 -11 2 -17c-10 4 -16 6 -27 6h-180v-131c0 -15 3 -23 10 -35c-12 5 -19 6 -32 6c-24 0 -40 -6 -61 -15c4 14 7 25 7 40v135h-180c-13 0 -26 -2 -38 -6c7 18 14 46 14 65c0 6 -1 11 -3 17c7 0 15 -1 22 -1h185v143
c0 10 -1 19 -7 28c8 -3 17 -6 26 -6c23 0 42 6 62 16c-3 -10 -5 -15 -5 -25v-156h179c16 0 26 3 40 10zM541 51c-13 -24 -17 -51 -17 -78c0 -5 1 -10 3 -14c-9 4 -17 7 -27 7h-445c-11 0 -21 -1 -32 -5c10 18 16 46 16 67c0 6 -2 12 -4 17c11 -2 22 -4 34 -4h437
c13 0 23 4 35 10z" />
    <glyph glyph-name="Thorn" unicode="&#xde;" horiz-adv-x="667" 
d="M641 592c-3 -5 -7 -10 -11 -14c-5 -7 -35 -33 -35 -33v-376c0 -22 1 -43 1 -65c0 -37 5 -53 20 -68c-14 1 -27 3 -41 3c-42 0 -87 -14 -122 -36c-24 -15 -44 -36 -64 -56c-14 17 -28 30 -46 43v-191h-18c-40 0 -56 18 -76 50c-27 -36 -55 -53 -100 -53
c-88 0 -117 67 -119 145h21c3 -32 14 -62 51 -62c12 0 23 3 32 12c13 13 14 25 14 59v162c-44 -19 -63 -39 -78 -84h-14c-1 9 -1 18 -1 27c0 70 35 115 93 151v157h-22c-27 0 -46 -5 -50 -34c-24 14 -34 38 -34 65c0 25 12 52 34 65c21 12 49 12 72 14v59c0 37 4 96 -49 96
c-38 0 -46 -31 -53 -63l-19 -1c-1 10 -2 20 -2 30c0 72 53 125 125 125c27 0 70 -13 89 -40c17 -24 23 -50 23 -141v-42l53 30v-35l-53 -31v-509c0 -77 11 -105 53 -124v891l28 1v-179c59 37 115 75 171 116c27 -23 61 -59 99 -59c8 0 16 3 24 4zM478 404v123
c-20 8 -40 17 -59 27l-76 -49v-100c22 -6 41 -10 64 -10c24 0 47 4 71 9zM478 376c-23 -6 -44 -10 -68 -10c-23 0 -45 4 -67 8v-136c23 5 46 8 70 8c22 0 42 -3 64 -7zM478 58v150c-22 6 -44 10 -67 10s-45 -5 -68 -10v-72c55 -22 82 -43 128 -81z" />
    <glyph glyph-name="onequarter" unicode="&#xbc;" horiz-adv-x="889" 
d="M801 28c-32 -21 -59 -38 -83 -66c-26 18 -51 30 -83 30c-16 0 -24 -2 -39 -8l-5 4c17 30 35 45 67 58v44h-190c6 5 10 12 10 27v27c0 16 -1 20 -11 32c22 17 50 38 73 61c50 50 99 100 146 153c40 -33 61 -41 74 -41c5 0 11 1 16 2l3 -3c-8 -20 -16 -32 -34 -39v-189h14
c20 0 28 6 42 20v-72c-21 19 -28 22 -56 22v-44c10 -3 19 -7 28 -12l15 5zM739 660c-42 -28 -84 -68 -124 -117l-403 -501c-6 -8 -23 -28 -23 -39c0 -4 1 -6 3 -9l-112 -28c36 30 68 62 98 99l441 547c8 10 8 12 8 23zM302 308l-76 -71c-34 22 -63 34 -104 34
c-19 0 -28 -2 -45 -11l-5 4c21 34 40 48 76 63v214c0 48 -5 66 -56 68l1 14c41 9 80 22 116 42c23 -21 25 -38 25 -91v-245c16 -5 29 -12 43 -21l13 10zM658 120v199c-32 -34 -65 -68 -99 -100v-99h99z" />
    <glyph glyph-name="divide" unicode="&#xf7;" horiz-adv-x="556" 
d="M356 391l-75 -74l-76 76l77 73zM541 277c-11 -22 -16 -48 -16 -72c0 -7 1 -15 2 -22c-8 4 -16 8 -25 8h-445c-11 0 -23 -1 -35 -2c10 18 17 45 17 65c0 7 -3 13 -5 19c13 -3 27 -6 41 -6h433c14 0 21 3 33 10zM355 66l-75 -74l-75 77l76 74z" />
    <glyph glyph-name="brokenbar" unicode="&#xa6;" horiz-adv-x="241" 
d="M159 325h-77v350h77v-350zM159 -175h-77v350h77v-350z" />
    <glyph glyph-name="degree" unicode="&#xb0;" horiz-adv-x="444" 
d="M372 595c0 -77 -62 -140 -139 -140s-140 63 -140 140s63 139 140 139s139 -62 139 -139zM339 593c0 58 -48 106 -106 106s-106 -48 -106 -106s48 -105 106 -105s106 47 106 105z" />
    <glyph glyph-name="thorn" unicode="&#xfe;" horiz-adv-x="519" 
d="M507 425c-12 -34 -32 -47 -61 -67v-258c0 -43 4 -61 20 -82c-77 -2 -160 -26 -220 -75c-17 25 -24 34 -49 51v-91c0 -35 5 -56 25 -85c-8 1 -17 2 -25 2c-50 0 -98 -32 -139 -57l-3 5c16 21 22 32 26 58c5 30 5 60 5 90v99c-32 -4 -48 -8 -73 -29l-8 3c14 50 42 67 81 99
v482c0 30 -6 45 -23 70c46 2 82 8 155 63l5 -2c-20 -30 -26 -69 -26 -106v-247c67 40 128 94 191 145c17 -33 39 -74 82 -74c13 0 22 4 33 10zM335 23v331l-43 26c-32 -22 -64 -45 -95 -68v-212c62 -18 81 -31 119 -83z" />
    <glyph glyph-name="threequarters" unicode="&#xbe;" horiz-adv-x="889" 
d="M831 28c-29 -22 -59 -38 -83 -66c-26 18 -51 30 -83 30c-15 0 -24 -2 -38 -8l-5 4c17 30 34 45 66 58v44h-189c8 8 10 18 10 29l-1 25c0 16 -1 20 -11 32c42 25 168 156 219 214c17 -14 50 -41 74 -41c6 0 11 1 17 2l2 -3c-8 -20 -16 -31 -33 -39v-189h13
c20 0 28 6 42 20v-72c-21 19 -27 22 -55 22v-44c10 -3 18 -7 27 -12l15 5zM792 660c-50 -37 -79 -61 -124 -117l-403 -501c-6 -7 -23 -29 -23 -38c0 -3 2 -7 3 -10l-112 -28c36 31 68 62 98 99l441 547c6 7 8 14 8 23zM324 247c-16 2 -32 3 -49 3c-55 0 -85 -12 -129 -44
c-21 18 -43 28 -71 28c-20 0 -34 -6 -51 -16l-4 7c26 41 69 74 119 74c30 0 56 -12 78 -33l7 1v128c-20 6 -50 16 -70 16c-11 0 -25 -11 -34 -17v56c8 -3 21 -10 29 -10c22 0 54 14 75 21v110l-12 4c-23 -18 -42 -30 -72 -30c-41 0 -71 23 -92 56l10 5c8 -2 16 -4 24 -4
c27 0 43 13 62 31c44 -36 69 -43 126 -43c18 0 34 2 51 6c-7 -11 -10 -18 -10 -32v-73c0 -17 -2 -29 12 -41c-45 -3 -91 -10 -134 -24c45 -11 87 -14 133 -14c-9 -11 -11 -19 -11 -33v-82c0 -21 0 -33 13 -50zM688 120v199c-32 -34 -65 -67 -98 -100v-99h98z" />
    <glyph glyph-name="twosuperior" unicode="&#xb2;" horiz-adv-x="333" 
d="M326 275c-23 -22 -44 -44 -64 -68c-40 24 -70 34 -117 34s-73 -11 -114 -33l-4 6c20 39 -3 133 24 169c15 20 48 30 71 39c20 8 68 22 78 43c4 8 4 17 4 29v83l-11 3c-24 -24 -42 -44 -78 -44c-44 0 -69 32 -90 67l8 4c12 -6 20 -8 33 -8c27 0 53 13 70 33
c66 -42 92 -43 169 -44c-11 -15 -14 -20 -14 -54v-51c0 -22 2 -34 14 -45c-54 -7 -105 -17 -162 -35c-60 -19 -68 -43 -68 -93c0 -22 -1 -42 -4 -59c30 33 63 63 123 63c46 0 72 -14 108 -41l14 12z" />
    <glyph glyph-name="registered" unicode="&#xae;" horiz-adv-x="1000" 
d="M894 348c0 -218 -176 -394 -394 -394c-217 0 -393 177 -393 394s176 393 393 393s394 -176 394 -393zM841 348c0 188 -154 340 -341 340s-340 -153 -340 -340s152 -341 340 -341s341 153 341 341zM736 129c-21 2 -41 1 -62 1s-43 1 -64 -1c-43 74 -88 147 -135 218h-39
l2 -180l74 -20v-18c-37 1 -73 1 -110 1s-73 -1 -110 -2v19l70 14c0 65 1 129 1 194c0 63 -1 126 -1 189l-66 13v19c29 0 58 -1 87 -1c47 0 93 5 140 5c69 0 125 -40 125 -113c0 -61 -39 -94 -94 -111l84 -134c26 -42 49 -63 98 -74v-19zM573 463c0 54 -32 90 -87 90
c-16 0 -32 -3 -48 -5c-1 -46 -2 -92 -2 -138v-35c12 0 25 -1 37 -1c59 0 100 26 100 89z" />
    <glyph glyph-name="minus" unicode="&#x2212;" horiz-adv-x="556" 
d="M544 276c-12 -29 -18 -61 -15 -92c-11 5 -18 7 -30 7h-440c-11 0 -22 -1 -33 -3c12 21 15 45 15 69c0 6 -2 11 -4 16c13 -3 26 -6 39 -6h432c17 0 21 1 36 9z" />
    <glyph glyph-name="eth" unicode="&#xf0;" 
d="M458 423c-22 -26 -23 -33 -23 -66v-251c0 -58 6 -72 20 -93c-30 9 -41 13 -73 13c-77 0 -110 -20 -171 -77c-38 40 -73 75 -132 75c-22 0 -38 -6 -58 -15l-4 6c17 33 31 44 60 66v265c0 37 -3 46 -26 75c10 -1 21 -2 31 -2c64 0 109 17 164 46c-25 26 -52 52 -78 77
l-52 -26c-15 -7 -28 -17 -41 -28c-15 22 -35 28 -57 40c20 7 40 15 59 25l53 27c-34 35 -71 66 -107 98c63 5 85 11 143 34c13 -34 36 -57 61 -83l47 24c15 7 28 16 40 26c9 -21 34 -29 54 -38c-15 -4 -33 -12 -51 -22l-53 -28c37 -43 80 -82 122 -120c26 -23 39 -36 72 -48
zM325 54v333c-22 17 -40 35 -58 56l-82 -40v-307c49 -4 74 -18 110 -51z" />
    <glyph glyph-name="multiply" unicode="&#xd7;" horiz-adv-x="556" 
d="M528 401c-19 -6 -29 -11 -42 -25l-150 -150l150 -153c13 -13 20 -19 37 -27c-27 -6 -58 -25 -71 -51c-8 12 -16 24 -26 33l-144 146l-145 -147c-11 -12 -17 -18 -22 -31c-20 26 -35 37 -74 49c24 14 46 35 67 57l123 124l-150 151c-12 13 -23 19 -40 23c26 9 60 33 76 55
c4 -8 9 -16 15 -23l151 -154l143 141c11 11 17 20 23 34c21 -28 44 -45 79 -52z" />
    <glyph glyph-name="threesuperior" unicode="&#xb3;" horiz-adv-x="333" 
d="M315 247c-16 2 -32 3 -49 3c-55 0 -84 -12 -128 -44c-21 18 -43 28 -71 28c-20 0 -35 -6 -52 -16l-4 7c27 41 68 74 119 74c30 0 56 -12 78 -33l8 1v128c-16 5 -55 16 -70 16c-12 0 -28 -13 -35 -17v56c8 -3 22 -10 30 -10c16 0 55 15 75 21v110l-13 4
c-23 -18 -41 -30 -71 -30c-40 0 -72 23 -93 56l10 5c8 -2 16 -4 25 -4c26 0 43 14 61 31c10 -7 19 -14 29 -21c28 -21 63 -22 97 -22c18 0 33 2 51 6c-7 -12 -9 -19 -9 -32v-73c0 -25 3 -35 11 -41c-39 -4 -92 -10 -134 -24c37 -10 87 -14 134 -14c-10 -11 -11 -18 -11 -33
v-82c0 -20 2 -35 12 -50z" />
    <glyph glyph-name="copyright" unicode="&#xa9;" horiz-adv-x="1000" 
d="M894 348c0 -218 -176 -394 -394 -394c-217 0 -393 177 -393 394s176 393 393 393s394 -176 394 -393zM841 348c0 188 -154 340 -341 340s-340 -153 -340 -340s152 -341 340 -341s341 153 341 341zM694 219l-18 -71c-43 -24 -86 -30 -135 -30c-140 0 -272 76 -272 230
c0 146 111 233 251 233c49 0 110 -9 155 -29c2 -26 4 -51 7 -77l-14 -4c-36 50 -77 82 -141 82c-118 0 -167 -95 -167 -201c0 -109 66 -204 182 -204c61 0 106 28 140 77z" />
    <glyph glyph-name="Aacute" unicode="&#xc1;" horiz-adv-x="778" 
d="M558 915c-60 -23 -168 -86 -213 -132c-12 32 -33 70 -55 95c60 23 168 86 213 132c11 -32 33 -70 55 -95zM782 90c-34 -43 -65 -91 -89 -140c-77 6 -102 67 -130 142l-50 134h-254l-48 -113c51 0 100 -9 146 -33l17 18l18 -15c-39 -42 -75 -87 -110 -133
c-41 40 -94 58 -151 58c-45 0 -79 -12 -113 -40l-10 6c33 58 104 127 173 134l131 310c-11 26 -35 40 -63 40c-32 0 -55 -13 -74 -38l-8 4c5 71 57 139 132 139c24 0 46 -9 65 -23l17 39c-16 40 -57 46 -95 46c-36 0 -65 -12 -91 -37l-8 4c34 79 95 138 185 138
c61 0 87 -25 107 -80l173 -462c15 -41 32 -98 85 -98c13 0 25 3 37 8zM475 331l-79 217l-93 -217h172z" />
    <glyph glyph-name="Acircumflex" unicode="&#xc2;" horiz-adv-x="778" 
d="M573 847c-21 -21 -41 -44 -60 -67c-30 35 -64 67 -100 95c-36 -28 -70 -60 -100 -95c-19 23 -39 46 -60 67c59 44 110 99 160 153c50 -54 101 -109 160 -153zM782 90c-34 -43 -65 -91 -89 -140c-77 6 -102 67 -130 142l-50 134h-254l-48 -113c51 0 100 -9 146 -33l17 18
l18 -15c-39 -42 -75 -87 -110 -133c-41 40 -94 58 -151 58c-45 0 -79 -12 -113 -40l-10 6c33 58 104 127 173 134l131 310c-11 26 -35 40 -63 40c-32 0 -55 -13 -74 -38l-8 4c5 71 57 139 132 139c24 0 46 -9 65 -23l17 39c-16 40 -57 46 -95 46c-36 0 -65 -12 -91 -37l-8 4
c34 79 95 138 185 138c61 0 87 -25 107 -80l173 -462c15 -41 32 -98 85 -98c13 0 25 3 37 8zM475 331l-79 217l-93 -217h172z" />
    <glyph glyph-name="Adieresis" unicode="&#xc4;" horiz-adv-x="778" 
d="M598 869c-32 -27 -62 -57 -89 -89c-27 32 -57 62 -89 89c32 27 62 57 89 89c27 -32 57 -62 89 -89zM366 869c-32 -27 -62 -57 -89 -89c-27 32 -57 62 -89 89c32 27 62 57 89 89c27 -32 57 -62 89 -89zM782 90c-34 -43 -65 -91 -89 -140c-77 6 -102 67 -130 142l-50 134
h-254l-48 -113c51 0 100 -9 146 -33l17 18l18 -15c-39 -42 -75 -87 -110 -133c-41 40 -94 58 -151 58c-45 0 -79 -12 -113 -40l-10 6c33 58 104 127 173 134l131 310c-11 26 -35 40 -63 40c-32 0 -55 -13 -74 -38l-8 4c5 71 57 139 132 139c24 0 46 -9 65 -23l17 39
c-16 40 -57 46 -95 46c-36 0 -65 -12 -91 -37l-8 4c34 79 95 138 185 138c61 0 87 -25 107 -80l173 -462c15 -41 32 -98 85 -98c13 0 25 3 37 8zM475 331l-79 217l-93 -217h172z" />
    <glyph glyph-name="Agrave" unicode="&#xc0;" horiz-adv-x="778" 
d="M528 875c-22 -25 -43 -63 -55 -95c-45 46 -153 108 -213 132c22 25 43 63 55 95c45 -46 153 -109 213 -132zM782 90c-34 -43 -65 -91 -89 -140c-77 6 -102 67 -130 142l-50 134h-254l-48 -113c51 0 100 -9 146 -33l17 18l18 -15c-39 -42 -75 -87 -110 -133
c-41 40 -94 58 -151 58c-45 0 -79 -12 -113 -40l-10 6c33 58 104 127 173 134l131 310c-11 26 -35 40 -63 40c-32 0 -55 -13 -74 -38l-8 4c5 71 57 139 132 139c24 0 46 -9 65 -23l17 39c-16 40 -57 46 -95 46c-36 0 -65 -12 -91 -37l-8 4c34 79 95 138 185 138
c61 0 87 -25 107 -80l173 -462c15 -41 32 -98 85 -98c13 0 25 3 37 8zM475 331l-79 217l-93 -217h172z" />
    <glyph glyph-name="Aring" unicode="&#xc5;" horiz-adv-x="778" 
d="M504 900c0 -63 -52 -116 -115 -116c-64 0 -117 52 -117 115c0 64 53 116 116 116s116 -52 116 -115zM782 90c-34 -43 -65 -91 -89 -140c-77 6 -102 67 -130 142l-50 134h-254l-48 -113c51 0 100 -9 146 -33l17 18l18 -15c-39 -42 -75 -87 -110 -133
c-41 40 -94 58 -151 58c-45 0 -79 -12 -113 -40l-10 6c33 58 104 127 173 134l131 310c-11 26 -35 40 -63 40c-32 0 -55 -13 -74 -38l-8 4c5 71 57 139 132 139c24 0 46 -9 65 -23l17 39c-16 40 -57 46 -95 46c-36 0 -65 -12 -91 -37l-8 4c34 79 95 138 185 138
c61 0 87 -25 107 -80l173 -462c15 -41 32 -98 85 -98c13 0 25 3 37 8zM476 900h1c0 49 -40 88 -88 88c-49 0 -90 -39 -90 -88s41 -89 89 -89c50 0 88 40 88 89zM475 331l-79 217l-93 -217h172z" />
    <glyph glyph-name="Atilde" unicode="&#xc3;" horiz-adv-x="778" 
d="M562 905c-15 -33 -24 -69 -29 -105c-23 -10 -50 -14 -75 -14c-50 0 -93 29 -143 29c-30 0 -48 -8 -72 -25c12 34 17 70 20 105c21 9 44 15 67 15c53 0 102 -29 155 -29c27 0 53 13 77 24zM782 90c-34 -43 -65 -91 -89 -140c-77 6 -102 67 -130 142l-50 134h-254l-48 -113
c51 0 100 -9 146 -33l17 18l18 -15c-39 -42 -75 -87 -110 -133c-41 40 -94 58 -151 58c-45 0 -79 -12 -113 -40l-10 6c33 58 104 127 173 134l131 310c-11 26 -35 40 -63 40c-32 0 -55 -13 -74 -38l-8 4c5 71 57 139 132 139c24 0 46 -9 65 -23l17 39c-16 40 -57 46 -95 46
c-36 0 -65 -12 -91 -37l-8 4c34 79 95 138 185 138c61 0 87 -25 107 -80l173 -462c15 -41 32 -98 85 -98c13 0 25 3 37 8zM475 331l-79 217l-93 -217h172z" />
    <glyph glyph-name="Ccedilla" unicode="&#xc7;" horiz-adv-x="704" 
d="M714 166c-72 -123 -175 -210 -324 -210c-219 0 -348 148 -348 362c0 184 112 337 277 412l9 -14c-117 -84 -168 -194 -168 -337c0 -183 94 -323 289 -323c32 0 64 4 94 13v540c-31 6 -63 23 -86 44l-8 -3v-339c0 -111 -27 -148 -132 -184l-8 6c18 26 22 42 22 90v361
l-62 -31l-10 22c98 49 194 102 287 161c23 -30 62 -62 102 -62c13 0 26 4 38 9l5 -7c-30 -36 -73 -62 -120 -67v-529c51 19 96 57 133 96zM450 -144c0 -67 -65 -112 -127 -114v10c23 7 32 26 32 49c0 25 -22 50 -40 66c28 23 56 47 81 73c32 -17 54 -47 54 -84z" />
    <glyph glyph-name="Eacute" unicode="&#xc9;" horiz-adv-x="648" 
d="M548 915c-60 -23 -168 -86 -213 -132c-12 32 -33 70 -55 95c60 23 168 86 213 132c11 -32 33 -70 55 -95zM360 715c-28 -42 -73 -110 -129 -110c-50 0 -106 15 -150 15c-28 0 -40 -5 -59 -26l-9 4c27 67 75 132 154 132c50 0 108 -25 145 -25c14 0 29 7 40 16zM648 691
c-31 -45 -57 -93 -85 -140l-20 12l13 21c-29 27 -71 46 -108 46c-78 0 -112 -45 -112 -120v-159c30 45 76 90 134 90c38 0 75 -11 107 -30l14 20l20 -12c-35 -52 -69 -105 -100 -160l-20 12l15 26c-28 25 -64 44 -103 44c-25 0 -48 -10 -67 -26v-196c20 4 41 7 62 7
c69 0 145 -18 208 -48l16 25l20 -12c-29 -46 -55 -93 -79 -141c-85 33 -182 56 -273 56c-69 0 -128 -7 -187 -46l-11 11c53 65 134 119 216 140v403c0 81 38 160 112 197c22 12 47 19 72 19c45 0 89 -17 126 -41l10 14zM278 578c-15 -20 -18 -43 -18 -77v-262
c0 -49 -4 -74 -18 -96c-25 -41 -72 -67 -113 -89l-9 9c17 14 22 40 22 80v145h-21c-28 0 -49 -4 -56 -35c-28 15 -42 44 -42 75c0 53 47 80 95 80h24v25c0 74 70 121 128 153z" />
    <glyph glyph-name="Ecircumflex" unicode="&#xca;" horiz-adv-x="648" 
d="M500 847c-21 -21 -41 -44 -60 -67c-30 35 -64 67 -100 95c-36 -28 -70 -60 -100 -95c-19 23 -39 46 -60 67c59 44 110 99 160 153c50 -54 101 -109 160 -153zM360 715c-28 -42 -73 -110 -129 -110c-50 0 -106 15 -150 15c-28 0 -40 -5 -59 -26l-9 4c27 67 75 132 154 132
c50 0 108 -25 145 -25c14 0 29 7 40 16zM648 691c-31 -45 -57 -93 -85 -140l-20 12l13 21c-29 27 -71 46 -108 46c-78 0 -112 -45 -112 -120v-159c30 45 76 90 134 90c38 0 75 -11 107 -30l14 20l20 -12c-35 -52 -69 -105 -100 -160l-20 12l15 26c-28 25 -64 44 -103 44
c-25 0 -48 -10 -67 -26v-196c20 4 41 7 62 7c69 0 145 -18 208 -48l16 25l20 -12c-29 -46 -55 -93 -79 -141c-85 33 -182 56 -273 56c-69 0 -128 -7 -187 -46l-11 11c53 65 134 119 216 140v403c0 81 38 160 112 197c22 12 47 19 72 19c45 0 89 -17 126 -41l10 14zM278 578
c-15 -20 -18 -43 -18 -77v-262c0 -49 -4 -74 -18 -96c-25 -41 -72 -67 -113 -89l-9 9c17 14 22 40 22 80v145h-21c-28 0 -49 -4 -56 -35c-28 15 -42 44 -42 75c0 53 47 80 95 80h24v25c0 74 70 121 128 153z" />
    <glyph glyph-name="Edieresis" unicode="&#xcb;" horiz-adv-x="648" 
d="M568 869c-32 -27 -62 -57 -89 -89c-27 32 -57 62 -89 89c32 27 62 57 89 89c27 -32 57 -62 89 -89zM336 869c-32 -27 -62 -57 -89 -89c-27 32 -57 62 -89 89c32 27 62 57 89 89c27 -32 57 -62 89 -89zM360 715c-28 -42 -73 -110 -129 -110c-50 0 -106 15 -150 15
c-28 0 -40 -5 -59 -26l-9 4c27 67 75 132 154 132c50 0 108 -25 145 -25c14 0 29 7 40 16zM648 691c-31 -45 -57 -93 -85 -140l-20 12l13 21c-29 27 -71 46 -108 46c-78 0 -112 -45 -112 -120v-159c30 45 76 90 134 90c38 0 75 -11 107 -30l14 20l20 -12
c-35 -52 -69 -105 -100 -160l-20 12l15 26c-28 25 -64 44 -103 44c-25 0 -48 -10 -67 -26v-196c20 4 41 7 62 7c69 0 145 -18 208 -48l16 25l20 -12c-29 -46 -55 -93 -79 -141c-85 33 -182 56 -273 56c-69 0 -128 -7 -187 -46l-11 11c53 65 134 119 216 140v403
c0 81 38 160 112 197c22 12 47 19 72 19c45 0 89 -17 126 -41l10 14zM278 578c-15 -20 -18 -43 -18 -77v-262c0 -49 -4 -74 -18 -96c-25 -41 -72 -67 -113 -89l-9 9c17 14 22 40 22 80v145h-21c-28 0 -49 -4 -56 -35c-28 15 -42 44 -42 75c0 53 47 80 95 80h24v25
c0 74 70 121 128 153z" />
    <glyph glyph-name="Egrave" unicode="&#xc8;" horiz-adv-x="648" 
d="M448 875c-22 -25 -43 -63 -55 -95c-45 46 -153 108 -213 132c22 25 43 63 55 95c45 -46 153 -109 213 -132zM360 715c-28 -42 -73 -110 -129 -110c-50 0 -106 15 -150 15c-28 0 -40 -5 -59 -26l-9 4c27 67 75 132 154 132c50 0 108 -25 145 -25c14 0 29 7 40 16zM648 691
c-31 -45 -57 -93 -85 -140l-20 12l13 21c-29 27 -71 46 -108 46c-78 0 -112 -45 -112 -120v-159c30 45 76 90 134 90c38 0 75 -11 107 -30l14 20l20 -12c-35 -52 -69 -105 -100 -160l-20 12l15 26c-28 25 -64 44 -103 44c-25 0 -48 -10 -67 -26v-196c20 4 41 7 62 7
c69 0 145 -18 208 -48l16 25l20 -12c-29 -46 -55 -93 -79 -141c-85 33 -182 56 -273 56c-69 0 -128 -7 -187 -46l-11 11c53 65 134 119 216 140v403c0 81 38 160 112 197c22 12 47 19 72 19c45 0 89 -17 126 -41l10 14zM278 578c-15 -20 -18 -43 -18 -77v-262
c0 -49 -4 -74 -18 -96c-25 -41 -72 -67 -113 -89l-9 9c17 14 22 40 22 80v145h-21c-28 0 -49 -4 -56 -35c-28 15 -42 44 -42 75c0 53 47 80 95 80h24v25c0 74 70 121 128 153z" />
    <glyph glyph-name="Iacute" unicode="&#xcd;" horiz-adv-x="593" 
d="M543 915c-60 -23 -168 -86 -213 -132c-12 32 -33 70 -55 95c60 23 168 86 213 132c11 -32 33 -70 55 -95zM445 718c-38 -57 -99 -102 -170 -102c-55 0 -115 24 -162 24c-27 0 -45 -15 -60 -36l-9 3c26 77 75 123 159 123c61 0 120 -24 181 -24c19 0 38 5 53 18zM554 716
c-23 -18 -26 -35 -26 -93v-468c0 -119 -127 -199 -236 -199c-42 0 -82 12 -121 25c-30 10 -66 25 -98 25c-27 0 -44 -13 -59 -35l-8 4c22 52 63 121 127 121c80 0 142 -100 216 -100c59 0 61 80 61 122v450c0 18 1 37 8 54c18 43 88 80 128 102zM376 612
c-11 -17 -14 -44 -14 -95v-224c0 -23 0 -50 -5 -70c-16 -59 -75 -90 -127 -114l-8 4c20 25 22 58 22 89v122h-24c-30 0 -48 -4 -51 -38c-35 8 -45 38 -45 70c0 72 65 73 120 73v37c0 18 3 39 8 51c16 41 80 77 116 99z" />
    <glyph glyph-name="Icircumflex" unicode="&#xce;" horiz-adv-x="593" 
d="M493 847c-21 -21 -41 -44 -60 -67c-30 35 -64 67 -100 95c-36 -28 -70 -60 -100 -95c-19 23 -39 46 -60 67c59 44 110 99 160 153c50 -54 101 -109 160 -153zM445 718c-38 -57 -99 -102 -170 -102c-55 0 -115 24 -162 24c-27 0 -45 -15 -60 -36l-9 3
c26 77 75 123 159 123c61 0 120 -24 181 -24c19 0 38 5 53 18zM554 716c-23 -18 -26 -35 -26 -93v-468c0 -119 -127 -199 -236 -199c-42 0 -82 12 -121 25c-30 10 -66 25 -98 25c-27 0 -44 -13 -59 -35l-8 4c22 52 63 121 127 121c80 0 142 -100 216 -100c59 0 61 80 61 122
v450c0 18 1 37 8 54c18 43 88 80 128 102zM376 612c-11 -17 -14 -44 -14 -95v-224c0 -23 0 -50 -5 -70c-16 -59 -75 -90 -127 -114l-8 4c20 25 22 58 22 89v122h-24c-30 0 -48 -4 -51 -38c-35 8 -45 38 -45 70c0 72 65 73 120 73v37c0 18 3 39 8 51c16 41 80 77 116 99z" />
    <glyph glyph-name="Idieresis" unicode="&#xcf;" horiz-adv-x="593" 
d="M548 869c-32 -27 -62 -57 -89 -89c-27 32 -57 62 -89 89c32 27 62 57 89 89c27 -32 57 -62 89 -89zM316 869c-32 -27 -62 -57 -89 -89c-27 32 -57 62 -89 89c32 27 62 57 89 89c27 -32 57 -62 89 -89zM445 718c-38 -57 -99 -102 -170 -102c-55 0 -115 24 -162 24
c-27 0 -45 -15 -60 -36l-9 3c26 77 75 123 159 123c61 0 120 -24 181 -24c19 0 38 5 53 18zM554 716c-23 -18 -26 -35 -26 -93v-468c0 -119 -127 -199 -236 -199c-42 0 -82 12 -121 25c-30 10 -66 25 -98 25c-27 0 -44 -13 -59 -35l-8 4c22 52 63 121 127 121
c80 0 142 -100 216 -100c59 0 61 80 61 122v450c0 18 1 37 8 54c18 43 88 80 128 102zM376 612c-11 -17 -14 -44 -14 -95v-224c0 -23 0 -50 -5 -70c-16 -59 -75 -90 -127 -114l-8 4c20 25 22 58 22 89v122h-24c-30 0 -48 -4 -51 -38c-35 8 -45 38 -45 70c0 72 65 73 120 73
v37c0 18 3 39 8 51c16 41 80 77 116 99z" />
    <glyph glyph-name="Igrave" unicode="&#xcc;" horiz-adv-x="593" 
d="M478 875c-22 -25 -43 -63 -55 -95c-45 46 -153 108 -213 132c22 25 43 63 55 95c45 -46 153 -109 213 -132zM445 718c-38 -57 -99 -102 -170 -102c-55 0 -115 24 -162 24c-27 0 -45 -15 -60 -36l-9 3c26 77 75 123 159 123c61 0 120 -24 181 -24c19 0 38 5 53 18z
M554 716c-23 -18 -26 -35 -26 -93v-468c0 -119 -127 -199 -236 -199c-42 0 -82 12 -121 25c-30 10 -66 25 -98 25c-27 0 -44 -13 -59 -35l-8 4c22 52 63 121 127 121c80 0 142 -100 216 -100c59 0 61 80 61 122v450c0 18 1 37 8 54c18 43 88 80 128 102zM376 612
c-11 -17 -14 -44 -14 -95v-224c0 -23 0 -50 -5 -70c-16 -59 -75 -90 -127 -114l-8 4c20 25 22 58 22 89v122h-24c-30 0 -48 -4 -51 -38c-35 8 -45 38 -45 70c0 72 65 73 120 73v37c0 18 3 39 8 51c16 41 80 77 116 99z" />
    <glyph glyph-name="Ntilde" unicode="&#xd1;" horiz-adv-x="722" 
d="M553 905c-15 -33 -24 -69 -29 -105c-23 -10 -50 -14 -75 -14c-50 0 -93 29 -143 29c-30 0 -48 -8 -72 -25c12 34 17 70 20 105c21 9 44 15 67 15c53 0 102 -29 155 -29c27 0 53 13 77 24zM734 705c-25 -43 -70 -92 -120 -103v-652c-19 7 -36 18 -51 32
c-56 53 -117 188 -150 261c-37 16 -76 25 -117 25c-34 0 -70 -6 -102 -20v-127c56 0 116 -17 161 -50l19 19l17 -12l-95 -128c-52 40 -82 56 -149 56c-52 0 -88 -10 -131 -39h-9c29 69 87 127 159 149v180h-15c-29 0 -33 -21 -34 -45c-38 13 -56 46 -56 85c0 53 42 80 91 80
h14v204c-59 -3 -100 -25 -116 -85h-10c-4 14 -6 28 -6 42c0 82 69 153 151 153c97 0 142 -62 186 -138c24 -42 46 -85 67 -128c22 -10 52 -15 76 -15s48 3 72 8v140c-36 1 -76 6 -108 23l-26 -18l-13 15c46 36 89 75 128 119c27 -21 66 -39 101 -39c20 0 39 7 56 16z
M586 165v264c-21 -6 -44 -8 -66 -8s-44 2 -65 8c37 -85 80 -189 131 -264zM394 279l-64 138c-28 60 -74 165 -136 193v-334c31 12 70 20 104 20c33 0 65 -6 96 -17z" />
    <glyph glyph-name="Oacute" unicode="&#xd3;" horiz-adv-x="833" 
d="M598 915c-60 -23 -168 -86 -213 -132c-12 32 -33 70 -55 95c60 23 168 86 213 132c11 -32 33 -70 55 -95zM790 401c0 -213 -158 -445 -387 -445c-205 0 -362 171 -362 373c0 178 109 345 281 401l8 -15c-135 -68 -159 -215 -159 -352c0 -163 38 -373 243 -373
c24 0 48 3 71 9v645l-48 -24v-402c0 -83 -52 -120 -124 -145l-10 8c13 11 16 31 16 52v442l-49 -15v28c74 22 146 51 215 84v58h28v-45c30 15 60 32 88 51c121 -71 189 -195 189 -335zM649 480c-20 65 -66 143 -122 183l-14 -6v-183c22 -5 45 -7 68 -7c22 0 47 4 68 13z
M672 332c0 40 -7 81 -16 120c-21 -8 -50 -13 -72 -13c-24 0 -48 2 -71 7v-225c23 6 47 10 71 10c26 0 53 -4 78 -13c10 37 10 76 10 114zM655 190c-23 9 -47 13 -71 13s-48 -4 -71 -10v-183c74 32 120 105 142 180z" />
    <glyph glyph-name="Ocircumflex" unicode="&#xd4;" horiz-adv-x="833" 
d="M573 847c-21 -21 -41 -44 -60 -67c-30 35 -64 67 -100 95c-36 -28 -70 -60 -100 -95c-19 23 -39 46 -60 67c59 44 110 99 160 153c50 -54 101 -109 160 -153zM790 401c0 -213 -158 -445 -387 -445c-205 0 -362 171 -362 373c0 178 109 345 281 401l8 -15
c-135 -68 -159 -215 -159 -352c0 -163 38 -373 243 -373c24 0 48 3 71 9v645l-48 -24v-402c0 -83 -52 -120 -124 -145l-10 8c13 11 16 31 16 52v442l-49 -15v28c74 22 146 51 215 84v58h28v-45c30 15 60 32 88 51c121 -71 189 -195 189 -335zM649 480
c-20 65 -66 143 -122 183l-14 -6v-183c22 -5 45 -7 68 -7c22 0 47 4 68 13zM672 332c0 40 -7 81 -16 120c-21 -8 -50 -13 -72 -13c-24 0 -48 2 -71 7v-225c23 6 47 10 71 10c26 0 53 -4 78 -13c10 37 10 76 10 114zM655 190c-23 9 -47 13 -71 13s-48 -4 -71 -10v-183
c74 32 120 105 142 180z" />
    <glyph glyph-name="Odieresis" unicode="&#xd6;" horiz-adv-x="833" 
d="M598 869c-32 -27 -62 -57 -89 -89c-27 32 -57 62 -89 89c32 27 62 57 89 89c27 -32 57 -62 89 -89zM366 869c-32 -27 -62 -57 -89 -89c-27 32 -57 62 -89 89c32 27 62 57 89 89c27 -32 57 -62 89 -89zM790 401c0 -213 -158 -445 -387 -445c-205 0 -362 171 -362 373
c0 178 109 345 281 401l8 -15c-135 -68 -159 -215 -159 -352c0 -163 38 -373 243 -373c24 0 48 3 71 9v645l-48 -24v-402c0 -83 -52 -120 -124 -145l-10 8c13 11 16 31 16 52v442l-49 -15v28c74 22 146 51 215 84v58h28v-45c30 15 60 32 88 51c121 -71 189 -195 189 -335z
M649 480c-20 65 -66 143 -122 183l-14 -6v-183c22 -5 45 -7 68 -7c22 0 47 4 68 13zM672 332c0 40 -7 81 -16 120c-21 -8 -50 -13 -72 -13c-24 0 -48 2 -71 7v-225c23 6 47 10 71 10c26 0 53 -4 78 -13c10 37 10 76 10 114zM655 190c-23 9 -47 13 -71 13s-48 -4 -71 -10
v-183c74 32 120 105 142 180z" />
    <glyph glyph-name="Ograve" unicode="&#xd2;" horiz-adv-x="833" 
d="M528 875c-22 -25 -43 -63 -55 -95c-45 46 -153 108 -213 132c22 25 43 63 55 95c45 -46 153 -109 213 -132zM790 401c0 -213 -158 -445 -387 -445c-205 0 -362 171 -362 373c0 178 109 345 281 401l8 -15c-135 -68 -159 -215 -159 -352c0 -163 38 -373 243 -373
c24 0 48 3 71 9v645l-48 -24v-402c0 -83 -52 -120 -124 -145l-10 8c13 11 16 31 16 52v442l-49 -15v28c74 22 146 51 215 84v58h28v-45c30 15 60 32 88 51c121 -71 189 -195 189 -335zM649 480c-20 65 -66 143 -122 183l-14 -6v-183c22 -5 45 -7 68 -7c22 0 47 4 68 13z
M672 332c0 40 -7 81 -16 120c-21 -8 -50 -13 -72 -13c-24 0 -48 2 -71 7v-225c23 6 47 10 71 10c26 0 53 -4 78 -13c10 37 10 76 10 114zM655 190c-23 9 -47 13 -71 13s-48 -4 -71 -10v-183c74 32 120 105 142 180z" />
    <glyph glyph-name="Otilde" unicode="&#xd5;" horiz-adv-x="833" 
d="M577 905c-15 -33 -24 -69 -29 -105c-23 -10 -50 -14 -75 -14c-50 0 -93 29 -143 29c-30 0 -48 -8 -72 -25c12 34 17 70 20 105c21 9 44 15 67 15c53 0 102 -29 155 -29c27 0 53 13 77 24zM790 401c0 -213 -158 -445 -387 -445c-205 0 -362 171 -362 373
c0 178 109 345 281 401l8 -15c-135 -68 -159 -215 -159 -352c0 -163 38 -373 243 -373c24 0 48 3 71 9v645l-48 -24v-402c0 -83 -52 -120 -124 -145l-10 8c13 11 16 31 16 52v442l-49 -15v28c74 22 146 51 215 84v58h28v-45c30 15 60 32 88 51c121 -71 189 -195 189 -335z
M649 480c-20 65 -66 143 -122 183l-14 -6v-183c22 -5 45 -7 68 -7c22 0 47 4 68 13zM672 332c0 40 -7 81 -16 120c-21 -8 -50 -13 -72 -13c-24 0 -48 2 -71 7v-225c23 6 47 10 71 10c26 0 53 -4 78 -13c10 37 10 76 10 114zM655 190c-23 9 -47 13 -71 13s-48 -4 -71 -10
v-183c74 32 120 105 142 180z" />
    <glyph glyph-name="Scaron" unicode="&#x160;" horiz-adv-x="722" 
d="M530 930c-55 -41 -113 -102 -160 -153c-47 51 -105 112 -160 153c21 21 41 44 60 67c30 -35 64 -67 100 -95c36 28 70 60 100 95c19 -23 39 -46 60 -67zM713 370c0 -104 -110 -210 -174 -292c-33 -41 -65 -83 -93 -128c-74 39 -147 70 -232 70c-75 0 -143 -22 -201 -70
l-13 12c83 103 202 153 333 153c59 0 120 -13 176 -32c42 58 114 140 114 214c0 30 -13 53 -34 67c-44 31 -122 34 -215 35l-20 -37c34 0 68 0 101 -3c47 -3 123 -11 123 -73c0 -40 -27 -87 -54 -115l-10 4c4 9 6 18 6 28c0 39 -43 53 -130 53c-31 0 -62 1 -94 1
c-17 -28 -47 -79 -81 -107c-22 -17 -49 -29 -81 -29c-34 0 -63 21 -63 57c0 34 24 58 58 58c30 0 52 -18 52 -49c0 -5 -1 -11 -2 -16c34 2 67 60 83 86c-33 1 -66 3 -99 8c-68 11 -128 32 -128 112c0 28 10 58 24 82l10 -3c0 -48 48 -69 103 -81c54 -11 116 -12 148 -13
l20 37c-78 2 -139 8 -183 26c-41 17 -65 46 -65 97c0 131 140 208 257 208c63 0 140 -23 189 -63l31 27l18 -18c-57 -46 -107 -102 -149 -162c93 -6 275 -14 275 -144zM446 575c-32 60 -96 105 -165 105c-51 0 -124 -29 -124 -89c0 -68 88 -72 137 -75c37 -2 73 -2 110 -2
c13 21 27 42 42 61z" />
    <glyph glyph-name="Uacute" unicode="&#xda;" horiz-adv-x="722" 
d="M578 915c-60 -23 -168 -86 -213 -132c-12 32 -33 70 -55 95c60 23 168 86 213 132c11 -32 33 -70 55 -95zM724 69l-90 -119c-74 19 -103 66 -111 139c-67 -40 -125 -89 -178 -139c-54 36 -112 66 -178 66c-39 0 -69 -10 -101 -32l-9 8c29 52 72 91 124 109v216h-14
c-35 0 -54 -7 -55 -46c-30 11 -41 40 -41 70c0 70 52 81 110 81v105c0 56 -12 103 -78 103c-40 0 -64 -17 -82 -52h-16c9 82 57 152 146 152c116 0 148 -86 148 -187v-432c20 -6 39 -13 58 -21v640h28v-116c67 33 127 77 186 122c28 -30 63 -65 107 -65c9 0 18 3 25 8l8 -7
c-17 -26 -41 -48 -70 -61v-481c0 -37 17 -55 54 -55c7 0 14 1 20 3zM523 463v143c-17 7 -38 17 -51 29c-28 -19 -57 -36 -87 -51v-121c22 -6 46 -10 69 -10s47 4 69 10zM523 290v145c-22 -6 -46 -10 -69 -10s-47 4 -69 10v-145c22 6 46 10 69 10s47 -4 69 -10zM523 123v139
c-22 6 -46 10 -69 10s-47 -4 -69 -10v-182c15 -7 30 -13 43 -22c30 24 63 44 95 65z" />
    <glyph glyph-name="Ucircumflex" unicode="&#xdb;" horiz-adv-x="722" 
d="M563 847c-21 -21 -41 -44 -60 -67c-30 35 -64 67 -100 95c-36 -28 -70 -60 -100 -95c-19 23 -39 46 -60 67c59 44 110 99 160 153c50 -54 101 -109 160 -153zM724 69l-90 -119c-74 19 -103 66 -111 139c-67 -40 -125 -89 -178 -139c-54 36 -112 66 -178 66
c-39 0 -69 -10 -101 -32l-9 8c29 52 72 91 124 109v216h-14c-35 0 -54 -7 -55 -46c-30 11 -41 40 -41 70c0 70 52 81 110 81v105c0 56 -12 103 -78 103c-40 0 -64 -17 -82 -52h-16c9 82 57 152 146 152c116 0 148 -86 148 -187v-432c20 -6 39 -13 58 -21v640h28v-116
c67 33 127 77 186 122c28 -30 63 -65 107 -65c9 0 18 3 25 8l8 -7c-17 -26 -41 -48 -70 -61v-481c0 -37 17 -55 54 -55c7 0 14 1 20 3zM523 463v143c-17 7 -38 17 -51 29c-28 -19 -57 -36 -87 -51v-121c22 -6 46 -10 69 -10s47 4 69 10zM523 290v145c-22 -6 -46 -10 -69 -10
s-47 4 -69 10v-145c22 6 46 10 69 10s47 -4 69 -10zM523 123v139c-22 6 -46 10 -69 10s-47 -4 -69 -10v-182c15 -7 30 -13 43 -22c30 24 63 44 95 65z" />
    <glyph glyph-name="Udieresis" unicode="&#xdc;" horiz-adv-x="722" 
d="M593 869c-32 -27 -62 -57 -89 -89c-27 32 -57 62 -89 89c32 27 62 57 89 89c27 -32 57 -62 89 -89zM361 869c-32 -27 -62 -57 -89 -89c-27 32 -57 62 -89 89c32 27 62 57 89 89c27 -32 57 -62 89 -89zM724 69l-90 -119c-74 19 -103 66 -111 139
c-67 -40 -125 -89 -178 -139c-54 36 -112 66 -178 66c-39 0 -69 -10 -101 -32l-9 8c29 52 72 91 124 109v216h-14c-35 0 -54 -7 -55 -46c-30 11 -41 40 -41 70c0 70 52 81 110 81v105c0 56 -12 103 -78 103c-40 0 -64 -17 -82 -52h-16c9 82 57 152 146 152
c116 0 148 -86 148 -187v-432c20 -6 39 -13 58 -21v640h28v-116c67 33 127 77 186 122c28 -30 63 -65 107 -65c9 0 18 3 25 8l8 -7c-17 -26 -41 -48 -70 -61v-481c0 -37 17 -55 54 -55c7 0 14 1 20 3zM523 463v143c-17 7 -38 17 -51 29c-28 -19 -57 -36 -87 -51v-121
c22 -6 46 -10 69 -10s47 4 69 10zM523 290v145c-22 -6 -46 -10 -69 -10s-47 4 -69 10v-145c22 6 46 10 69 10s47 -4 69 -10zM523 123v139c-22 6 -46 10 -69 10s-47 -4 -69 -10v-182c15 -7 30 -13 43 -22c30 24 63 44 95 65z" />
    <glyph glyph-name="Ugrave" unicode="&#xd9;" horiz-adv-x="722" 
d="M498 875c-22 -25 -43 -63 -55 -95c-45 46 -153 108 -213 132c22 25 43 63 55 95c45 -46 153 -109 213 -132zM724 69l-90 -119c-74 19 -103 66 -111 139c-67 -40 -125 -89 -178 -139c-54 36 -112 66 -178 66c-39 0 -69 -10 -101 -32l-9 8c29 52 72 91 124 109v216h-14
c-35 0 -54 -7 -55 -46c-30 11 -41 40 -41 70c0 70 52 81 110 81v105c0 56 -12 103 -78 103c-40 0 -64 -17 -82 -52h-16c9 82 57 152 146 152c116 0 148 -86 148 -187v-432c20 -6 39 -13 58 -21v640h28v-116c67 33 127 77 186 122c28 -30 63 -65 107 -65c9 0 18 3 25 8l8 -7
c-17 -26 -41 -48 -70 -61v-481c0 -37 17 -55 54 -55c7 0 14 1 20 3zM523 463v143c-17 7 -38 17 -51 29c-28 -19 -57 -36 -87 -51v-121c22 -6 46 -10 69 -10s47 4 69 10zM523 290v145c-22 -6 -46 -10 -69 -10s-47 4 -69 10v-145c22 6 46 10 69 10s47 -4 69 -10zM523 123v139
c-22 6 -46 10 -69 10s-47 -4 -69 -10v-182c15 -7 30 -13 43 -22c30 24 63 44 95 65z" />
    <glyph glyph-name="Yacute" unicode="&#xdd;" horiz-adv-x="648" 
d="M526 915c-60 -23 -168 -86 -213 -132c-12 32 -33 70 -55 95c60 23 168 86 213 132c11 -32 33 -70 55 -95zM621 661c-11 -18 -24 -35 -41 -47v-443c0 -153 -49 -190 -195 -207c-42 -5 -156 -16 -156 -75c0 -15 15 -26 29 -26c59 0 119 73 198 73c50 0 104 -32 104 -87
c0 -49 -43 -81 -89 -81c-14 0 -28 2 -42 5v23c14 -3 28 -5 42 -5c23 0 46 11 46 37c0 18 -14 28 -31 28c-66 0 -120 -88 -210 -88c-54 0 -107 36 -107 94c0 59 64 96 108 109c-117 15 -145 73 -145 184v163h-7c-30 0 -50 -8 -54 -41c-28 15 -36 52 -36 81c0 57 46 80 97 80
v131c0 32 -4 71 -45 71c-36 0 -47 -35 -50 -65h-20c2 84 27 155 124 155c102 0 109 -80 109 -161c18 11 35 23 52 36v125h28v-106c51 33 99 71 144 112c23 -29 66 -74 106 -74c11 0 22 2 33 6zM462 451v138c-25 8 -57 26 -77 43c-17 -14 -36 -26 -55 -38v-143
c21 -6 44 -10 66 -10s45 4 66 10zM462 247v176c-21 -6 -44 -10 -66 -10s-45 4 -66 10v-176c21 6 44 10 66 10s45 -4 66 -10zM302 0v575c-16 -14 -35 -23 -52 -36v-452c0 -43 8 -72 52 -87zM462 104v115c-21 6 -44 10 -66 10s-45 -4 -66 -10v-224c12 -2 24 -3 36 -3
c75 0 96 44 96 112z" />
    <glyph glyph-name="Ydieresis" unicode="&#x178;" horiz-adv-x="648" 
d="M558 869c-32 -27 -62 -57 -89 -89c-27 32 -57 62 -89 89c32 27 62 57 89 89c27 -32 57 -62 89 -89zM326 869c-32 -27 -62 -57 -89 -89c-27 32 -57 62 -89 89c32 27 62 57 89 89c27 -32 57 -62 89 -89zM621 661c-11 -18 -24 -35 -41 -47v-443c0 -153 -49 -190 -195 -207
c-42 -5 -156 -16 -156 -75c0 -15 15 -26 29 -26c59 0 119 73 198 73c50 0 104 -32 104 -87c0 -49 -43 -81 -89 -81c-14 0 -28 2 -42 5v23c14 -3 28 -5 42 -5c23 0 46 11 46 37c0 18 -14 28 -31 28c-66 0 -120 -88 -210 -88c-54 0 -107 36 -107 94c0 59 64 96 108 109
c-117 15 -145 73 -145 184v163h-7c-30 0 -50 -8 -54 -41c-28 15 -36 52 -36 81c0 57 46 80 97 80v131c0 32 -4 71 -45 71c-36 0 -47 -35 -50 -65h-20c2 84 27 155 124 155c102 0 109 -80 109 -161c18 11 35 23 52 36v125h28v-106c51 33 99 71 144 112c23 -29 66 -74 106 -74
c11 0 22 2 33 6zM462 451v138c-25 8 -57 26 -77 43c-17 -14 -36 -26 -55 -38v-143c21 -6 44 -10 66 -10s45 4 66 10zM462 247v176c-21 -6 -44 -10 -66 -10s-45 4 -66 10v-176c21 6 44 10 66 10s45 -4 66 -10zM302 0v575c-16 -14 -35 -23 -52 -36v-452c0 -43 8 -72 52 -87z
M462 104v115c-21 6 -44 10 -66 10s-45 -4 -66 -10v-224c12 -2 24 -3 36 -3c75 0 96 44 96 112z" />
    <glyph glyph-name="Zcaron" unicode="&#x17d;" horiz-adv-x="611" 
d="M500 930c-55 -41 -113 -102 -160 -153c-47 51 -105 112 -160 153c21 21 41 44 60 67c30 -35 64 -67 100 -95c36 28 70 60 100 95c19 -23 39 -46 60 -67zM602 91c-38 -44 -73 -91 -103 -141c-70 37 -149 58 -229 58c-81 0 -171 -23 -246 -53l-10 16
c107 100 156 236 219 368c-50 -4 -101 -11 -150 -24c21 34 38 71 49 110c45 -10 91 -9 137 -10c50 106 106 185 199 257c-91 -52 -161 -74 -267 -74c-43 0 -88 6 -127 23l-21 -23l-20 16c40 40 77 83 109 130c67 -35 136 -48 211 -48c73 0 142 18 208 48l11 -18
c-82 -63 -140 -215 -178 -311c56 2 112 10 167 24c-20 -36 -39 -72 -54 -110c-46 8 -93 10 -139 10c-65 -133 -124 -211 -240 -304c85 40 188 71 282 71c53 0 105 -8 156 -22l18 21z" />
    <glyph glyph-name="aacute" unicode="&#xe1;" horiz-adv-x="463" 
d="M428 665c-60 -23 -168 -86 -213 -132c-12 32 -33 70 -55 95c60 23 168 86 213 132c11 -32 33 -70 55 -95zM451 49c-25 -32 -49 -64 -70 -99c-58 2 -89 31 -101 87l-95 -87c-92 3 -159 56 -159 152c0 75 51 130 110 169l-114 128c46 20 96 55 131 91c12 -34 33 -78 75 -78
c43 0 80 46 102 78c13 -28 35 -56 69 -56c14 0 27 4 39 10c-3 -30 -25 -54 -52 -66v-247c0 -64 14 -81 46 -81c6 0 11 2 16 4zM276 53v303c-15 5 -29 14 -40 26c-24 -18 -53 -30 -83 -30c-23 0 -43 7 -63 17l160 -180l-24 -19l-74 82c-17 -23 -26 -50 -26 -78
c0 -66 44 -124 113 -124c12 0 25 2 37 3z" />
    <glyph glyph-name="acircumflex" unicode="&#xe2;" horiz-adv-x="463" 
d="M413 604c-21 -21 -41 -44 -60 -67c-30 35 -64 67 -100 95c-36 -28 -70 -60 -100 -95c-19 23 -39 46 -60 67c59 44 110 99 160 153c50 -54 101 -109 160 -153zM451 49c-25 -32 -49 -64 -70 -99c-58 2 -89 31 -101 87l-95 -87c-92 3 -159 56 -159 152c0 75 51 130 110 169
l-114 128c46 20 96 55 131 91c12 -34 33 -78 75 -78c43 0 80 46 102 78c13 -28 35 -56 69 -56c14 0 27 4 39 10c-3 -30 -25 -54 -52 -66v-247c0 -64 14 -81 46 -81c6 0 11 2 16 4zM276 53v303c-15 5 -29 14 -40 26c-24 -18 -53 -30 -83 -30c-23 0 -43 7 -63 17l160 -180
l-24 -19l-74 82c-17 -23 -26 -50 -26 -78c0 -66 44 -124 113 -124c12 0 25 2 37 3z" />
    <glyph glyph-name="adieresis" unicode="&#xe4;" horiz-adv-x="463" 
d="M444 626c-32 -27 -62 -57 -89 -89c-27 32 -57 62 -89 89c32 27 62 57 89 89c27 -32 57 -62 89 -89zM212 626c-32 -27 -62 -57 -89 -89c-27 32 -57 62 -89 89c32 27 62 57 89 89c27 -32 57 -62 89 -89zM451 49c-25 -32 -49 -64 -70 -99c-58 2 -89 31 -101 87l-95 -87
c-92 3 -159 56 -159 152c0 75 51 130 110 169l-114 128c46 20 96 55 131 91c12 -34 33 -78 75 -78c43 0 80 46 102 78c13 -28 35 -56 69 -56c14 0 27 4 39 10c-3 -30 -25 -54 -52 -66v-247c0 -64 14 -81 46 -81c6 0 11 2 16 4zM276 53v303c-15 5 -29 14 -40 26
c-24 -18 -53 -30 -83 -30c-23 0 -43 7 -63 17l160 -180l-24 -19l-74 82c-17 -23 -26 -50 -26 -78c0 -66 44 -124 113 -124c12 0 25 2 37 3z" />
    <glyph glyph-name="agrave" unicode="&#xe0;" horiz-adv-x="463" 
d="M408 628c-22 -25 -43 -63 -55 -95c-45 46 -153 108 -213 132c22 25 43 63 55 95c45 -46 153 -109 213 -132zM451 49c-25 -32 -49 -64 -70 -99c-58 2 -89 31 -101 87l-95 -87c-92 3 -159 56 -159 152c0 75 51 130 110 169l-114 128c46 20 96 55 131 91
c12 -34 33 -78 75 -78c43 0 80 46 102 78c13 -28 35 -56 69 -56c14 0 27 4 39 10c-3 -30 -25 -54 -52 -66v-247c0 -64 14 -81 46 -81c6 0 11 2 16 4zM276 53v303c-15 5 -29 14 -40 26c-24 -18 -53 -30 -83 -30c-23 0 -43 7 -63 17l160 -180l-24 -19l-74 82
c-17 -23 -26 -50 -26 -78c0 -66 44 -124 113 -124c12 0 25 2 37 3z" />
    <glyph glyph-name="aring" unicode="&#xe5;" horiz-adv-x="463" 
d="M369 650c0 -63 -52 -116 -115 -116c-64 0 -117 52 -117 115c0 64 53 116 116 116s116 -52 116 -115zM451 49c-25 -32 -49 -64 -70 -99c-58 2 -89 31 -101 87l-95 -87c-92 3 -159 56 -159 152c0 75 51 130 110 169l-114 128c46 20 96 55 131 91c12 -34 33 -78 75 -78
c43 0 80 46 102 78c13 -28 35 -56 69 -56c14 0 27 4 39 10c-3 -30 -25 -54 -52 -66v-247c0 -64 14 -81 46 -81c6 0 11 2 16 4zM341 650h1c0 49 -40 88 -88 88c-49 0 -90 -39 -90 -88s41 -89 89 -89c50 0 88 40 88 89zM276 53v303c-15 5 -29 14 -40 26
c-24 -18 -53 -30 -83 -30c-23 0 -43 7 -63 17l160 -180l-24 -19l-74 82c-17 -23 -26 -50 -26 -78c0 -66 44 -124 113 -124c12 0 25 2 37 3z" />
    <glyph glyph-name="atilde" unicode="&#xe3;" horiz-adv-x="463" 
d="M419 668c-15 -33 -24 -69 -29 -105c-23 -10 -50 -14 -75 -14c-50 0 -93 29 -143 29c-30 0 -48 -8 -72 -25c12 34 17 70 20 105c21 9 44 15 67 15c53 0 102 -29 155 -29c27 0 53 13 77 24zM451 49c-25 -32 -49 -64 -70 -99c-58 2 -89 31 -101 87l-95 -87
c-92 3 -159 56 -159 152c0 75 51 130 110 169l-114 128c46 20 96 55 131 91c12 -34 33 -78 75 -78c43 0 80 46 102 78c13 -28 35 -56 69 -56c14 0 27 4 39 10c-3 -30 -25 -54 -52 -66v-247c0 -64 14 -81 46 -81c6 0 11 2 16 4zM276 53v303c-15 5 -29 14 -40 26
c-24 -18 -53 -30 -83 -30c-23 0 -43 7 -63 17l160 -180l-24 -19l-74 82c-17 -23 -26 -50 -26 -78c0 -66 44 -124 113 -124c12 0 25 2 37 3z" />
    <glyph glyph-name="ccedilla" unicode="&#xe7;" horiz-adv-x="370" 
d="M372 438c-16 -43 -52 -77 -100 -77c-40 0 -64 21 -89 49v-322c36 -4 81 -19 112 -38l35 38l19 -17c-35 -39 -68 -80 -101 -121c-47 31 -124 67 -181 67c-13 0 -26 -3 -37 -10l-3 5c10 20 27 39 46 52v274c0 35 -2 53 -21 83c12 -1 24 -3 36 -3c57 0 121 26 156 72
c32 -41 62 -59 91 -59c13 0 25 5 35 12zM244 -144c0 -67 -65 -112 -127 -114v10c23 7 32 26 32 49c0 25 -22 50 -40 66c28 23 56 47 81 73c32 -17 54 -47 54 -84z" />
    <glyph glyph-name="eacute" unicode="&#xe9;" horiz-adv-x="389" 
d="M348 665c-60 -23 -168 -86 -213 -132c-12 32 -33 70 -55 95c60 23 168 86 213 132c11 -32 33 -70 55 -95zM379 312c-69 -38 -136 -79 -201 -123v-96c45 -3 96 -18 137 -38l30 31l18 -16c-35 -38 -68 -78 -99 -120c-53 33 -136 63 -199 63c-17 0 -34 -2 -50 -6l-3 5
c15 20 34 39 56 52v265c0 34 -1 65 -25 92c14 -2 28 -3 42 -3c57 0 147 43 197 72c25 -63 59 -122 97 -178zM269 285c-25 41 -49 84 -71 127l-20 -9v-176c29 21 60 40 91 58z" />
    <glyph glyph-name="ecircumflex" unicode="&#xea;" horiz-adv-x="389" 
d="M363 604c-21 -21 -41 -44 -60 -67c-30 35 -64 67 -100 95c-36 -28 -70 -60 -100 -95c-19 23 -39 46 -60 67c59 44 110 99 160 153c50 -54 101 -109 160 -153zM379 312c-69 -38 -136 -79 -201 -123v-96c45 -3 96 -18 137 -38l30 31l18 -16c-35 -38 -68 -78 -99 -120
c-53 33 -136 63 -199 63c-17 0 -34 -2 -50 -6l-3 5c15 20 34 39 56 52v265c0 34 -1 65 -25 92c14 -2 28 -3 42 -3c57 0 147 43 197 72c25 -63 59 -122 97 -178zM269 285c-25 41 -49 84 -71 127l-20 -9v-176c29 21 60 40 91 58z" />
    <glyph glyph-name="edieresis" unicode="&#xeb;" horiz-adv-x="389" 
d="M398 626c-32 -27 -62 -57 -89 -89c-27 32 -57 62 -89 89c32 27 62 57 89 89c27 -32 57 -62 89 -89zM166 626c-32 -27 -62 -57 -89 -89c-27 32 -57 62 -89 89c32 27 62 57 89 89c27 -32 57 -62 89 -89zM379 312c-69 -38 -136 -79 -201 -123v-96c45 -3 96 -18 137 -38
l30 31l18 -16c-35 -38 -68 -78 -99 -120c-53 33 -136 63 -199 63c-17 0 -34 -2 -50 -6l-3 5c15 20 34 39 56 52v265c0 34 -1 65 -25 92c14 -2 28 -3 42 -3c57 0 147 43 197 72c25 -63 59 -122 97 -178zM269 285c-25 41 -49 84 -71 127l-20 -9v-176c29 21 60 40 91 58z" />
    <glyph glyph-name="egrave" unicode="&#xe8;" horiz-adv-x="389" 
d="M338 628c-22 -25 -43 -63 -55 -95c-45 46 -153 108 -213 132c22 25 43 63 55 95c45 -46 153 -109 213 -132zM379 312c-69 -38 -136 -79 -201 -123v-96c45 -3 96 -18 137 -38l30 31l18 -16c-35 -38 -68 -78 -99 -120c-53 33 -136 63 -199 63c-17 0 -34 -2 -50 -6l-3 5
c15 20 34 39 56 52v265c0 34 -1 65 -25 92c14 -2 28 -3 42 -3c57 0 147 43 197 72c25 -63 59 -122 97 -178zM269 285c-25 41 -49 84 -71 127l-20 -9v-176c29 21 60 40 91 58z" />
    <glyph glyph-name="iacute" unicode="&#xed;" horiz-adv-x="278" 
d="M283 665c-60 -23 -168 -86 -213 -132c-12 32 -33 70 -55 95c60 23 168 86 213 132c11 -32 33 -70 55 -95zM270 45c-33 -30 -65 -60 -93 -95c-84 20 -96 56 -96 137v274c-11 7 -22 16 -31 25l-21 -13l-12 19c45 27 84 61 121 98c17 -26 45 -56 79 -56c12 0 23 5 33 11
l7 -5c-14 -27 -38 -61 -66 -73v-238c0 -54 12 -79 47 -79c9 0 18 1 27 3z" />
    <glyph glyph-name="icircumflex" unicode="&#xee;" horiz-adv-x="278" 
d="M303 604c-21 -21 -41 -44 -60 -67c-30 35 -64 67 -100 95c-36 -28 -70 -60 -100 -95c-19 23 -39 46 -60 67c59 44 110 99 160 153c50 -54 101 -109 160 -153zM270 45c-33 -30 -65 -60 -93 -95c-84 20 -96 56 -96 137v274c-11 7 -22 16 -31 25l-21 -13l-12 19
c45 27 84 61 121 98c17 -26 45 -56 79 -56c12 0 23 5 33 11l7 -5c-14 -27 -38 -61 -66 -73v-238c0 -54 12 -79 47 -79c9 0 18 1 27 3z" />
    <glyph glyph-name="idieresis" unicode="&#xef;" horiz-adv-x="278" 
d="M348 626c-32 -27 -62 -57 -89 -89c-27 32 -57 62 -89 89c32 27 62 57 89 89c27 -32 57 -62 89 -89zM116 626c-32 -27 -62 -57 -89 -89c-27 32 -57 62 -89 89c32 27 62 57 89 89c27 -32 57 -62 89 -89zM270 45c-33 -30 -65 -60 -93 -95c-84 20 -96 56 -96 137v274
c-11 7 -22 16 -31 25l-21 -13l-12 19c45 27 84 61 121 98c17 -26 45 -56 79 -56c12 0 23 5 33 11l7 -5c-14 -27 -38 -61 -66 -73v-238c0 -54 12 -79 47 -79c9 0 18 1 27 3z" />
    <glyph glyph-name="igrave" unicode="&#xec;" horiz-adv-x="278" 
d="M288 628c-22 -25 -43 -63 -55 -95c-45 46 -153 108 -213 132c22 25 43 63 55 95c45 -46 153 -109 213 -132zM270 45c-33 -30 -65 -60 -93 -95c-84 20 -96 56 -96 137v274c-11 7 -22 16 -31 25l-21 -13l-12 19c45 27 84 61 121 98c17 -26 45 -56 79 -56c12 0 23 5 33 11
l7 -5c-14 -27 -38 -61 -66 -73v-238c0 -54 12 -79 47 -79c9 0 18 1 27 3z" />
    <glyph glyph-name="ntilde" unicode="&#xf1;" 
d="M432 668c-15 -33 -24 -69 -29 -105c-23 -10 -50 -14 -75 -14c-50 0 -93 29 -143 29c-30 0 -48 -8 -72 -25c12 34 17 70 20 105c21 9 44 15 67 15c53 0 102 -29 155 -29c27 0 53 13 77 24zM492 58c-31 -35 -59 -67 -87 -108c-61 13 -84 37 -84 142v251
c-26 4 -54 17 -68 41c-21 -15 -42 -28 -64 -41v-263c30 -9 61 -29 84 -50c-37 -22 -70 -50 -100 -80c-27 29 -68 60 -110 60c-15 0 -30 -4 -43 -10l-5 4c15 26 37 52 64 66v241c0 46 -16 67 -63 71l-4 6c35 23 82 67 105 102c57 -18 70 -60 72 -115c56 34 110 71 159 115
c15 -30 38 -59 75 -59c18 0 33 5 45 18l5 -3c-5 -28 -19 -61 -42 -79v-248c0 -37 7 -59 37 -59c7 0 14 1 20 3z" />
    <glyph glyph-name="oacute" unicode="&#xf3;" 
d="M415 665c-60 -23 -168 -86 -213 -132c-12 32 -33 70 -55 95c60 23 168 86 213 132c11 -32 33 -70 55 -95zM481 431c-9 -25 -30 -52 -52 -68v-241c0 -49 4 -64 24 -90c-10 1 -20 2 -30 2c-89 0 -184 -24 -252 -84c-28 34 -71 64 -117 64c-15 0 -29 -4 -41 -13l-4 4
c13 25 40 50 65 62v270c0 30 -3 54 -18 81c18 -3 37 -4 55 -4c84 0 174 29 243 76c21 -31 51 -67 92 -67c11 0 24 3 32 11zM319 54v299c-29 6 -61 26 -80 49c-18 -5 -36 -10 -55 -12v-301c28 -4 70 -26 90 -46c15 5 30 8 45 11z" />
    <glyph glyph-name="ocircumflex" unicode="&#xf4;" 
d="M413 604c-21 -21 -41 -44 -60 -67c-30 35 -64 67 -100 95c-36 -28 -70 -60 -100 -95c-19 23 -39 46 -60 67c59 44 110 99 160 153c50 -54 101 -109 160 -153zM481 431c-9 -25 -30 -52 -52 -68v-241c0 -49 4 -64 24 -90c-10 1 -20 2 -30 2c-89 0 -184 -24 -252 -84
c-28 34 -71 64 -117 64c-15 0 -29 -4 -41 -13l-4 4c13 25 40 50 65 62v270c0 30 -3 54 -18 81c18 -3 37 -4 55 -4c84 0 174 29 243 76c21 -31 51 -67 92 -67c11 0 24 3 32 11zM319 54v299c-29 6 -61 26 -80 49c-18 -5 -36 -10 -55 -12v-301c28 -4 70 -26 90 -46
c15 5 30 8 45 11z" />
    <glyph glyph-name="odieresis" unicode="&#xf6;" 
d="M468 626c-32 -27 -62 -57 -89 -89c-27 32 -57 62 -89 89c32 27 62 57 89 89c27 -32 57 -62 89 -89zM236 626c-32 -27 -62 -57 -89 -89c-27 32 -57 62 -89 89c32 27 62 57 89 89c27 -32 57 -62 89 -89zM481 431c-9 -25 -30 -52 -52 -68v-241c0 -49 4 -64 24 -90
c-10 1 -20 2 -30 2c-89 0 -184 -24 -252 -84c-28 34 -71 64 -117 64c-15 0 -29 -4 -41 -13l-4 4c13 25 40 50 65 62v270c0 30 -3 54 -18 81c18 -3 37 -4 55 -4c84 0 174 29 243 76c21 -31 51 -67 92 -67c11 0 24 3 32 11zM319 54v299c-29 6 -61 26 -80 49
c-18 -5 -36 -10 -55 -12v-301c28 -4 70 -26 90 -46c15 5 30 8 45 11z" />
    <glyph glyph-name="ograve" unicode="&#xf2;" 
d="M378 628c-22 -25 -43 -63 -55 -95c-45 46 -153 108 -213 132c22 25 43 63 55 95c45 -46 153 -109 213 -132zM481 431c-9 -25 -30 -52 -52 -68v-241c0 -49 4 -64 24 -90c-10 1 -20 2 -30 2c-89 0 -184 -24 -252 -84c-28 34 -71 64 -117 64c-15 0 -29 -4 -41 -13l-4 4
c13 25 40 50 65 62v270c0 30 -3 54 -18 81c18 -3 37 -4 55 -4c84 0 174 29 243 76c21 -31 51 -67 92 -67c11 0 24 3 32 11zM319 54v299c-29 6 -61 26 -80 49c-18 -5 -36 -10 -55 -12v-301c28 -4 70 -26 90 -46c15 5 30 8 45 11z" />
    <glyph glyph-name="otilde" unicode="&#xf5;" 
d="M422 668c-15 -33 -24 -69 -29 -105c-23 -10 -50 -14 -75 -14c-50 0 -93 29 -143 29c-30 0 -48 -8 -72 -25c12 34 17 70 20 105c21 9 44 15 67 15c53 0 102 -29 155 -29c27 0 53 13 77 24zM481 431c-9 -25 -30 -52 -52 -68v-241c0 -49 4 -64 24 -90c-10 1 -20 2 -30 2
c-89 0 -184 -24 -252 -84c-28 34 -71 64 -117 64c-15 0 -29 -4 -41 -13l-4 4c13 25 40 50 65 62v270c0 30 -3 54 -18 81c18 -3 37 -4 55 -4c84 0 174 29 243 76c21 -31 51 -67 92 -67c11 0 24 3 32 11zM319 54v299c-29 6 -61 26 -80 49c-18 -5 -36 -10 -55 -12v-301
c28 -4 70 -26 90 -46c15 5 30 8 45 11z" />
    <glyph glyph-name="scaron" unicode="&#x161;" horiz-adv-x="481" 
d="M403 690c-55 -41 -113 -102 -160 -153c-47 51 -105 112 -160 153c21 21 41 44 60 67c30 -35 64 -67 100 -95c36 28 70 60 100 95c19 -23 39 -46 60 -67zM437 484c-30 -72 -88 -148 -142 -203h132c-17 -24 -18 -51 -18 -79v-109c0 -32 2 -61 18 -89c-19 11 -42 14 -64 14
c-70 0 -124 -13 -171 -68c-20 34 -50 60 -91 60c-36 0 -64 -20 -76 -54l-22 6c18 73 84 151 135 204h-88c14 24 18 53 18 80v107c0 29 -1 58 -18 83c25 -7 51 -10 77 -10c58 0 116 18 154 64c19 -19 45 -34 73 -34c26 0 49 10 61 34zM358 404c-21 -16 -47 -28 -74 -28
c-26 0 -56 17 -73 36l-33 -8v-173h27c56 52 111 108 153 173zM299 45v171h-71c-51 -46 -97 -97 -138 -152c24 15 53 26 82 26c41 0 71 -26 99 -52z" />
    <glyph glyph-name="uacute" unicode="&#xfa;" 
d="M428 665c-60 -23 -168 -86 -213 -132c-12 32 -33 70 -55 95c60 23 168 86 213 132c11 -32 33 -70 55 -95zM503 48c-31 -30 -61 -63 -87 -98c-56 17 -96 55 -100 116c-49 -36 -98 -73 -141 -116c-30 33 -74 71 -121 71c-13 0 -25 -2 -37 -7l-2 5c16 22 37 42 60 55v237
c0 46 -16 67 -63 71l-4 6c35 23 83 67 105 102c57 -18 72 -60 72 -115v-286c26 -5 55 -17 76 -32c18 14 36 27 55 39v263c-11 8 -20 19 -28 30l-27 -19l-12 17c45 30 88 64 125 103c19 -28 44 -63 82 -63c11 0 22 3 30 10l5 -4c-13 -31 -35 -59 -65 -74v-240
c0 -38 9 -69 53 -69c7 0 14 1 20 3z" />
    <glyph glyph-name="ucircumflex" unicode="&#xfb;" 
d="M418 604c-21 -21 -41 -44 -60 -67c-30 35 -64 67 -100 95c-36 -28 -70 -60 -100 -95c-19 23 -39 46 -60 67c59 44 110 99 160 153c50 -54 101 -109 160 -153zM503 48c-31 -30 -61 -63 -87 -98c-56 17 -96 55 -100 116c-49 -36 -98 -73 -141 -116c-30 33 -74 71 -121 71
c-13 0 -25 -2 -37 -7l-2 5c16 22 37 42 60 55v237c0 46 -16 67 -63 71l-4 6c35 23 83 67 105 102c57 -18 72 -60 72 -115v-286c26 -5 55 -17 76 -32c18 14 36 27 55 39v263c-11 8 -20 19 -28 30l-27 -19l-12 17c45 30 88 64 125 103c19 -28 44 -63 82 -63c11 0 22 3 30 10
l5 -4c-13 -31 -35 -59 -65 -74v-240c0 -38 9 -69 53 -69c7 0 14 1 20 3z" />
    <glyph glyph-name="udieresis" unicode="&#xfc;" 
d="M458 626c-32 -27 -62 -57 -89 -89c-27 32 -57 62 -89 89c32 27 62 57 89 89c27 -32 57 -62 89 -89zM226 626c-32 -27 -62 -57 -89 -89c-27 32 -57 62 -89 89c32 27 62 57 89 89c27 -32 57 -62 89 -89zM503 48c-31 -30 -61 -63 -87 -98c-56 17 -96 55 -100 116
c-49 -36 -98 -73 -141 -116c-30 33 -74 71 -121 71c-13 0 -25 -2 -37 -7l-2 5c16 22 37 42 60 55v237c0 46 -16 67 -63 71l-4 6c35 23 83 67 105 102c57 -18 72 -60 72 -115v-286c26 -5 55 -17 76 -32c18 14 36 27 55 39v263c-11 8 -20 19 -28 30l-27 -19l-12 17
c45 30 88 64 125 103c19 -28 44 -63 82 -63c11 0 22 3 30 10l5 -4c-13 -31 -35 -59 -65 -74v-240c0 -38 9 -69 53 -69c7 0 14 1 20 3z" />
    <glyph glyph-name="ugrave" unicode="&#xf9;" 
d="M388 628c-22 -25 -43 -63 -55 -95c-45 46 -153 108 -213 132c22 25 43 63 55 95c45 -46 153 -109 213 -132zM503 48c-31 -30 -61 -63 -87 -98c-56 17 -96 55 -100 116c-49 -36 -98 -73 -141 -116c-30 33 -74 71 -121 71c-13 0 -25 -2 -37 -7l-2 5c16 22 37 42 60 55v237
c0 46 -16 67 -63 71l-4 6c35 23 83 67 105 102c57 -18 72 -60 72 -115v-286c26 -5 55 -17 76 -32c18 14 36 27 55 39v263c-11 8 -20 19 -28 30l-27 -19l-12 17c45 30 88 64 125 103c19 -28 44 -63 82 -63c11 0 22 3 30 10l5 -4c-13 -31 -35 -59 -65 -74v-240
c0 -38 9 -69 53 -69c7 0 14 1 20 3z" />
    <glyph glyph-name="yacute" unicode="&#xfd;" 
d="M448 665c-60 -23 -168 -86 -213 -132c-12 32 -33 70 -55 95c60 23 168 86 213 132c11 -32 33 -70 55 -95zM493 447c-14 -32 -33 -57 -63 -75v-285c0 -23 -2 -46 -13 -66c-33 -61 -139 -60 -198 -65c-33 -3 -89 -30 -89 -69c0 -16 11 -24 26 -24c45 0 119 67 190 67
c44 0 89 -26 89 -74c0 -51 -41 -73 -87 -73c-10 0 -20 1 -30 2v24c8 -1 17 -2 25 -2c16 0 46 3 46 25c0 13 -12 18 -23 18c-51 0 -117 -67 -184 -67c-52 0 -102 28 -102 86c0 50 44 83 86 100c-70 14 -93 52 -93 121v235c0 39 -7 67 -51 71l-4 6c41 26 80 56 116 88
c52 -30 49 -80 49 -133c65 40 129 83 187 133c21 -29 47 -49 84 -49c12 0 24 4 34 10zM320 359c-17 5 -33 11 -48 20c-29 -20 -59 -38 -89 -56v-248c0 -53 9 -85 69 -85c63 0 68 43 68 94v275z" />
    <glyph glyph-name="ydieresis" unicode="&#xff;" 
d="M458 626c-32 -27 -62 -57 -89 -89c-27 32 -57 62 -89 89c32 27 62 57 89 89c27 -32 57 -62 89 -89zM226 626c-32 -27 -62 -57 -89 -89c-27 32 -57 62 -89 89c32 27 62 57 89 89c27 -32 57 -62 89 -89zM493 447c-14 -32 -33 -57 -63 -75v-285c0 -23 -2 -46 -13 -66
c-33 -61 -139 -60 -198 -65c-33 -3 -89 -30 -89 -69c0 -16 11 -24 26 -24c45 0 119 67 190 67c44 0 89 -26 89 -74c0 -51 -41 -73 -87 -73c-10 0 -20 1 -30 2v24c8 -1 17 -2 25 -2c16 0 46 3 46 25c0 13 -12 18 -23 18c-51 0 -117 -67 -184 -67c-52 0 -102 28 -102 86
c0 50 44 83 86 100c-70 14 -93 52 -93 121v235c0 39 -7 67 -51 71l-4 6c41 26 80 56 116 88c52 -30 49 -80 49 -133c65 40 129 83 187 133c21 -29 47 -49 84 -49c12 0 24 4 34 10zM320 359c-17 5 -33 11 -48 20c-29 -20 -59 -38 -89 -56v-248c0 -53 9 -85 69 -85
c63 0 68 43 68 94v275z" />
    <glyph glyph-name="zcaron" unicode="&#x17e;" horiz-adv-x="389" 
d="M384 690c-55 -41 -113 -102 -160 -153c-47 51 -105 112 -160 153c21 21 41 44 60 67c30 -35 64 -67 100 -95c36 28 70 60 100 95c19 -23 39 -46 60 -67zM406 472l-146 -209h26c24 0 49 1 73 6c-13 -26 -25 -53 -31 -82c-17 6 -35 6 -53 6h-64l-86 -124
c40 36 84 62 139 62s94 -40 94 -95c0 -69 -64 -129 -107 -177c-29 -33 -58 -67 -85 -101c-25 30 -56 50 -96 50c-26 0 -50 -8 -68 -27h-9c25 59 80 117 148 117c29 0 58 -14 79 -32c21 28 38 62 38 98c0 46 -26 93 -77 93c-58 0 -103 -58 -134 -101l-24 15l154 222h-49
c-24 0 -49 -1 -73 -6c13 26 25 53 31 82c17 -6 35 -6 53 -6h87l91 130c-49 -29 -104 -50 -161 -50c-52 0 -96 14 -138 46c37 30 70 64 100 101c34 -41 78 -67 132 -67c52 0 98 25 132 63z" />
    <glyph glyph-name="onethird" unicode="&#x2153;" horiz-adv-x="867" 
d="M789 -6c-11 2 -32 4 -46 4c-52 0 -94 -23 -124 -48c-20 18 -46 30 -74 30c-22 0 -37 -6 -51 -17l-9 5c32 46 73 75 124 75c28 0 49 -10 69 -28l14 3v141c-36 10 -54 15 -65 15c-8 0 -24 -8 -39 -17v64c12 -5 30 -11 39 -11c12 0 27 4 65 17v118l-15 3
c-14 -13 -38 -28 -63 -28c-43 0 -74 23 -99 57l9 6c5 -3 12 -6 23 -6c29 0 53 15 70 33c35 -27 67 -45 117 -45c17 0 40 3 55 6c-8 -12 -12 -26 -12 -58v-46c0 -29 4 -38 12 -49c-42 -2 -87 -8 -131 -25c42 -15 87 -18 131 -19c-8 -11 -12 -20 -12 -49v-73
c0 -32 4 -46 12 -58zM709 650c-35 -29 -69 -61 -108 -109l-390 -484c-33 -41 -41 -54 -41 -62c0 -4 1 -6 2 -9l-110 -26c35 29 69 60 108 109l390 484c33 40 41 54 41 62c0 4 -1 6 -2 9zM273 281c-24 -23 -56 -56 -77 -81c-33 28 -63 40 -91 40c-19 0 -31 -5 -43 -11l-10 8
c17 26 47 49 71 58v254c0 39 -7 44 -53 47v18c40 6 80 22 111 46c21 -17 27 -43 27 -99v-261c11 -3 27 -11 35 -17l16 14z" />
    <glyph glyph-name="uni00A0" unicode="&#xa0;" horiz-adv-x="278" 
 />
    <glyph glyph-name="uni00AD" unicode="&#xad;" horiz-adv-x="278" 
d="M255 295c-15 -33 -28 -69 -35 -105c-36 4 -71 5 -107 5c-30 0 -61 -3 -90 -10c15 33 28 69 35 105c36 -4 71 -5 107 -5c30 0 61 3 90 10z" />
    <glyph glyph-name="uni02C9" unicode="&#x2c9;" horiz-adv-x="426" 
d="M353 667c-5 -15 -8 -31 -8 -47c0 -11 2 -23 5 -34c-12 3 -23 4 -34 4h-212c-13 0 -19 -1 -31 -6c8 15 10 22 10 39c0 14 -2 29 -4 43c8 -2 16 -4 24 -4h216c11 0 23 2 34 5z" />
    <glyph glyph-name="uni03A9" unicode="&#x3a9;" horiz-adv-x="699" 
d="M656 0h-250v139c90 45 124 167 124 262c0 175 -67 274 -180 274c-127 0 -185 -119 -185 -274c0 -119 48 -237 135 -267v-134h-257v157h28c0 -44 2 -84 65 -84h118v32c-105 36 -204 137 -204 295c0 189 121 312 300 312c188 0 300 -145 300 -307
c0 -121 -70 -250 -199 -296v-36h112c62 0 65 40 65 84h28v-157z" />
    <glyph glyph-name="uni03BC" unicode="&#x3bc;" 
d="M502 47l-87 -92c-29 9 -49 18 -70 41c-22 23 -26 38 -29 69c-36 -26 -72 -53 -106 -82c-7 7 -15 12 -25 14v-94c0 -35 5 -56 25 -85c-9 1 -17 2 -26 2c-46 0 -99 -34 -138 -57l-3 5c16 20 22 32 26 58c4 28 5 56 5 84v404c0 49 -13 61 -61 66l-3 6c38 33 74 64 104 105
c45 -23 71 -48 71 -101v-301c32 -7 48 -11 75 -32l56 41v260l-28 25l-26 -15l-13 19c45 30 86 64 125 102c18 -29 44 -62 82 -62c13 0 20 2 30 10l5 -4c-16 -35 -33 -53 -65 -74v-234c0 -57 18 -72 74 -73z" />
    <glyph glyph-name="pi" unicode="&#x3c0;" horiz-adv-x="438" 
d="M417 101c-14 -71 -39 -113 -74 -113c-22 0 -38 11 -48 31c-18 31 -19 83 -19 124v256h-90v-182c0 -92 -12 -159 -34 -195c-13 -20 -32 -34 -55 -34c-16 0 -37 14 -37 35c0 19 12 33 31 41c41 13 45 76 45 174v161h-22c-32 0 -49 -16 -57 -63l-27 7c2 88 39 139 99 139
h274v-83h-77v-214c0 -49 -2 -82 5 -101c6 -19 14 -27 25 -27c20 0 31 27 41 59z" />
    <glyph glyph-name="uni2015" unicode="&#x2015;" horiz-adv-x="1000" 
d="M1010 -12c0 -10 -9 -13 -19 -13h-982c-10 0 -19 3 -19 13s9 12 19 12h982c10 0 19 -2 19 -12z" />
    <glyph glyph-name="Euro" unicode="&#x20ac;" horiz-adv-x="556" 
d="M560 606c-29 -43 -71 -80 -125 -80c-48 0 -88 22 -117 59c-87 -29 -140 -131 -149 -217h301l-5 -30h-298c-1 -9 -1 -17 -1 -26c0 -6 0 -12 1 -18h291l-5 -30h-284c12 -125 87 -218 219 -218c61 0 103 27 145 68l15 -17c-51 -46 -109 -83 -156 -135
c-21 -9 -42 -11 -65 -11c-171 0 -272 154 -270 313h-60l5 30h55l4 44h-52l5 30h52c7 34 19 68 37 98c90 141 200 122 327 196c20 -31 45 -63 85 -63c13 0 27 6 38 13z" />
    <glyph glyph-name="uni2105" unicode="&#x2105;" horiz-adv-x="852" 
d="M812 334c-7 -17 -23 -41 -42 -54v-179c0 -43 1 -67 19 -86c-7 1 -17 2 -24 2c-67 0 -148 -19 -203 -67c-25 30 -62 52 -95 52c-15 0 -25 -5 -33 -11l-3 3c9 19 33 41 51 50v210c0 42 -4 53 -13 70c9 -2 29 -3 43 -3c58 0 134 18 196 60c20 -30 45 -54 76 -54
c11 0 21 4 25 9zM580 770l-360 -854h-40l360 854h40zM324 695c-14 -35 -43 -61 -80 -61c-32 0 -50 14 -72 39v-258c31 -3 69 -18 90 -30l28 30l15 -13c-28 -31 -57 -66 -81 -97c-43 28 -105 54 -146 54c-13 0 -23 -5 -29 -9l-2 4c4 11 16 29 35 42v213c0 42 -3 50 -16 72
c7 -1 18 -2 29 -2c51 0 102 25 126 57c17 -19 40 -47 73 -47c10 0 20 4 28 10zM680 33v238c-22 6 -50 22 -63 40c-12 -4 -33 -8 -45 -10v-240c22 -3 57 -22 72 -36c11 3 26 7 36 8z" />
    <glyph glyph-name="litre" unicode="&#x2113;" horiz-adv-x="344" 
d="M348 115c-23 -80 -65 -127 -134 -127c-37 0 -63 10 -86 32c-27 26 -39 72 -39 114v69c-12 -15 -41 -46 -55 -61l-22 30c18 19 57 59 76 85v234c0 120 51 221 140 221c63 0 88 -44 88 -100c0 -79 -33 -163 -69 -226c-16 -28 -39 -66 -53 -82v-173c0 -62 21 -89 48 -89
c32 0 54 36 70 87zM279 609c0 33 -9 63 -40 63c-27 0 -45 -39 -45 -128v-172c4 8 19 34 31 57c33 60 54 133 54 180z" />
    <glyph glyph-name="Omega" unicode="&#x2126;" horiz-adv-x="699" 
d="M656 0h-250v139c90 45 124 167 124 262c0 175 -67 274 -180 274c-127 0 -185 -119 -185 -274c0 -119 48 -237 135 -267v-134h-257v157h28c0 -44 2 -84 65 -84h118v32c-105 36 -204 137 -204 295c0 189 121 312 300 312c188 0 300 -145 300 -307
c0 -121 -70 -250 -199 -296v-36h112c62 0 65 40 65 84h28v-157z" />
    <glyph glyph-name="estimated" unicode="&#x212e;" horiz-adv-x="619" 
d="M582 275h-425v-199c41 -41 92 -62 151 -62c91 0 163 49 211 130l27 -16c-59 -87 -125 -140 -238 -140c-165 0 -268 128 -268 287c0 160 101 287 268 287c171 0 268 -126 274 -287zM460 302v170c-42 42 -95 64 -153 64c-59 0 -109 -21 -150 -62v-172h303z" />
    <glyph glyph-name="uni2160" unicode="&#x2160;" horiz-adv-x="315" 
d="M283 0h-251v14c63 8 78 36 78 94v404c0 58 -15 86 -78 94v14h251v-14c-63 -8 -78 -36 -78 -94v-404c0 -58 15 -86 78 -94v-14z" />
    <glyph glyph-name="uni2164" unicode="&#x2164;" horiz-adv-x="537" 
d="M544 606c-48 -11 -66 -48 -94 -133l-163 -498h-15l-156 498c-29 92 -46 125 -105 133v14h244v-14c-44 -6 -63 -18 -63 -46c0 -18 10 -55 29 -116l93 -301l110 338c7 21 14 50 14 69c0 33 -21 48 -58 56v14h164v-14z" />
    <glyph glyph-name="uni2169" unicode="&#x2169;" horiz-adv-x="611" 
d="M596 0h-257v14c34 6 53 17 53 46c0 18 -15 48 -43 96l-71 120l-79 -131c-27 -45 -35 -62 -35 -86c0 -25 16 -39 44 -45v-14h-187v14c42 10 76 38 136 133l102 160l-109 186c-47 80 -71 102 -119 113v14h250v-14c-34 -6 -53 -18 -53 -46c0 -16 16 -48 45 -96l44 -74l50 85
c23 39 33 65 33 86c0 25 -16 39 -44 45v14h185v-14c-38 -10 -79 -39 -136 -133l-69 -114l138 -232c46 -78 77 -102 122 -113v-14z" />
    <glyph glyph-name="partialdiff" unicode="&#x2202;" horiz-adv-x="482" 
d="M454 480c0 -76 -22 -193 -52 -269c-60 -147 -120 -224 -216 -224c-103 0 -159 85 -159 200c0 149 89 279 227 279c80 0 122 -54 135 -90h2c3 30 3 56 3 81c0 83 -32 196 -131 196c-62 0 -105 -29 -140 -71l-19 20c36 55 93 120 191 120c119 0 159 -102 159 -242zM383 325
c-11 39 -40 98 -107 98c-79 0 -148 -111 -148 -258c0 -89 44 -133 92 -133c85 0 141 161 163 293z" />
    <glyph glyph-name="Delta" unicode="&#x2206;" horiz-adv-x="553" 
d="M534 0h-514l223 712h76zM414 45l-161 515l-170 -515h331z" />
    <glyph glyph-name="product" unicode="&#x220f;" horiz-adv-x="641" 
d="M605 -131h-227v29h15c42 0 46 37 46 78v681h-239v-681c0 -41 4 -78 44 -78h16v-29h-225v29h15c42 0 46 37 46 78v617c0 43 -4 78 -45 78h-16v29h570v-29h-14c-43 0 -47 -35 -47 -78v-617c0 -42 5 -78 46 -78h15v-29z" />
    <glyph glyph-name="summation" unicode="&#x2211;" horiz-adv-x="490" 
d="M474 37l-12 -168h-455l-1 33l223 370l-215 396v32h433l9 -144h-27c-6 75 -17 100 -70 100h-238l185 -331l-223 -370h288c58 0 67 22 76 86z" />
    <glyph glyph-name="uni2215" unicode="&#x2215;" horiz-adv-x="442" 
d="M568 660c-45 -28 -91 -76 -124 -117l-403 -501c-6 -8 -23 -29 -23 -38c0 -3 2 -7 3 -10l-112 -28c35 30 69 63 98 99l419 519c11 13 30 33 30 51z" />
    <glyph glyph-name="uni2219" unicode="&#x2219;" horiz-adv-x="278" 
d="M230 307c-30 -28 -60 -57 -88 -87c-28 30 -58 59 -89 86c31 28 62 56 92 86c28 -29 56 -57 85 -85z" />
    <glyph glyph-name="radical" unicode="&#x221a;" horiz-adv-x="376" 
d="M292 728l-83 -740h-52l-98 332l-42 -28l-20 29l99 68l86 -308h2l73 647h35z" />
    <glyph glyph-name="infinity" unicode="&#x221e;" horiz-adv-x="659" 
d="M478 139c-75 0 -111 40 -142 95h-2c-30 -49 -74 -95 -148 -95c-78 0 -135 59 -135 140c0 84 54 143 132 143c77 0 115 -51 138 -94h1c35 55 77 94 152 94c74 0 133 -57 133 -140s-57 -143 -129 -143zM479 381h1c-67 0 -90 -52 -124 -110c27 -57 63 -91 121 -91
c62 0 92 52 92 100c0 55 -28 101 -90 101zM185 381c-55 0 -96 -39 -96 -100c0 -60 34 -101 93 -101c62 0 97 72 119 114c-20 41 -56 87 -116 87z" />
    <glyph glyph-name="integral" unicode="&#x222b;" horiz-adv-x="249" 
d="M240 696c0 -13 -6 -35 -27 -35c-13 0 -19 4 -29 13c-8 7 -15 12 -26 12c-13 0 -20 -11 -20 -33c-1 -34 11 -76 17 -140c8 -55 16 -163 16 -249c0 -78 -1 -171 -9 -237c-6 -60 -12 -124 -24 -163c-13 -42 -32 -75 -75 -75c-29 0 -58 20 -58 50c0 20 11 36 33 36
c11 0 16 -4 25 -15c5 -6 16 -9 22 -9c10 0 20 4 22 50c1 25 -12 87 -19 138c-8 68 -12 160 -12 223s2 132 6 203s12 163 21 202c13 55 42 81 75 81c39 0 62 -25 62 -52z" />
    <glyph glyph-name="approxequal" unicode="&#x2248;" horiz-adv-x="556" 
d="M545 232c-5 -17 -5 -34 -5 -51c0 -100 -41 -194 -155 -194c-144 0 -122 182 -210 182c-58 0 -66 -77 -66 -121c0 -11 1 -18 7 -27c-4 1 -9 3 -13 3c-30 0 -54 -5 -81 -19c5 14 5 28 5 43c0 100 41 196 155 196c142 0 126 -182 209 -182c64 0 68 83 68 130
c0 7 -1 14 -4 21c7 -1 15 -2 22 -2c23 0 49 7 68 21zM545 460c-5 -17 -5 -34 -5 -51c0 -100 -41 -194 -155 -194c-144 0 -122 182 -210 182c-58 0 -66 -77 -66 -121c0 -11 1 -18 7 -27c-4 1 -9 3 -13 3c-30 0 -54 -5 -81 -19c5 14 5 28 5 43c0 100 41 196 155 196
c142 0 126 -182 209 -182c64 0 68 83 68 130c0 7 -1 14 -4 21c7 -1 15 -2 22 -2c23 0 49 7 68 21z" />
    <glyph glyph-name="notequal" unicode="&#x2260;" horiz-adv-x="556" 
d="M542 190c-12 -19 -16 -46 -16 -68c0 -6 2 -12 5 -18c-8 3 -16 5 -25 5h-233l-45 -108c-6 -15 -10 -31 -13 -47c-27 0 -52 -3 -78 -10c11 25 29 62 42 95l30 70h-148c-16 0 -25 -3 -39 -10c12 20 17 49 17 72c0 7 -2 14 -4 21c13 -5 23 -8 37 -8h168l37 88h-210
c-20 0 -27 -1 -45 -11c9 20 17 50 17 72c0 7 -2 14 -4 21c13 -3 26 -6 39 -6h235l44 105c6 14 8 28 9 43c10 -1 20 -1 30 -1c16 0 32 3 47 7c-11 -25 -26 -61 -40 -92l-26 -62h132c14 0 24 2 37 6c-10 -21 -16 -45 -16 -68c0 -7 2 -13 5 -19c-11 4 -18 5 -30 5h-159l-38 -88
h208c10 0 20 3 30 6z" />
    <glyph glyph-name="lessequal" unicode="&#x2264;" horiz-adv-x="555" 
d="M30 252c2 13 3 25 3 38c0 14 -1 27 -2 41c10 3 21 5 31 10l412 140c13 6 26 13 39 20c-3 -18 -4 -36 -4 -54c0 -12 1 -24 2 -36c-2 0 -5 1 -8 1c-7 0 -14 -1 -17 -3l-356 -116l353 -113c9 -4 18 -6 28 -6c-1 -12 -2 -25 -2 -37c0 -19 0 -38 4 -56c-11 8 -22 16 -34 22
l-420 142c-9 4 -20 6 -29 7zM541 51c-13 -24 -17 -51 -17 -78c0 -5 1 -10 3 -14c-9 4 -17 7 -27 7h-445c-11 0 -21 -1 -32 -5c10 18 16 46 16 67c0 6 -2 12 -4 17c11 -2 22 -4 34 -4h437c13 0 23 4 35 10z" />
    <glyph glyph-name="greaterequal" unicode="&#x2265;" horiz-adv-x="555" 
d="M534 252c-9 -1 -20 -3 -29 -7l-420 -142c-12 -6 -23 -14 -34 -22c4 18 4 37 4 56c0 12 -1 25 -2 37c10 0 19 2 28 6l353 113l-356 116c-3 2 -10 3 -17 3c-3 0 -6 -1 -8 -1c1 12 2 24 2 36c0 18 -1 36 -4 54c13 -7 26 -14 39 -20l412 -140c10 -5 21 -7 31 -10
c-1 -14 -2 -27 -2 -41c0 -13 1 -25 3 -38zM541 51c-13 -24 -17 -51 -17 -78c0 -5 1 -10 3 -14c-9 4 -17 7 -27 7h-445c-11 0 -21 -1 -32 -5c10 18 16 46 16 67c0 6 -2 12 -4 17c11 -2 22 -4 34 -4h437c13 0 23 4 35 10z" />
    <glyph glyph-name="lozenge" unicode="&#x25ca;" horiz-adv-x="348" 
d="M346 349l-152 -361h-43l-149 361l150 363h42zM298 349l-125 300l-123 -300l123 -299z" />
    <glyph glyph-name="ampersand.alt" unicode="&#xe003;" horiz-adv-x="722" 
d="M686 342c-24 -71 -79 -108 -141 -108c-31 0 -52 13 -68 23l-39 -40c70 -84 86 -177 155 -177c34 0 58 13 85 31l4 -6c-28 -63 -73 -115 -146 -115c-85 0 -98 86 -175 187c-62 -57 -122 -123 -176 -187c-45 66 -109 154 -160 206c70 78 146 154 224 224
c-34 47 -84 103 -136 147c106 72 199 203 271 203c49 0 91 -45 131 -111l26 24l13 -16c-34 -32 -98 -87 -132 -121l-13 16l27 27c-32 53 -73 96 -116 96c-31 0 -63 -26 -104 -66c39 -37 93 -99 130 -151c-73 -60 -162 -142 -220 -205c38 -42 91 -107 128 -156
c97 103 230 228 304 319c13 -29 33 -58 70 -58c17 0 37 7 49 17z" />
    <glyph glyph-name="apple" unicode="&#xf8ff;" horiz-adv-x="790" 
 />
    <glyph glyph-name="orn.002" horiz-adv-x="852" 
d="M827 161c0 -98 -63 -173 -142 -173c-63 0 -112 47 -112 106c0 35 23 68 61 68c23 0 39 -16 39 -40c0 -22 -14 -40 -41 -40c-8 0 -16 2 -23 6c1 -28 14 -60 55 -60c64 0 118 71 118 146c0 91 -69 163 -151 163c-185 0 -219 -318 -452 -318c-90 0 -160 72 -160 164
c0 59 37 108 81 108c31 0 53 -26 53 -53c0 -13 -4 -26 -12 -38c-3 22 -12 41 -36 41s-41 -24 -41 -64c0 -56 38 -103 90 -103c136 0 208 328 430 328c138 0 243 -104 243 -241z" />
    <glyph glyph-name="r.period" horiz-adv-x="370" 
d="M354 406c-18 -14 -39 -37 -50 -60c-11 23 -32 46 -50 60c18 14 39 37 50 60c11 -23 32 -46 50 -60zM274 701c-1 -48 -24 -81 -65 -81c-25 0 -42 16 -51 26c-8 -9 -19 -19 -29 -28v-167c15 -4 38 -17 50 -25l19 16l13 -15c-24 -21 -60 -56 -82 -81c-28 24 -62 45 -86 45
c-14 0 -27 -3 -39 -9l-5 4c8 16 26 40 50 50v171c0 34 -11 48 -45 51l-3 4c22 15 60 48 77 74c35 -16 49 -51 51 -90c26 24 56 61 74 90c8 -25 20 -46 42 -46c11 0 20 5 29 11z" />
    <glyph glyph-name="rs.period" horiz-adv-x="722" 
d="M721 406c-18 -14 -39 -37 -50 -60c-11 23 -32 46 -50 60c18 14 39 37 50 60c11 -23 32 -46 50 -60zM580 730c-18 -41 -55 -97 -103 -146h96c-10 -15 -13 -29 -13 -57v-78c0 -32 4 -48 13 -64c-13 7 -28 10 -46 10c-52 0 -90 -10 -124 -49c-13 23 -33 44 -65 44
c-28 0 -47 -16 -55 -40l-16 6c11 44 48 96 97 148h-64c6 10 13 28 13 57v76c0 39 -6 49 -13 60c16 -4 34 -7 56 -7c47 0 86 15 111 46c15 -16 33 -26 53 -26c24 0 36 11 44 26zM274 701c-1 -48 -24 -81 -65 -81c-25 0 -42 16 -51 26c-8 -9 -19 -19 -29 -28v-167
c15 -4 38 -17 50 -25l19 16l13 -15c-24 -21 -60 -56 -82 -81c-28 24 -62 45 -86 45c-14 0 -27 -3 -39 -9l-5 4c8 16 26 40 50 50v171c0 34 -11 48 -45 51l-3 4c22 15 60 48 77 74c35 -16 49 -51 51 -90c26 24 56 61 74 90c8 -25 20 -46 42 -46c11 0 20 5 29 11zM523 674
c-16 -11 -34 -19 -54 -19c-19 0 -41 13 -52 25l-24 -6v-125h19c42 38 83 82 111 125zM480 414v125h-51c-35 -31 -71 -75 -99 -113c16 10 39 19 59 19c31 0 53 -19 71 -36z" />
    <glyph glyph-name="s.period" horiz-adv-x="444" 
d="M435 406c-18 -14 -39 -37 -50 -60c-11 23 -32 46 -50 60c18 14 39 37 50 60c11 -23 32 -46 50 -60zM294 730c-18 -41 -55 -97 -103 -146h96c-10 -15 -13 -29 -13 -57v-78c0 -32 4 -48 13 -64c-13 7 -28 10 -46 10c-52 0 -90 -10 -124 -49c-13 23 -33 44 -65 44
c-28 0 -47 -16 -55 -40l-16 6c11 44 48 96 97 148h-64c6 10 13 28 13 57v76c0 39 -6 49 -13 60c16 -4 34 -7 56 -7c47 0 86 15 111 46c15 -16 33 -26 53 -26c24 0 36 11 44 26zM237 674c-16 -11 -34 -19 -54 -19c-19 0 -41 13 -52 25l-24 -6v-125h19c42 38 83 82 111 125z
M194 414v125h-51c-35 -31 -71 -75 -99 -113c16 10 39 19 59 19c31 0 53 -19 71 -36z" />
    <glyph glyph-name="A.alt" horiz-adv-x="778" 
d="M884 -56c-30 -40 -69 -98 -89 -140c-87 11 -155 81 -218 252l-63 170h-255l-48 -113c36 0 90 -4 146 -33l17 18l18 -15c-34 -37 -79 -92 -110 -133c-35 34 -85 58 -151 58c-46 0 -79 -12 -113 -40l-10 6c39 69 113 128 173 134l131 310c-9 21 -29 40 -63 40
c-36 0 -57 -16 -74 -38l-8 4c3 45 38 139 132 139c30 0 53 -14 65 -23l17 39c-14 35 -47 46 -95 46c-37 0 -65 -12 -91 -37l-8 4c39 90 104 138 185 138c65 0 88 -30 107 -80l187 -498c60 -159 99 -218 160 -218c17 0 36 7 50 18zM475 331l-79 217l-93 -217h172z" />
    <glyph glyph-name="Dquote" horiz-adv-x="833" 
d="M814 638c0 -58 -54 -104 -112 -135l-9 10c16 15 26 36 26 59c0 32 -35 49 -69 62c25 30 57 70 74 102c54 -14 90 -46 90 -98zM616 59c-99 -7 -187 -42 -246 -109c-52 33 -100 50 -175 50c-71 0 -115 -16 -148 -44l-11 11c51 86 143 133 242 141v501c-23 -1 -54 -2 -67 -2
c-135 0 -195 27 -195 94c0 8 2 20 3 26c29 -8 68 -10 97 -10c103 0 201 13 291 13c166 0 189 -56 189 -196v-373c0 -50 3 -80 20 -102zM248 578c-14 -19 -18 -33 -18 -77v-242c0 -85 -8 -124 -124 -179l-10 7c14 13 16 40 16 93v115c-21 0 -38 -5 -42 -35
c-19 10 -42 34 -42 75c0 68 48 80 84 80v18c0 60 24 112 128 153zM478 470v77c0 48 -18 68 -74 68c-29 0 -74 -3 -98 -5v-140c28 -8 58 -12 86 -12s58 4 86 12zM478 282v160c-28 -8 -58 -12 -86 -12s-58 4 -86 12v-160c28 8 58 12 86 12s58 -4 86 -12zM478 62v192
c-28 8 -58 12 -86 12s-58 -4 -86 -12v-144c48 -2 114 -21 163 -51z" />
    <glyph glyph-name="Oquote" horiz-adv-x="1019" 
d="M980 638c0 -58 -54 -104 -112 -135l-9 10c16 15 26 36 26 59c0 32 -35 49 -69 62c25 30 57 70 74 102c54 -14 90 -46 90 -98zM790 401c0 -234 -175 -445 -387 -445s-362 178 -362 373c0 182 112 346 281 401l8 -15c-111 -56 -159 -168 -159 -352c0 -254 90 -373 243 -373
c25 0 52 4 71 9v645l-48 -24v-402c0 -53 -15 -106 -124 -145l-10 8c14 15 16 23 16 52v442l-49 -15v28c73 22 148 52 215 84v58h28v-45c30 15 65 35 88 51c106 -62 189 -178 189 -335zM649 480c-22 71 -70 146 -122 183l-14 -6v-183c18 -4 47 -7 68 -7s49 5 68 13zM672 332
c0 43 -9 90 -16 120c-18 -7 -50 -13 -72 -13c-24 0 -54 3 -71 7v-225c22 6 45 10 71 10c32 0 58 -6 78 -13c7 25 10 71 10 114zM655 190c-19 7 -40 13 -71 13c-29 0 -52 -5 -71 -10v-183c68 29 117 96 142 180z" />
    <glyph glyph-name="capostrophe" horiz-adv-x="444" 
d="M186 638c0 -58 -54 -104 -112 -135l-9 10c16 15 26 36 26 59c0 32 -35 49 -69 62c25 30 57 70 74 102c54 -14 90 -46 90 -98zM450 438c-17 -45 -54 -77 -100 -77c-39 0 -61 18 -89 49v-322c38 -4 86 -22 112 -38l35 38l19 -17c-34 -38 -71 -83 -101 -121
c-55 36 -130 67 -181 67c-16 0 -29 -5 -37 -10l-3 5c6 13 22 36 46 52v266c0 53 -4 63 -21 91c9 -1 23 -3 36 -3c64 0 125 32 156 72c20 -24 49 -59 91 -59c13 0 25 5 35 12z" />
    <glyph glyph-name="sapostrophe" horiz-adv-x="537" 
d="M160 638c0 -58 -54 -104 -112 -135l-9 10c16 15 26 36 26 59c0 32 -35 49 -69 62c25 30 57 70 74 102c54 -14 90 -46 90 -98zM491 484c-24 -58 -76 -136 -142 -203h132c-15 -21 -18 -41 -18 -79v-109c0 -44 5 -66 18 -89c-18 10 -39 14 -64 14c-72 0 -124 -14 -171 -68
c-18 30 -46 60 -91 60c-39 0 -65 -22 -76 -54l-22 6c15 61 67 133 135 204h-88c9 15 18 39 18 80v107c0 54 -8 68 -18 83c23 -6 46 -10 77 -10c65 0 119 21 154 64c21 -21 46 -34 73 -34c33 0 51 15 61 34zM412 404c-22 -16 -47 -28 -74 -28s-57 18 -73 36l-33 -8v-173h27
c57 53 115 114 153 173zM353 45v171h-71c-48 -43 -99 -99 -138 -152c23 14 54 26 82 26c44 0 74 -29 99 -52z" />
    <glyph glyph-name="csuperior" horiz-adv-x="278" 
d="M248 698c-12 -32 -39 -55 -72 -55c-28 0 -44 13 -64 35v-232c27 -3 62 -15 80 -27l26 27l13 -12c-24 -27 -51 -61 -72 -88c-40 28 -95 50 -132 50c-11 0 -21 -3 -26 -7l-3 4c5 9 16 26 34 37v191c0 38 -3 45 -16 65c7 -1 17 -2 26 -2c46 0 91 23 114 52
c14 -17 35 -43 65 -43c10 0 18 4 25 9z" />
    <glyph glyph-name="r_d" horiz-adv-x="852" 
d="M810 423c-21 -25 -23 -33 -23 -66v-251c0 -48 5 -68 20 -92c-23 7 -43 12 -71 12c-74 0 -118 -20 -173 -76c-43 49 -84 74 -130 74c-22 0 -39 -4 -59 -15l-5 5c14 29 31 48 60 67v260c0 42 -7 62 -24 81c10 -2 25 -3 34 -3c62 0 102 16 159 46
c-210 251 -183 373 -277 373c-38 0 -84 -38 -84 -111c0 -95 138 -168 138 -272c0 -59 -35 -124 -94 -124c-29 0 -50 19 -61 34c-11 -12 -27 -26 -40 -38v-234c20 -6 52 -21 69 -32l26 22l18 -20c-33 -29 -83 -78 -114 -113c-38 33 -84 63 -118 63c-19 0 -37 -4 -54 -13l-6 6
c11 22 36 55 69 69v236c0 47 -16 67 -63 71l-4 6c31 20 82 66 105 102c49 -22 69 -70 72 -125c32 32 72 81 97 125c12 -30 28 -64 48 -64c17 0 22 15 22 34c0 76 -138 156 -138 266c0 85 57 140 113 140c91 0 157 -57 276 -215c125 -167 179 -220 212 -228zM677 54v335
c-18 15 -43 37 -58 54c-24 -13 -53 -27 -80 -37v-310c39 -3 81 -22 108 -51z" />
    <glyph glyph-name="n_d" horiz-adv-x="1000" 
d="M952 423c-21 -25 -23 -33 -23 -66v-251c0 -48 5 -68 20 -92c-23 7 -43 12 -71 12c-74 0 -118 -20 -173 -76c-43 49 -84 74 -130 74c-22 0 -39 -4 -59 -15l-5 5c14 29 31 48 60 67v260c0 42 -7 62 -24 81c10 -2 25 -3 34 -3c62 0 102 16 159 46c-75 75 -153 154 -224 211
c59 4 110 17 144 34c7 -24 24 -46 132 -155c107 -108 132 -125 160 -132zM892 -63c-43 -100 -127 -201 -287 -201c-199 0 -284 165 -284 308v299c-28 4 -55 19 -68 41c-21 -15 -44 -29 -64 -41v-263c30 -9 64 -32 84 -50c-36 -22 -70 -50 -100 -80c-35 37 -75 60 -110 60
c-17 0 -32 -5 -43 -10l-5 4c13 23 37 52 64 66v241c0 47 -16 67 -63 71l-4 6c31 20 82 66 105 102c56 -18 70 -58 72 -115c47 29 113 74 159 115c19 -37 42 -59 75 -59c20 0 33 6 45 18l5 -3c-4 -21 -17 -59 -42 -79v-313c0 -119 39 -268 223 -268c91 0 167 57 223 161z
M819 54v335c-18 15 -43 37 -58 54c-24 -13 -53 -27 -80 -37v-310c39 -3 81 -22 108 -51z" />
    <glyph glyph-name="s_t" horiz-adv-x="778" 
d="M779 55c-26 -25 -77 -74 -104 -105c-46 37 -67 63 -139 63c-7 0 -19 -1 -26 -3l-4 5c13 16 38 39 64 54v321c-33 0 -57 -2 -73 -6c2 14 3 29 3 41s-1 27 -3 41c16 -4 40 -6 73 -6v272c0 60 -21 88 -76 88c-54 0 -81 -49 -81 -120c0 -40 8 -124 8 -178
c0 -64 -12 -123 -120 -241h132c-15 -21 -18 -41 -18 -79v-109c0 -44 5 -66 18 -89c-18 10 -39 14 -64 14c-72 0 -124 -14 -171 -68c-18 30 -46 60 -91 60c-39 0 -65 -22 -76 -54l-22 6c15 61 67 133 135 204h-88c9 15 18 39 18 80v107c0 54 -8 68 -18 83
c23 -6 46 -10 77 -10c65 0 119 21 154 64c21 -21 47 -34 74 -34c23 0 32 34 32 81c0 45 -8 130 -8 175c0 86 44 154 151 154c111 0 144 -65 144 -153v-253c29 0 64 2 88 10c-2 -14 -3 -32 -3 -45s1 -31 3 -45c-24 8 -59 10 -88 10v-301c19 -6 48 -21 66 -34l16 16zM364 404
c-22 -16 -47 -28 -74 -28s-57 18 -73 36l-33 -8v-173h27c57 53 115 114 153 173zM305 45v171h-71c-48 -43 -99 -99 -138 -152c23 14 54 26 82 26c44 0 74 -29 99 -52z" />
    <glyph glyph-name="t_h" horiz-adv-x="796" 
d="M762 447c-2 -23 -14 -64 -41 -82v-265c0 -55 6 -80 33 -100c-20 6 -37 10 -59 10c-40 0 -76 -14 -76 -36c0 -37 61 -54 61 -126c0 -41 -23 -74 -54 -74c-21 0 -32 8 -41 20c21 7 37 20 37 44c0 42 -33 66 -33 116c0 24 7 44 22 60v325c-25 6 -54 22 -70 42
c-19 -14 -44 -30 -63 -42v-250c23 -13 48 -31 63 -49c-29 -25 -62 -56 -86 -90c-38 38 -68 60 -104 60c-18 0 -32 -5 -43 -10l-9 7c14 24 42 55 69 72v547c0 56 -27 120 -87 120c-47 0 -82 -64 -82 -171v-115c29 0 64 2 88 10c-2 -14 -3 -32 -3 -45s1 -31 3 -45
c-24 8 -59 10 -88 10v-301c19 -6 35 -14 53 -27l16 16l17 -16c-27 -30 -71 -79 -95 -112c-40 38 -77 63 -135 63c-7 0 -19 -1 -26 -3l-4 5c13 16 38 39 64 54v321c-33 0 -57 -2 -73 -6c2 14 3 29 3 41s-1 27 -3 41c16 -4 40 -6 73 -6c0 51 -3 81 -13 96c59 16 82 34 91 68
c27 102 56 150 119 150c74 0 104 -52 181 -52c15 0 28 3 43 8c-26 -58 -32 -115 -32 -190v-168c42 25 113 77 157 118c19 -36 43 -61 77 -61c22 0 36 10 47 19z" />
    <glyph glyph-name="orn.001" horiz-adv-x="852" 
d="M833 183c0 -92 -70 -164 -160 -164c-233 0 -267 318 -452 318c-82 0 -151 -72 -151 -163c0 -75 54 -146 118 -146c41 0 54 32 55 60c-7 -4 -15 -6 -23 -6c-27 0 -41 18 -41 40c0 24 16 40 39 40c38 0 61 -33 61 -68c0 -59 -49 -106 -112 -106c-79 0 -142 75 -142 173
c0 137 105 241 243 241c222 0 294 -328 430 -328c52 0 90 47 90 103c0 40 -17 64 -41 64s-33 -19 -36 -41c-8 12 -12 25 -12 38c0 27 22 53 53 53c44 0 81 -49 81 -108z" />
    </font>
</defs>
</svg>
